<?xml version="1.0" encoding="utf-8"?>
<!-- Generator: Adobe Illustrator 16.0.0, SVG Export Plug-In . SVG Version: 6.00 Build 0)  -->
<!DOCTYPE svg PUBLIC "-//W3C//DTD SVG 1.1//EN" "http://www.w3.org/Graphics/SVG/1.1/DTD/svg11.dtd">
<svg version="1.1" id="Layer_1" xmlns="http://www.w3.org/2000/svg" xmlns:xlink="http://www.w3.org/1999/xlink" x="0px" y="0px"
	 width="150px" height="150px" viewBox="0 0 150 150" enable-background="new 0 0 150 150" xml:space="preserve">
<g>
	<path fill-rule="evenodd" clip-rule="evenodd" fill="#FFFFFF" d="M142.519,74.606c-0.364,18.313-6.311,33.943-18.595,46.982
		c-10.729,11.389-23.984,17.957-39.448,20.161c-9.824,1.4-19.536,1.026-29.083-1.811c-10.162-3.021-18.943-8.421-26.543-15.752
		c-2.297-2.216-4.412-4.625-6.564-6.986c-0.5-0.549-0.908-1.229-1.197-1.916c-0.866-2.063-0.37-3.799,1.326-4.965
		c1.803-1.24,3.938-1.124,5.462,0.447c1.697,1.747,3.242,3.643,4.938,5.392c9.274,9.564,20.443,15.45,33.711,17.177
		c12.116,1.577,23.815,0.151,34.708-5.569c17.994-9.449,29.114-24.144,31.909-44.394c2.664-19.308-2.915-36.239-16.667-50.205
		c-9.139-9.281-20.384-14.565-33.215-16.528c-12.995-1.988-25.193,0.443-36.693,6.691c-0.84,0.457-1.698,0.915-2.6,1.212
		c-2.119,0.697-4.272-0.328-5.148-2.354c-0.863-1.994-0.17-4.184,1.752-5.282c8.961-5.116,18.458-8.434,28.852-9.188
		c20.311-1.474,37.822,4.807,52.467,18.833c11.854,11.352,18.506,25.366,20.189,41.705C142.314,70.521,142.397,72.8,142.519,74.606z
		"/>
	<path fill-rule="evenodd" clip-rule="evenodd" fill="#FFFFFF" d="M79.195,52.079c0,7.116-0.031,14.232,0.02,21.347
		c0.014,1.972-0.631,3.52-2.033,4.908c-6.788,6.725-13.504,13.521-20.309,20.227c-0.9,0.888-2.083,1.664-3.277,2.036
		c-1.662,0.519-3.351-0.405-4.275-1.925c-0.958-1.572-0.798-3.133,0.19-4.617c0.351-0.525,0.824-0.977,1.275-1.427
		c6.082-6.072,12.149-12.16,18.274-18.188c1.204-1.185,1.719-2.448,1.704-4.138c-0.064-7.195-0.027-14.391-0.027-21.587
		c0-6.314-0.019-12.628,0.009-18.942c0.014-3.131,2.585-5.071,5.492-4.214c1.606,0.473,2.724,1.891,2.906,3.736
		c0.055,0.556,0.049,1.118,0.05,1.677C79.196,38.007,79.195,45.043,79.195,52.079z"/>
	<path fill-rule="evenodd" clip-rule="evenodd" fill="#FFFFFF" d="M35.062,30.081c-0.411,0.838-0.684,1.788-1.256,2.495
		c-2.536,3.132-5.109,6.237-7.772,9.262c-1.042,1.185-2.329,2.317-4.127,1.823c-1.901-0.522-3.359-1.696-3.487-3.778
		c-0.057-0.934,0.275-2.099,0.85-2.83c2.638-3.355,5.407-6.607,8.165-9.867c1.263-1.493,2.937-1.931,4.602-1.328
		C33.58,26.417,34.823,28.238,35.062,30.081z"/>
	<path fill-rule="evenodd" clip-rule="evenodd" fill="#FFFFFF" d="M15.217,100.698c-1.856-0.006-3.209-0.917-3.67-2.651
		c-1.095-4.121-2.158-8.251-3.168-12.394c-0.506-2.075,0.306-3.651,2.153-4.524c1.872-0.884,3.98-0.46,5.159,1.152
		c0.458,0.626,0.8,1.391,0.999,2.145c0.959,3.622,1.858,7.26,2.765,10.896C20.175,98.218,18.206,100.708,15.217,100.698z"/>
	<path fill-rule="evenodd" clip-rule="evenodd" fill="#FFFFFF" d="M18.284,58.282c-0.481,2.48-1.061,5.491-1.654,8.5
		c-0.169,0.859-0.326,1.728-0.584,2.562c-0.678,2.192-2.741,3.415-4.926,2.974c-2.079-0.419-3.903-2.807-3.492-4.916
		c0.732-3.753,1.58-7.486,2.506-11.197c0.492-1.975,2.552-3.105,4.589-2.765C16.84,53.794,18.356,55.615,18.284,58.282z"/>
</g>
</svg>
