<?xml version="1.0" encoding="utf-8"?>
<!-- Generator: Adobe Illustrator 16.0.0, SVG Export Plug-In . SVG Version: 6.00 Build 0)  -->
<!DOCTYPE svg PUBLIC "-//W3C//DTD SVG 1.1//EN" "http://www.w3.org/Graphics/SVG/1.1/DTD/svg11.dtd">
<svg version="1.1" id="Layer_1" xmlns="http://www.w3.org/2000/svg" xmlns:xlink="http://www.w3.org/1999/xlink" x="0px" y="0px"
	 width="350px" height="350px" viewBox="0 0 350 350" enable-background="new 0 0 350 350" xml:space="preserve">
<g>
	<path fill="#999999" d="M-437.645,128.105c0,50.159-40.662,90.822-90.819,90.822c-50.158,0-90.819-40.663-90.819-90.822
		c0-50.156,40.662-90.818,90.819-90.818c24.153,0,46.042,9.49,62.311,24.867l58.25-50.283
		c-30.51-31.643-73.234-51.432-120.561-51.432c-92.456,0-167.666,75.217-167.666,167.666c0,92.45,75.21,167.668,167.667,167.668
		s167.666-75.219,167.666-167.668H-437.645L-437.645,128.105z"/>
	<circle id="XMLID_1331_" fill="#50D2FF" cx="-528.463" cy="128.105" r="167.666"/>
	<path fill="#00AFFE" d="M-430.658,128.105c0,54.016-43.789,97.807-97.804,97.807c-54.015,0-97.806-43.791-97.806-97.807
		c0-54.018,43.791-97.805,97.806-97.805c26.267,0,50.064,10.41,67.636,27.26l52.928-45.689
		c-30.514-31.643-73.238-51.432-120.565-51.432c-92.456,0-167.666,75.217-167.666,167.666c0,92.45,75.21,167.668,167.667,167.668
		s167.666-75.219,167.666-167.668H-430.658z"/>
	<circle id="XMLID_1329_" fill="#808080" cx="-528.463" cy="128.106" r="83.833"/>
	<circle id="XMLID_1330_" fill="#50D2FF" cx="-528.463" cy="128.105" r="97.805"/>
	<path fill="#009EC9" d="M-431.77,142.078h-42.781c1.164-4.492,1.977-9.117,1.977-13.973c0-30.865-25.023-55.889-55.889-55.889
		c-30.866,0-55.889,25.023-55.889,55.889c0,15.434,6.255,29.406,16.369,39.521c14.172,14.168,56.688,56.688,56.688,56.688
		C-470.008,216.986-437.754,183.814-431.77,142.078z"/>
	<path fill="#92E8FF" d="M-388.74,142.078h-139.723c-7.723,0-13.972-6.258-13.972-13.973s6.249-13.973,13.972-13.973h139.721
		c7.727,0,13.973,6.256,13.973,13.973C-374.77,135.82-381.016,142.078-388.74,142.078z"/>
	<path fill="#35D2FC" d="M-374.77,128.105c0,7.715-6.246,13.973-13.973,13.973h-43.027c-5.986,41.744-38.256,74.928-79.557,82.24
		l54.982,55.139c56.449-26.98,95.547-84.613,95.547-151.352H-374.77z"/>
	<path opacity="0.1" enable-background="new    " d="M-528.463,30.301c-54.015,0-97.806,43.789-97.806,97.805
		c0,0.59-0.009,0.963,0,1.549c0.942-53.199,44.378-95.861,97.806-95.861c39.514,0,67.635,23.768,67.635,23.768
		C-478.381,40.816-502.287,30.301-528.463,30.301z"/>
	
		<linearGradient id="XMLID_2_" gradientUnits="userSpaceOnUse" x1="389.6465" y1="136.9233" x2="438.2853" y2="159.604" gradientTransform="matrix(6.25 0 0 6.25 -3115.75 -800.75)">
		<stop  offset="0" style="stop-color:#FFFFFF;stop-opacity:0.2"/>
		<stop  offset="1" style="stop-color:#FFFFFF;stop-opacity:0"/>
	</linearGradient>
	<circle id="XMLID_4_" fill="url(#XMLID_2_)" cx="-528.465" cy="125.898" r="167.668"/>
</g>
<g>
	<path fill="#367AFF" d="M243.785,154.043c16.297,0,32.594,0.083,48.89-0.026c13.06-0.087,26.119-0.012,39.179-0.096
		c0.987-0.006,1.354,0.187,1.483,1.275c1.222,10.148,1.909,20.324,1.728,30.547c-0.135,7.45-0.736,14.86-1.738,22.255
		c-3.6,26.566-13.375,50.623-29.32,72.132c-15.77,21.271-36.304,36.224-61.124,45.317c-11.594,4.248-23.542,7.111-35.776,8.792
		c-4.813,0.663-9.639,1.14-14.486,1.465c-6.133,0.41-12.271,0.379-18.391,0.119c-5.07-0.214-10.127-0.83-15.166-1.583
		c-9.647-1.439-19.042-3.854-28.201-7.141c-7.423-2.666-14.58-5.963-21.53-9.713c-6.226-3.357-12.263-7.011-18.08-11.033
		c-4.909-3.395-9.582-7.084-14.109-10.97c-4.143-3.555-8.044-7.364-11.748-11.354c-6.052-6.518-11.497-13.522-16.23-21.074
		c-3.253-5.191-6.232-10.529-8.842-16.068c-4.117-8.736-7.357-17.793-9.873-27.117c-1.561-5.787-2.831-11.638-3.814-17.541
		c-0.716-4.301-1.163-8.646-1.559-12.998c-0.63-6.926-0.598-13.863-0.383-20.791c0.129-4.162,0.571-8.331,1.124-12.479
		c1.212-9.097,3.099-18.041,5.835-26.8c7.113-22.773,18.779-42.898,35.114-60.302c5.685-6.059,11.814-11.624,18.413-16.68
		c5.769-4.419,11.812-8.405,18.126-11.998c10.481-5.964,21.555-10.521,33.019-14.198c7.124-2.285,14.365-4.106,21.708-5.46
		c4.452-0.821,8.954-1.401,13.478-1.833c6.346-0.607,12.693-0.877,19.051-0.638c6.08,0.229,12.123,0.846,18.146,1.829
		c9.353,1.527,18.431,3.983,27.276,7.341c6.297,2.39,12.441,5.103,18.361,8.333c7.078,3.862,13.922,8.079,20.428,12.854
		c2.369,1.738,4.692,3.531,7.056,5.274c0.618,0.457,0.465,0.635,0.034,1.06c-2.676,2.642-5.271,5.369-7.996,7.958
		c-8.879,8.434-17.284,17.34-26.037,25.9c-0.671,0.657-1.018,0.764-1.813,0.131c-4.244-3.384-8.764-6.38-13.539-8.963
		c-3.976-2.15-8.068-4.061-12.302-5.652c-5.532-2.08-11.207-3.691-17.021-4.76c-3.454-0.635-6.938-1.078-10.443-1.4
		c-4.468-0.411-8.934-0.57-13.396-0.375c-14.503,0.631-28.433,3.826-41.456,10.278c-30.91,15.315-50.373,40.01-59.262,73.192
		c-1.257,4.695-2.001,9.499-2.571,14.336c-0.642,5.454-0.822,10.924-0.634,16.387c0.181,5.272,0.775,10.529,1.743,15.735
		c1.469,7.906,3.709,15.579,6.804,22.995c2.34,5.607,5.2,10.95,8.428,16.105c2.388,3.813,5.033,7.439,7.868,10.914
		c2.747,3.365,5.805,6.463,8.943,9.476c4.269,4.099,8.898,7.754,13.783,11.067c3.356,2.275,6.9,4.271,10.503,6.156
		c9.033,4.728,18.573,8.045,28.466,10.383c4.477,1.057,9.015,1.781,13.593,2.295c5.99,0.67,12.002,0.82,17.982,0.396
		c9.494-0.677,18.768-2.614,27.694-6.007c15.362-5.841,29.018-14.379,40.375-26.301c9.487-9.959,15.28-22.01,18.797-35.215
		c0.612-2.299,1.28-4.601,1.36-6.979c0.053-1.553-0.258-3.12-0.428-4.679c-0.14-1.284-0.381-2.563-0.443-3.852
		c-0.055-1.113-0.545-1.336-1.586-1.334c-28.629,0.027-57.26,0.022-85.889,0.022c-1.926,0-1.926-0.001-1.926-1.907
		c0-15.164,0.014-30.329-0.027-45.493c-0.004-1.207,0.27-1.546,1.519-1.543C209.896,154.058,226.841,154.043,243.785,154.043z"/>
</g>
</svg>
