<?xml version="1.0" encoding="utf-8"?>
<!-- Generator: Adobe Illustrator 16.0.0, SVG Export Plug-In . SVG Version: 6.00 Build 0)  -->
<!DOCTYPE svg PUBLIC "-//W3C//DTD SVG 1.1//EN" "http://www.w3.org/Graphics/SVG/1.1/DTD/svg11.dtd">
<svg version="1.1" id="Layer_1" xmlns="http://www.w3.org/2000/svg" xmlns:xlink="http://www.w3.org/1999/xlink" x="0px" y="0px"
	 width="80px" height="70px" viewBox="1.313 7.833 80 70" enable-background="new 1.313 7.833 80 70" xml:space="preserve">
<g>
	<path fill-rule="evenodd" clip-rule="evenodd" fill="#777777" d="M7.617,73.188c0-20.348,0-40.695,0-61.043
		c0.713-1.787,1.704-3.296,3.75-3.75c20.347,0,40.695,0,61.043,0c3.101,1.245,3.748,2.22,3.749,5.635c0.001,2.949,0,5.897,0,8.847
		c0,16.343-0.003,32.685,0.004,49.028c0.001,1.641-0.372,3.132-1.8,4.096c-0.641,0.433-1.438,0.633-2.161,0.938
		c-20.279,0-40.558,0-60.835,0C9.443,76.363,8.2,75.106,7.617,73.188z M41.888,21.276c-4.583,0-9.165,0-13.747,0
		c-5.832,0-11.664-0.002-17.495,0.001c-1.423,0.001-1.51,0.098-1.535,1.544c-0.003,0.139,0,0.277,0,0.416
		c0,15.933-0.002,31.867,0.007,47.799c0,0.656,0.063,1.316,0.152,1.969c0.163,1.2,0.915,1.932,2.042,2.232
		c0.594,0.16,1.233,0.198,1.854,0.198c19.161,0.01,38.323,0.01,57.483,0.001c0.622-0.001,1.252-0.059,1.86-0.182
		c0.997-0.203,1.697-0.824,1.948-1.813c0.167-0.664,0.236-1.368,0.237-2.056c0.012-16.142,0.008-32.282,0.008-48.423
		c0-1.68-0.004-1.688-1.677-1.688C62.646,21.276,52.267,21.277,41.888,21.276z M41.784,19.75c9.895,0,19.792,0,29.688,0
		c0.692,0,1.387-0.012,2.081,0.002c0.85,0.018,1.17-0.413,1.156-1.228c-0.029-1.77,0.015-3.542-0.046-5.312
		c-0.076-2.295-1.168-3.321-3.485-3.321C51.698,9.885,32.22,9.885,12.74,9.89c-2.472,0.001-3.54,1.082-3.558,3.572
		C9.17,14.99,9.178,16.519,9.18,18.046c0.003,1.672,0.029,1.702,1.667,1.702C21.159,19.75,31.472,19.75,41.784,19.75z"/>
	<path fill-rule="evenodd" clip-rule="evenodd" fill="#777777" d="M39.736,43.196c0,5.208,0.001,10.416-0.001,15.623
		c-0.001,1.485-0.054,1.552-1.495,1.552c-7.672,0.007-15.344,0.007-23.016,0.001c-1.54-0.001-1.599-0.066-1.599-1.566
		c-0.002-10.416-0.002-20.83,0-31.244c0.001-1.467,0.066-1.553,1.507-1.556c7.708-0.011,15.414-0.01,23.121-0.001
		c1.407,0.001,1.479,0.084,1.479,1.466C39.739,32.712,39.736,37.955,39.736,43.196z M38.277,52.347c0-0.768,0-1.242,0-1.719
		c0-7.218,0.001-14.438,0-21.657c-0.001-1.375-0.074-1.443-1.501-1.444c-6.732-0.002-13.466-0.002-20.199,0
		c-1.392,0.001-1.459,0.07-1.459,1.487c-0.001,7.254-0.001,14.509,0.002,21.761c0,0.361,0.035,0.722,0.074,1.457
		c2.304-1.357,4.442-2.479,6.423-3.83c1.315-0.897,1.185-1.057,0.114-2.237c-2.061-2.275-3.036-4.944-2.643-8.023
		c0.455-3.56,3.972-6.132,8-5.904c3.973,0.224,6.832,2.625,7.205,6.068c0.325,3.006-0.578,5.613-2.625,7.825
		c-1.041,1.125-1.139,1.636,0.152,2.493C33.82,49.952,35.978,51.039,38.277,52.347z M26.569,58.812
		c3.435,0,6.871,0.002,10.306-0.003c0.515-0.001,1.035,0.062,1.191-0.681c0.485-2.318-0.402-4.421-2.472-5.575
		c-0.722-0.403-1.521-0.663-2.262-1.039c-0.614-0.311-1.072-0.165-1.603,0.237c-3.326,2.508-6.831,2.472-10.145-0.019
		c-0.325-0.244-0.876-0.487-1.205-0.378c-3.532,1.168-5.26,2.207-5.164,6.082c0.031,1.249,0.117,1.372,1.36,1.374
		C19.906,58.816,23.238,58.812,26.569,58.812z M32.904,39.424c-0.062-0.43-0.085-0.919-0.204-1.384
		c-0.791-3.079-4.166-4.909-7.573-4.125c-2.585,0.596-4.411,2.386-4.585,4.609c-0.256,3.274,0.985,5.89,3.668,7.782
		c1.64,1.154,3.277,1.151,4.94,0.025C31.563,44.695,32.672,42.33,32.904,39.424z M22.371,50.151c2.252,2.511,6.713,2.452,8.55-0.058
		c-0.204-0.261-0.44-0.515-0.624-0.804c-0.573-0.899-1.254-1.169-2.362-0.851c-0.821,0.235-1.819,0.188-2.652-0.042
		c-0.987-0.272-1.587-0.048-2.105,0.755C22.956,49.499,22.661,49.796,22.371,50.151z"/>
	<path fill-rule="evenodd" clip-rule="evenodd" fill="#777777" d="M42.007,64.612c8.71,0,17.419,0,26.128,0
		c0.276,0,0.556-0.016,0.832,0.005c0.536,0.039,1.284-0.059,1.179,0.747c-0.039,0.291-0.718,0.531-1.138,0.723
		c-0.201,0.093-0.479,0.018-0.721,0.018c-17.488,0.001-34.976,0.001-52.463-0.003c-0.519,0-1.056,0.02-1.547-0.108
		c-0.246-0.064-0.573-0.448-0.565-0.678c0.008-0.228,0.357-0.563,0.617-0.636c0.422-0.115,0.893-0.065,1.344-0.065
		C24.45,64.611,33.229,64.612,42.007,64.612z"/>
	<path fill-rule="evenodd" clip-rule="evenodd" fill="#777777" d="M34.789,71.348c-6.492,0-12.984,0-19.475-0.001
		c-0.313,0-0.652,0.07-0.93-0.03c-0.272-0.101-0.7-0.419-0.67-0.566c0.058-0.292,0.334-0.613,0.608-0.768
		c0.245-0.14,0.607-0.089,0.917-0.089c13.018-0.005,26.037-0.009,39.052,0.008c0.605,0,1.554-0.237,1.572,0.708
		c0.021,1.102-0.995,0.719-1.6,0.723C47.771,71.357,41.279,71.348,34.789,71.348z"/>
	<path fill-rule="evenodd" clip-rule="evenodd" fill="#777777" d="M57.34,47.25c-3.747,0-7.494,0-11.242-0.003
		c-0.346,0-0.721,0.039-1.027-0.082c-0.233-0.092-0.523-0.402-0.529-0.622C44.535,46.325,44.812,46,45.042,45.9
		c0.301-0.129,0.678-0.104,1.023-0.104c7.529-0.006,15.058-0.004,22.589-0.004c0.067,0,0.138-0.008,0.207,0.003
		c0.556,0.065,1.338-0.105,1.316,0.771c-0.019,0.804-0.763,0.673-1.283,0.675C65.041,47.256,61.19,47.25,57.34,47.25z"/>
	<path fill-rule="evenodd" clip-rule="evenodd" fill="#777777" d="M57.421,51.73c3.709,0,7.419-0.001,11.126,0
		c0.278,0,0.583-0.064,0.824,0.029c0.285,0.11,0.514,0.361,0.767,0.552c-0.224,0.269-0.397,0.633-0.685,0.781
		c-0.281,0.146-0.676,0.093-1.021,0.093c-7.349-0.008-14.696-0.021-22.046-0.032c-0.242,0-0.484,0-0.727,0
		c-0.541,0-1.138-0.008-1.139-0.729c-0.002-0.755,0.625-0.692,1.147-0.692C49.585,51.729,53.504,51.73,57.421,51.73z"/>
	<path fill-rule="evenodd" clip-rule="evenodd" fill="#777777" d="M51.685,39.959c1.839,0,3.68-0.005,5.519,0.003
		c0.381,0.002,0.778-0.003,1.133,0.106c0.211,0.064,0.504,0.358,0.49,0.527c-0.021,0.246-0.235,0.598-0.454,0.678
		c-0.375,0.139-0.815,0.136-1.229,0.137c-3.681,0.01-7.36,0.005-11.04,0.004c-0.243,0-0.524,0.06-0.72-0.041
		c-0.323-0.17-0.591-0.447-0.882-0.678c0.311-0.242,0.615-0.686,0.935-0.696c2.081-0.063,4.164-0.033,6.248-0.033
		C51.685,39.965,51.685,39.961,51.685,39.959z"/>
	<path fill-rule="evenodd" clip-rule="evenodd" fill="#777777" d="M40.91,14.054c5.693,0,11.386,0,17.077,0.001
		c0.313,0,0.677-0.089,0.923,0.042c0.325,0.173,0.555,0.522,0.827,0.795c-0.263,0.243-0.488,0.604-0.797,0.699
		c-0.415,0.127-0.892,0.06-1.343,0.06c-11.143,0.002-22.284,0.003-33.426-0.004c-0.587,0-1.189-0.02-1.754-0.159
		c-0.247-0.061-0.533-0.429-0.575-0.693c-0.029-0.173,0.314-0.524,0.551-0.596c0.421-0.128,0.888-0.137,1.336-0.138
		C29.457,14.052,35.184,14.054,40.91,14.054z"/>
</g>
</svg>
