<?xml version="1.0" encoding="utf-8"?>
<!-- Generator: Adobe Illustrator 16.0.0, SVG Export Plug-In . SVG Version: 6.00 Build 0)  -->
<!DOCTYPE svg PUBLIC "-//W3C//DTD SVG 1.1//EN" "http://www.w3.org/Graphics/SVG/1.1/DTD/svg11.dtd">
<svg version="1.1" id="Layer_1" xmlns="http://www.w3.org/2000/svg" xmlns:xlink="http://www.w3.org/1999/xlink" x="0px" y="0px"
	 width="150px" height="150px" viewBox="0 0 150 150" enable-background="new 0 0 150 150" xml:space="preserve">
<g>
	<path fill-rule="evenodd" clip-rule="evenodd" fill="#FFFFFF" d="M76.384,9.599c0.345,0.071,0.689,0.139,1.033,0.213
		c1.287,0.281,2.482,0.791,3.621,1.444c20.018,11.487,40.037,22.973,60.054,34.459c2.869,1.647,4.992,3.928,5.803,7.206
		c0.286,1.155,0.366,2.37,0.438,3.564c0.118,1.928,0.123,3.867-0.336,5.756c-1.151,4.747-4.219,7.571-8.918,8.648
		c-1.062,0.243-2.177,0.345-3.268,0.345c-39.591,0.017-79.181,0.016-118.773,0.008c-2.457-0.001-4.852-0.387-7.064-1.531
		c-3.112-1.611-4.877-4.244-5.647-7.595c-0.183-0.792-0.254-1.61-0.38-2.415c-0.016-0.098-0.053-0.193-0.08-0.29
		c0-1.278,0-2.555,0-3.832c0.026-0.098,0.068-0.194,0.077-0.292c0.405-4.22,2.429-7.402,6.116-9.507
		c18.674-10.658,37.347-21.317,56.028-31.96c1.943-1.107,3.912-2.18,5.93-3.14c1.066-0.505,2.265-0.73,3.404-1.083
		C75.077,9.599,75.73,9.599,76.384,9.599z M75.062,63.14c19.914,0,39.826,0,59.741,0c0.147,0,0.297,0.003,0.445-0.001
		c2.237-0.049,3.709-1.227,4.126-3.427c0.149-0.788,0.193-1.635,0.08-2.425c-0.309-2.153-1.266-3.922-3.26-5.025
		c-1.998-1.105-3.964-2.268-5.945-3.406c-14.842-8.523-29.684-17.048-44.525-25.571c-2.843-1.633-5.692-3.252-8.522-4.904
		c-1.383-0.808-2.721-0.798-4.07,0.048c-0.603,0.378-1.204,0.762-1.822,1.114C53.792,29.545,36.271,39.541,18.752,49.541
		c-1.751,0.999-3.519,1.974-5.234,3.033c-1.236,0.765-2.125,1.861-2.438,3.322c-0.341,1.599-0.211,3.187,0.248,4.75
		c0.353,1.2,1.146,1.98,2.368,2.224c0.809,0.162,1.646,0.259,2.471,0.26C35.798,63.143,55.43,63.14,75.062,63.14z"/>
	<path fill-rule="evenodd" clip-rule="evenodd" fill="#FFFFFF" d="M2.867,137.83c0.027-0.048,0.069-0.093,0.08-0.145
		c0.392-1.876,1.744-3.081,3.683-3.234c0.663-0.054,1.333-0.021,2-0.021c44.549,0,89.099,0,133.647-0.002
		c0.986,0,1.955,0.097,2.881,0.462c1.266,0.499,2.079,1.389,2.341,2.747c0.015,0.067,0.057,0.129,0.085,0.193
		c0,0.445,0,0.891,0,1.337c-0.021,0.019-0.057,0.034-0.062,0.057c-0.347,1.774-1.521,2.69-3.196,3.079
		c-0.426,0.1-0.858,0.169-1.287,0.25c-45.477,0-90.953,0-136.429,0c-0.109-0.033-0.218-0.073-0.329-0.099
		c-1.632-0.367-2.839-1.214-3.284-2.917c-0.04-0.155-0.086-0.307-0.129-0.459C2.867,138.662,2.867,138.246,2.867,137.83z"/>
	<path fill-rule="evenodd" clip-rule="evenodd" fill="#FFFFFF" d="M52.546,102.853c0,8.675,0.011,17.348-0.017,26.021
		c-0.002,0.769-0.13,1.587-0.413,2.296c-0.708,1.773-2.444,2.672-4.323,2.376c-1.711-0.27-3.096-1.752-3.31-3.558
		c-0.047-0.396-0.072-0.798-0.072-1.199c-0.004-17.36-0.003-34.722-0.004-52.084c0-1.123,0.212-2.185,0.915-3.099
		c1.017-1.323,2.688-1.859,4.299-1.387c1.574,0.461,2.727,1.878,2.876,3.549c0.032,0.354,0.047,0.711,0.047,1.066
		C52.547,85.507,52.546,94.182,52.546,102.853z"/>
	<path fill-rule="evenodd" clip-rule="evenodd" fill="#FFFFFF" d="M25.813,102.89c0,8.702,0,17.404,0,26.106
		c0,0.81-0.092,1.599-0.462,2.335c-0.831,1.656-2.501,2.512-4.317,2.211c-1.687-0.279-3.068-1.76-3.284-3.536
		c-0.047-0.396-0.072-0.8-0.072-1.199c-0.004-17.331-0.004-34.661-0.002-51.992c0-0.93,0.122-1.834,0.574-2.668
		c0.815-1.505,2.413-2.308,4.104-2.06c1.658,0.244,2.972,1.509,3.313,3.237c0.099,0.506,0.14,1.03,0.14,1.547
		C25.816,85.544,25.813,94.217,25.813,102.89z"/>
	<path fill-rule="evenodd" clip-rule="evenodd" fill="#FFFFFF" d="M106.014,102.896c0,6.875,0.002,13.751-0.001,20.625
		c-0.002,2.077,0.049,4.159-0.048,6.232c-0.142,3.036-3.359,4.802-6.015,3.332c-1.488-0.825-2.033-2.226-2.069-3.845
		c-0.032-1.469-0.007-2.938-0.007-4.408c0-15.991,0-31.984,0-47.977c0-1.197,0.213-2.335,0.97-3.308
		c1.858-2.385,5.655-1.852,6.748,0.989c0.285,0.74,0.401,1.587,0.404,2.387C106.024,85.58,106.014,94.239,106.014,102.896z"/>
	<path fill-rule="evenodd" clip-rule="evenodd" fill="#FFFFFF" d="M124.608,102.908c0-5.644-0.007-11.287,0.002-16.929
		c0.006-3.134,0.032-6.266,0.063-9.397c0.006-0.442,0.05-0.893,0.143-1.324c0.405-1.84,2.679-3.343,4.547-3.013
		c0.784,0.138,1.385,0.607,1.88,1.194c0.44,0.521,0.882,1.054,1.214,1.644c0.214,0.379,0.32,0.869,0.321,1.309
		c0.011,3.415-0.027,6.83-0.029,10.244c-0.004,14.02,0.004,28.039-0.014,42.056c-0.001,0.718-0.094,1.462-0.305,2.143
		c-0.563,1.817-2.144,2.868-3.996,2.762c-1.817-0.104-3.248-1.333-3.649-3.168c-0.095-0.431-0.139-0.882-0.14-1.324
		c-0.009-8.732-0.007-17.463-0.007-26.194C124.627,102.908,124.617,102.908,124.608,102.908z"/>
	<path fill-rule="evenodd" clip-rule="evenodd" fill="#FFFFFF" d="M79.281,102.73c0,6.207,0.003,12.413-0.003,18.62
		c-0.002,2.569-0.016,5.137-0.047,7.705c-0.026,2.25-0.838,3.652-3.674,4.345c-0.996,0.243-1.877-0.115-2.549-0.831
		c-0.605-0.644-1.152-1.359-1.612-2.111c-0.23-0.376-0.268-0.901-0.292-1.364c-0.035-0.68,0.036-1.364,0.036-2.047
		c0.002-16.69,0.001-33.381,0.003-50.071c0-0.911,0.099-1.809,0.504-2.645c0.752-1.547,1.997-2.321,3.708-2.27
		c1.701,0.05,2.903,0.905,3.508,2.484c0.238,0.622,0.369,1.326,0.37,1.992c0.025,8.731,0.017,17.462,0.017,26.193
		C79.26,102.73,79.27,102.73,79.281,102.73z"/>
</g>
</svg>
