<?xml version="1.0" encoding="utf-8"?>
<!-- Generator: Adobe Illustrator 16.0.0, SVG Export Plug-In . SVG Version: 6.00 Build 0)  -->
<!DOCTYPE svg PUBLIC "-//W3C//DTD SVG 1.1//EN" "http://www.w3.org/Graphics/SVG/1.1/DTD/svg11.dtd">
<svg version="1.1" id="Layer_1" xmlns="http://www.w3.org/2000/svg" xmlns:xlink="http://www.w3.org/1999/xlink" x="0px" y="0px"
	 width="350px" height="350px" viewBox="0 0 350 350" enable-background="new 0 0 350 350" xml:space="preserve">
<g>
	<path fill="#367AFF" d="M178.869,328.736c-45.854,0-91.708,0-137.562-0.002c-1.847,0-3.696,0-5.543-0.043
		c-6.143-0.15-10.292-4.289-10.592-10.231c-0.022-0.422-0.041-0.845-0.042-1.269c-0.046-18.053-0.074-36.107-0.158-54.159
		c-0.01-2.021,0.153-3.99,0.763-5.896c1.306-4.075,4.33-6.188,8.402-6.751c4.622-0.635,9.292-0.15,13.94-0.259
		c1.5-0.034,3.004-0.051,4.503,0.015c0.835,0.034,1.053-0.263,1.019-1.054c-0.059-1.346-0.016-2.692-0.016-4.042
		c0-29.066-0.007-58.137,0.026-87.203c0.001-1.143-0.236-1.502-1.439-1.476c-3.887,0.085-7.785-0.117-11.663,0.085
		c-2.522,0.13-4.964-0.095-7.396-0.601c-3.998-0.832-6.495-3.237-7.492-7.243c-0.688-2.761-0.637-5.561-0.643-8.356
		c-0.025-11.857-0.051-23.716,0.007-35.573c0.026-5.391,2.071-9.568,7.2-12.106C49.075,84.217,65.9,75.727,82.75,67.287
		c24.106-12.074,48.218-24.139,72.316-36.229c7.254-3.64,14.581-7.107,22.137-10.093c2.336-0.922,4.42-0.828,6.634,0.284
		c13.198,6.63,26.417,13.22,39.634,19.813c28.394,14.164,56.784,28.333,85.188,42.475c7.271,3.621,14.376,7.52,21.225,11.899
		c2.618,1.673,3.765,3.892,3.755,6.909c-0.031,11.126-0.027,22.252-0.037,33.379c-0.003,3.08,0.088,6.163-0.021,9.239
		c-0.145,4.018-1.32,7.593-5.025,9.801c-1.786,1.064-3.779,1.473-5.841,1.588c-5.346,0.303-10.696,0.07-16.046,0.137
		c-1.549,0.02-1.551,0.004-1.551,1.56c0,28.954,0.002,57.904-0.003,86.855c0,1.271,0.001,2.545-0.105,3.808
		c-0.099,1.167,0.421,1.437,1.479,1.429c4.811-0.039,9.622-0.037,14.435-0.008c1.843,0.014,3.674,0.223,5.458,0.705
		c3.834,1.039,6.243,3.916,6.796,7.86c0.325,2.319,0.435,4.634,0.433,6.967c-0.012,16.94,0.018,33.881-0.025,50.819
		c-0.008,2.972-0.448,5.877-2.396,8.348c-2.218,2.813-5.26,3.758-8.632,3.844c-3.925,0.102-7.854,0.059-11.777,0.059
		C266.805,328.736,222.838,328.736,178.869,328.736z M179.17,134.876c43.198,0,86.395,0,129.593,0c3.565,0,3.589-0.018,3.584-3.608
		c-0.006-5.466-0.096-10.935-0.001-16.4c0.064-3.832-1.571-6.397-4.979-8.082c-8.758-4.329-17.467-8.756-26.202-13.123
		c-16.929-8.459-33.86-16.901-50.793-25.354c-15.243-7.612-30.503-15.192-45.713-22.871c-3.589-1.813-6.957-1.847-10.544-0.045
		c-17.769,8.922-35.576,17.77-53.362,26.656c-22.778,11.382-45.551,22.776-68.325,34.165c-1.274,0.637-2.543,1.285-3.706,2.111
		c-1.476,1.052-2.252,2.494-2.268,4.317c-0.059,6.85-0.113,13.699-0.162,20.548c-0.015,1.979-0.036,1.681,1.671,1.681
		C91.698,134.877,135.434,134.876,179.17,134.876z M179.406,307.211c43.732,0,87.464,0.002,131.197-0.002
		c1.729,0,1.51,0.201,1.511-1.557c0.006-10.895,0.005-21.789,0-32.685c0-1.694,0.223-1.521-1.556-1.521
		c-51.894-0.002-103.785-0.014-155.682,0.002c-35.608,0.01-71.217,0.064-106.825,0.057c-1.233,0-1.427,0.387-1.424,1.494
		c0.04,10.895,0.021,21.79,0.027,32.684c0.001,1.725-0.192,1.525,1.55,1.525C91.939,307.213,135.673,307.211,179.406,307.211z
		 M211.627,203.309c0-15.129-0.011-30.26,0.02-45.391c0.002-0.96-0.26-1.216-1.217-1.215c-20.674,0.026-41.348,0.029-62.021-0.004
		c-1.097-0.002-1.324,0.341-1.325,1.367c-0.033,30.145,0.146,60.288-0.096,90.431c-0.008,1.117,0.288,1.394,1.398,1.394
		c20.635-0.035,41.271-0.037,61.907,0.002c1.167,0.004,1.359-0.354,1.357-1.422C211.613,233.416,211.627,218.361,211.627,203.309z
		 M75.356,203.227c0,15.127,0.01,30.252-0.023,45.379c-0.002,1.013,0.241,1.285,1.271,1.281c15.857-0.035,31.715-0.033,47.573,0
		c1.023,0.002,1.276-0.261,1.275-1.277c-0.028-30.178-0.028-60.353,0-90.525c0.001-1.05-0.26-1.344-1.328-1.342
		c-15.819,0.035-31.639,0.035-47.458,0c-1.062-0.002-1.335,0.279-1.333,1.337C75.368,173.127,75.356,188.178,75.356,203.227z
		 M283.24,203.219c0-15.052-0.01-30.102,0.02-45.153c0.001-1-0.182-1.373-1.299-1.37c-15.782,0.04-31.564,0.039-47.346,0.002
		c-1.082-0.002-1.325,0.316-1.324,1.353c0.025,30.18,0.025,60.356,0.001,90.535c-0.001,0.979,0.194,1.305,1.252,1.303
		c15.819-0.037,31.642-0.037,47.46,0c1.046,0.002,1.26-0.296,1.258-1.289C283.23,233.473,283.24,218.346,283.24,203.219z"/>
</g>
</svg>
