<?xml version="1.0" encoding="utf-8"?>
<!-- Generator: Adobe Illustrator 16.0.0, SVG Export Plug-In . SVG Version: 6.00 Build 0)  -->
<!DOCTYPE svg PUBLIC "-//W3C//DTD SVG 1.1//EN" "http://www.w3.org/Graphics/SVG/1.1/DTD/svg11.dtd">
<svg version="1.1" id="Layer_1" xmlns="http://www.w3.org/2000/svg" xmlns:xlink="http://www.w3.org/1999/xlink" x="0px" y="0px"
	 width="550px" height="502px" viewBox="0 0 550 502" enable-background="new 0 0 550 502" xml:space="preserve">
<g>
	<path fill-rule="evenodd" clip-rule="evenodd" fill="#6C6C75" d="M363.16,481.813c-1.421,0-2.841,0-4.264,0
		c-1.951-0.285-3.928-0.463-5.854-0.872c-13.97-2.961-24.46-10.577-30.586-23.604c-3.961-8.424-3.836-17.335-2.048-26.286
		c0.451-2.256,1.038-4.484,1.582-6.811c-26.414,0-52.714,0-79.196,0c0.213,0.646,0.375,1.172,0.562,1.69
		c2.909,8.108,3.563,16.313,0.979,24.632c-4.956,15.955-15.225,26.375-31.694,30.266c-1.908,0.45-3.872,0.661-5.811,0.984
		c-1.8,0-3.601,0-5.4,0c-0.357-0.086-0.711-0.221-1.073-0.25c-4.764-0.379-9.369-1.464-13.681-3.502
		c-11.064-5.226-19.215-13.22-22.9-25.136c-2.417-7.815-1.809-15.718,0.006-23.574c0.411-1.781,0.885-3.547,1.368-5.474
		c-0.737,0-1.299,0.011-1.859-0.001c-4.543-0.105-9.104,0.005-13.625-0.368c-9.488-0.781-18.391-3.573-26.328-8.922
		c-15.552-10.478-22.6-25.629-22.973-43.934c-0.396-19.316-0.249-38.646-0.255-57.971c-0.022-69.583-0.008-139.168-0.008-208.752
		c0-0.521,0.015-1.043-0.006-1.563c-0.278-6.88-2.889-9.431-9.775-9.524c-3.55-0.048-7.102-0.092-10.653-0.093
		c-19.327-0.009-38.653-0.004-57.979-0.007c-0.757,0-1.516-0.005-2.271-0.055c-5.96-0.394-10.754-3.818-12.52-8.941
		c-0.274-0.796-0.492-1.611-0.736-2.418c0-1.42,0-2.842,0-4.263c0.072-0.12,0.185-0.232,0.208-0.361
		c1.306-7.266,7.678-11.014,13.731-11.063c3.691-0.03,7.382-0.163,11.074-0.175c15.106-0.05,30.214-0.132,45.319-0.075
		c6.433,0.025,12.893,0.051,19.291,0.625c14.25,1.278,25.675,10.942,29.761,24.605c1.664,5.568,1.937,11.256,1.847,17.001
		c-0.033,2.078-0.005,2.08,2.087,2.081c54,0.016,108.001,0.032,162.003,0.048c2.895,0,2.898,0,3.688-2.75
		c6.431-22.394,17.974-41.724,34.976-57.667c21.799-20.442,47.738-31.765,77.446-34.564c1.582-0.148,3.159-0.347,4.739-0.521
		c4.264,0,8.527,0,12.79,0c0.263,0.078,0.522,0.195,0.79,0.229c5.579,0.711,11.235,1.045,16.727,2.178
		c29.975,6.179,54.791,21.153,74.152,44.806c18.743,22.895,28.301,49.314,28.903,78.935c0.008,0.397,0.149,0.793,0.228,1.188
		c0,0.475,0,0.948,0,1.422c-0.078,0.447-0.223,0.893-0.228,1.34c-0.118,13.222-2.313,26.112-6.633,38.584
		c-10.77,31.091-30.477,54.792-59.198,70.921c-2.843,1.598-4.66,3.842-5.628,6.958c-5.92,19.055-11.871,38.1-17.866,57.131
		c-3.1,9.841-7.29,19.164-13.233,27.667c-5.32,7.61-12.053,13.4-20.714,16.879c-8.258,3.318-16.913,4.467-25.714,4.472
		c-80.581,0.04-161.161,0.011-241.74,0.042c-9.392,0.006-18.371-1.487-26.617-6.246c-0.298-0.173-0.644-0.265-1.088-0.443
		c0.445,6.859,0.644,13.584,2.411,20.126c1.302,4.816,4.042,8.604,8.17,11.395c4.568,3.088,9.689,4.604,15.124,4.669
		c14.018,0.171,28.039,0.181,42.059,0.178c56.703-0.015,113.404-0.059,170.108-0.087c17.337-0.008,34.676-0.007,52.014,0.01
		c1.417,0.001,2.848,0.048,4.25,0.239c4.104,0.56,7.65,2.232,10.055,5.726c2.995,4.354,3.288,9.045,0.953,13.729
		c-2.409,4.829-6.627,7.262-11.903,7.48c-5.813,0.241-11.645,0.087-17.466,0.103c-1.248,0.003-2.496,0.001-3.877,0.001
		c0.416,1.72,0.794,3.177,1.119,4.647c1.704,7.704,2.57,15.5,0.495,23.21c-4.249,15.788-15.126,24.818-30.524,28.912
		C367.947,481.262,365.526,481.437,363.16,481.813z M127.815,137.426c0,0.708-0.001,1.271,0,1.833
		c0.079,21.69,0.195,43.381,0.226,65.071c0.024,18.376-0.062,36.752-0.081,55.129c-0.015,13.453-0.016,26.904,0.003,40.356
		c0.009,5.635-0.083,11.276,0.178,16.901c0.411,8.807,4.304,15.701,12.11,20.059c4.232,2.365,8.931,2.973,13.727,2.972
		c62.57-0.021,125.142-0.039,187.714-0.049c18.377-0.002,36.755,0.039,55.133,0.032c2.125-0.002,4.266-0.08,6.375-0.325
		c11.255-1.31,19.375-6.927,23.057-17.838c5.468-16.211,10.616-32.531,15.896-48.809c0.547-1.686,1.048-3.387,1.628-5.267
		c-40.629,7.495-76.981-0.947-108.589-27.752c-31.573-26.776-46.041-61.186-45.315-102.314
		C235.791,137.426,181.903,137.426,127.815,137.426z M518.09,140.059c0.155-4.647-0.402-11.809-1.875-18.881
		c-4.323-20.764-14.311-38.422-29.929-52.673c-23.79-21.708-51.896-30.307-83.73-25.689c-23.001,3.336-42.565,13.86-58.21,31.035
		c-21.942,24.09-30.678,52.496-25.375,84.698c4.338,26.345,17.582,47.7,38.705,64.029c14.247,11.013,30.432,17.492,48.331,19.555
		c10.516,1.212,20.988,0.655,31.37-1.348c21.148-4.078,39.295-13.804,53.949-29.592C509.22,191.915,518.432,169.11,518.09,140.059z
		 M375.667,439.674c-0.009-8.285-6.583-14.721-15.018-14.708c-8.479,0.016-14.598,6.301-14.59,14.98
		c0.006,8.193,6.521,14.639,14.877,14.72C368.821,454.743,375.675,447.766,375.667,439.674z M218.246,439.505
		c-0.054-8.714-6.027-14.606-14.736-14.537c-8.317,0.066-14.695,6.631-14.632,15.063c0.06,7.962,7.006,14.704,15.079,14.64
		C212.206,454.601,218.299,448.136,218.246,439.505z"/>
	<path fill-rule="evenodd" clip-rule="evenodd" fill="#6C6C75" d="M252.771,294.456c-25.004,0-50.01,0.007-75.015-0.007
		c-4.463-0.002-8.553-1.145-11.717-4.492c-3.886-4.112-4.46-8.971-2.657-14.125c1.746-4.992,5.472-7.939,10.673-8.286
		c6.271-0.42,12.582-0.267,18.876-0.355c0.567-0.009,1.136,0.024,1.703,0.024c42.907,0.002,85.814,0.003,128.721-0.001
		c2.123,0,4.247-0.047,6.368-0.038c0.416,0.002,0.872,0.085,1.241,0.269c4.924,2.464,8.952,5.841,10.791,11.23
		c0.806,2.362,0.264,4.697-0.943,6.838c-1.752,3.117-4.26,5.557-7.188,7.541c-1.819,1.234-3.959,1.454-6.124,1.454
		c-24.909-0.007-49.819-0.005-74.73-0.005C252.771,294.487,252.771,294.472,252.771,294.456z"/>
	<path fill-rule="evenodd" clip-rule="evenodd" fill="#6C6C75" d="M202.527,207.196c8.196,0,16.391-0.01,24.586,0.003
		c4.149,0.007,8.007,0.981,11.132,3.866c7.36,6.797,4.616,19.069-5.018,22.282c-1.857,0.619-3.887,0.979-5.841,0.995
		c-14.066,0.113-28.133,0.146-42.2,0.114c-3.872-0.007-7.814,0.093-11.602-0.565c-9.533-1.655-14.18-11.898-9.297-20.099
		c2.701-4.536,7.088-6.39,12.095-6.498c8.711-0.188,17.429-0.052,26.145-0.052C202.527,207.228,202.527,207.211,202.527,207.196z"/>
	<path fill-rule="evenodd" clip-rule="evenodd" fill="#FC9E07" d="M437.025,142.038c4.198,4.276,8.182,8.394,12.231,12.443
		c4.889,4.89,9.921,9.639,14.734,14.6c7.655,7.888,4.379,20.474-6.004,23.155c-5.393,1.393-9.89-0.593-13.661-4.358
		c-8.409-8.402-16.751-16.872-25.111-25.324c-0.361-0.366-0.622-0.83-1.114-1.5c-1.685,1.77-3.075,3.31-4.547,4.767
		c-7.266,7.198-14.427,14.51-21.882,21.508c-4.23,3.97-9.429,5.917-15.299,4.101c-8.402-2.599-11.667-12.067-6.613-19.577
		c1.984-2.95,4.648-5.476,7.179-8.02c7.112-7.152,14.318-14.212,21.484-21.312c0.094-0.094,0.156-0.222,0.149-0.213
		c-3.094-3.193-6.107-6.391-9.215-9.497c-5.929-5.924-12.014-11.698-17.848-17.713c-8.961-9.24-1.722-21.168,6.354-22.846
		c5.713-1.185,10.298,0.978,14.23,4.904c8.179,8.166,16.323,16.365,24.475,24.56c0.364,0.366,0.645,0.817,1.049,1.339
		c1.514-1.466,2.841-2.719,4.132-4.009c7.207-7.195,14.407-14.397,21.605-21.602c2.369-2.372,4.929-4.485,8.271-5.278
		c5.721-1.357,10.251,0.76,13.763,5.19c3.447,4.351,4.089,9.252,1.268,14.043c-1.674,2.843-4.076,5.317-6.419,7.695
		c-7.278,7.39-14.683,14.655-22.045,21.963C437.823,141.425,437.395,141.73,437.025,142.038z"/>
</g>
</svg>
