<?xml version="1.0" encoding="utf-8"?>
<!-- Generator: Adobe Illustrator 16.0.0, SVG Export Plug-In . SVG Version: 6.00 Build 0)  -->
<!DOCTYPE svg PUBLIC "-//W3C//DTD SVG 1.1//EN" "http://www.w3.org/Graphics/SVG/1.1/DTD/svg11.dtd">
<svg version="1.1" id="Isolation_Mode" xmlns="http://www.w3.org/2000/svg" xmlns:xlink="http://www.w3.org/1999/xlink" x="0px"
	 y="0px" width="240px" height="240px" viewBox="0 0 240 240" enable-background="new 0 0 240 240" xml:space="preserve">
<g>
	<g>
		<path fill="#929293" d="M121.802,7.508c62.146,0.264,112.99,48.68,115.128,111.285c2.233,65.335-49.25,118.447-113.957,119.199
			C59.101,238.732,7.021,187.34,6.554,123.51C6.085,59.546,57.262,8.034,121.802,7.508z M17.985,122.725
			c0.427,58.037,46.596,104.039,104.128,103.75c57.662-0.291,103.842-46.795,103.382-104.107
			C225.031,64.554,178.557,18.55,121.021,18.954C64.133,19.352,17.569,66.245,17.985,122.725z"/>
		<path fill="#929293" d="M118.247,133.563c-2.199,2.396-4.124,4.629-6.194,6.717c-6.927,6.998-13.895,13.953-20.871,20.902
			c-2.951,2.938-6.168,3.262-8.555,0.941c-2.442-2.371-2.125-5.771,0.891-8.782c8.984-8.971,17.988-17.92,27.188-27.079
			c-0.865-0.935-1.546-1.719-2.278-2.453c-8.483-8.503-16.966-17.01-25.468-25.495c-2.06-2.056-2.585-4.398-1.251-6.966
			c1.258-2.423,3.52-3.225,6.01-2.54c1.324,0.364,2.579,1.396,3.594,2.401c8.257,8.172,16.462,16.398,24.643,24.647
			c0.755,0.761,1.235,1.795,1.952,2.866c1.415-1.328,2.199-2.025,2.939-2.765c8.426-8.422,16.82-16.876,25.279-25.266
			c3.466-3.438,8.408-2.474,9.682,1.809c0.777,2.624-0.508,4.527-2.271,6.286c-8.295,8.274-16.556,16.583-24.869,24.84
			c-0.76,0.755-1.808,1.22-3.472,2.31c2.477,2.099,4.222,3.39,5.748,4.9c7.481,7.415,14.947,14.852,22.313,22.38
			c1.181,1.208,2.296,2.826,2.638,4.427c0.521,2.422-0.754,4.426-3.063,5.477c-2.563,1.166-4.769,0.395-6.685-1.533
			c-6.252-6.279-12.52-12.545-18.774-18.82C124.475,139.854,121.586,136.928,118.247,133.563z"/>
	</g>
</g>
</svg>
