<?xml version="1.0" encoding="utf-8"?>
<!-- Generator: Adobe Illustrator 16.0.0, SVG Export Plug-In . SVG Version: 6.00 Build 0)  -->
<!DOCTYPE svg PUBLIC "-//W3C//DTD SVG 1.1//EN" "http://www.w3.org/Graphics/SVG/1.1/DTD/svg11.dtd">
<svg version="1.1" id="Layer_1" xmlns="http://www.w3.org/2000/svg" xmlns:xlink="http://www.w3.org/1999/xlink" x="0px" y="0px"
	 width="57.75px" height="70px" viewBox="11.25 0 57.75 70" enable-background="new 11.25 0 57.75 70" xml:space="preserve">
<g>
	<path fill-rule="evenodd" clip-rule="evenodd" fill="#6085BA" d="M65.433,35.16c0,10.48,0,20.958-0.001,31.439
		c0,1.727-0.003,1.729-1.75,1.729c-15.759,0.001-31.518,0.001-47.277,0c-1.745,0-1.764-0.02-1.764-1.727
		c-0.001-20.999-0.001-41.998,0-62.997c0-1.684,0.064-1.748,1.757-1.748c15.759-0.001,31.519-0.001,47.277,0
		c1.694,0,1.757,0.062,1.757,1.744C65.433,14.121,65.433,24.64,65.433,35.16z M16.244,3.416c0,21.201,0,42.286,0,63.375
		c15.914,0,31.734,0,47.58,0c0-21.152,0-42.24,0-63.375C47.938,3.416,32.151,3.416,16.244,3.416z"/>
	<path fill-rule="evenodd" clip-rule="evenodd" fill="#6085BA" d="M27.709,9.531c1.231-0.921,2.396-1.827,3.602-2.674
		c0.325-0.229,0.872-0.479,1.142-0.352c0.262,0.124,0.412,0.721,0.417,1.113c0.03,2.676-0.057,5.355,0.044,8.027
		c0.029,0.753,0.378,1.655,0.888,2.203c3.267,3.519,3.294,8.792-0.032,12.1c-3.398,3.38-8.729,3.36-12.162-0.045
		c-3.31-3.284-3.252-8.513,0.055-12.065c0.464-0.499,0.797-1.315,0.817-1.996c0.081-2.673-0.01-5.351,0.023-8.026
		c0.005-0.46,0.302-0.917,0.464-1.376c0.421,0.167,0.892,0.263,1.254,0.516C25.394,7.775,26.526,8.651,27.709,9.531z M34.799,23.94
		c0.01-3.998-3.17-7.22-7.111-7.205c-3.901,0.015-7.083,3.206-7.095,7.115c-0.012,3.981,3.214,7.242,7.124,7.201
		C31.651,31.01,34.79,27.858,34.799,23.94z M24.036,8.604c0,2.612,0,4.98,0,7.506c2.477-1.061,4.882-0.977,7.31-0.07
		c0-2.43,0-4.69,0-7.321c-1.087,0.77-1.996,1.366-2.848,2.034c-0.569,0.446-1.027,0.447-1.588-0.002
		C26.018,10.037,25.081,9.379,24.036,8.604z"/>
	<path fill-rule="evenodd" clip-rule="evenodd" fill="#6085BA" d="M22.585,50.142c12.042,0,23.982,0,36.034,0
		c0.036,0.399,0.07,0.776,0.113,1.254c-12.074,0-24.078,0-36.147,0C22.585,51.02,22.585,50.638,22.585,50.142z"/>
	<path fill-rule="evenodd" clip-rule="evenodd" fill="#6085BA" d="M22.553,37.997c0-0.46,0-0.816,0-1.256
		c12.003,0,23.973,0,36.002,0c0,0.444,0,0.823,0,1.256C46.548,37.997,34.604,37.997,22.553,37.997z"/>
	<path fill-rule="evenodd" clip-rule="evenodd" fill="#6085BA" d="M22.573,46.896c0-0.433,0-0.776,0-1.198
		c12.017,0,23.983,0,36.042,0c0,0.389,0,0.757,0,1.198C46.622,46.896,34.654,46.896,22.573,46.896z"/>
	<path fill-rule="evenodd" clip-rule="evenodd" fill="#6085BA" d="M22.567,42.4c0-0.431,0-0.773,0-1.19c11.98,0,23.915,0,35.98,0
		c0.018,0.368,0.034,0.733,0.056,1.19C46.562,42.4,34.627,42.4,22.567,42.4z"/>
	<path fill-rule="evenodd" clip-rule="evenodd" fill="#6085BA" d="M58.646,32.268c0,0.421,0,0.76,0,1.18c-6.016,0-11.992,0-18.097,0
		c-0.019-0.347-0.039-0.716-0.064-1.18C46.553,32.268,52.526,32.268,58.646,32.268z"/>
	<path fill-rule="evenodd" clip-rule="evenodd" fill="#6085BA" d="M47.382,60.251c0,0.439,0,0.791,0,1.231c-4.89,0-9.776,0-14.723,0
		c0-0.394,0-0.774,0-1.231C37.532,60.251,42.386,60.251,47.382,60.251z"/>
	<path fill-rule="evenodd" clip-rule="evenodd" fill="#6085BA" d="M36.069,57.031c0-0.404,0-0.742,0-1.168c2.629,0,5.238,0,7.979,0
		c0.02,0.325,0.042,0.694,0.071,1.168C41.402,57.031,38.769,57.031,36.069,57.031z"/>
	<path fill-rule="evenodd" clip-rule="evenodd" fill="#6085BA" d="M51.694,9.799c1.951,0,3.816,0,5.77,0c0,0.4,0,0.804,0,1.267
		c-1.894,0-3.753,0-5.712,0C51.732,10.626,51.715,10.246,51.694,9.799z"/>
	<path fill-rule="evenodd" clip-rule="evenodd" fill="#6085BA" d="M57.483,15.597c-1.771,0-3.479,0.042-5.182-0.043
		c-0.273-0.014-0.517-0.605-0.988-1.201c2.33,0,4.218,0,6.17,0C57.483,14.739,57.483,15.11,57.483,15.597z"/>
	<path fill-rule="evenodd" clip-rule="evenodd" fill="#6085BA" d="M51.811,19.997c-0.26-0.825-0.162-1.301,0.862-1.27
		c1.584,0.048,3.171,0.013,4.82,0.013c0.023,0.475,0.041,0.818,0.063,1.257C55.611,19.997,53.726,19.997,51.811,19.997z"/>
</g>
</svg>
