<?xml version="1.0" encoding="utf-8"?>
<!-- Generator: Adobe Illustrator 16.0.0, SVG Export Plug-In . SVG Version: 6.00 Build 0)  -->
<!DOCTYPE svg PUBLIC "-//W3C//DTD SVG 1.1//EN" "http://www.w3.org/Graphics/SVG/1.1/DTD/svg11.dtd">
<svg version="1.1" id="Layer_1" xmlns="http://www.w3.org/2000/svg" xmlns:xlink="http://www.w3.org/1999/xlink" x="0px" y="0px"
	 width="88.833px" height="87.167px" viewBox="0 0 88.833 87.167" enable-background="new 0 0 88.833 87.167" xml:space="preserve">
<g>
	<path fill-rule="evenodd" clip-rule="evenodd" fill="#A4A4A4" d="M31.087,65.592c7.076-0.012,14.152-0.027,21.228-0.031
		c11.272-0.006,22.543-0.002,33.815-0.001c1.673,0,1.675,0.002,1.675,1.692c0.001,5.34-0.022,10.68,0.022,16.019
		c0.008,0.987-0.25,1.296-1.272,1.294c-18.178-0.03-36.356-0.022-54.536-0.017c-0.684,0.001-1.197,0.03-1.188-0.959
		c0.053-5.932,0.042-11.863,0.053-17.795C30.951,65.726,31.019,65.66,31.087,65.592z"/>
	<path fill-rule="evenodd" clip-rule="evenodd" fill="#A4A4A4" d="M59.441,21.036c-9.064,0-18.128-0.019-27.192,0.025
		c-1.091,0.005-1.441-0.231-1.427-1.387c0.066-5.421,0.049-10.843,0.01-16.264c-0.006-0.917,0.205-1.238,1.189-1.236
		c18.214,0.029,36.427,0.03,54.64-0.001c1.02-0.002,1.168,0.379,1.163,1.262c-0.035,5.379-0.048,10.759,0.007,16.137
		c0.011,1.128-0.244,1.501-1.45,1.494C77.4,21.01,68.42,21.036,59.441,21.036z"/>
	<path fill-rule="evenodd" clip-rule="evenodd" fill="#A4A4A4" d="M30.884,52.557c0-6.178,0.002-12.356,0.002-18.535
		c0.084-0.025,0.17-0.049,0.255-0.074c18.422-0.001,36.843,0.008,55.266-0.027c1.116-0.002,1.437,0.296,1.426,1.422
		c-0.058,5.42-0.031,10.841-0.021,16.261c0.001,0.684,0.029,1.208-0.953,1.206c-18.591-0.034-37.182-0.039-55.772-0.05
		C31.019,52.693,30.951,52.625,30.884,52.557z"/>
	<path fill-rule="evenodd" clip-rule="evenodd" fill="#A4A4A4" d="M20.146,75.064c0,2.75-0.051,5.501,0.026,8.25
		c0.029,1.053-0.347,1.24-1.304,1.251c-5.496,0.065-10.989-0.072-16.483-0.141c-0.814-0.01-1.101-0.23-1.096-1.075
		C1.32,77.765,1.322,72.18,1.288,66.595c-0.006-0.867,0.313-1.054,1.108-1.051c5.542,0.028,11.085,0.033,16.627-0.004
		c0.892-0.005,1.157,0.262,1.141,1.147C20.113,69.48,20.146,72.271,20.146,75.064z"/>
	<path fill-rule="evenodd" clip-rule="evenodd" fill="#CE4F50" d="M10.862,2.181c2.709,0,5.42,0.027,8.128-0.017
		c0.828-0.013,1.185,0.137,1.177,1.088c-0.045,5.589-0.042,11.178-0.002,16.766c0.006,0.866-0.281,1.038-1.078,1.033
		c-5.589-0.031-11.178-0.034-16.767,0.003c-0.85,0.006-1.052-0.26-1.047-1.074C1.307,14.393,1.309,8.804,1.272,3.216
		c-0.005-0.851,0.269-1.064,1.08-1.052C5.188,2.208,8.025,2.181,10.862,2.181z"/>
	<path fill-rule="evenodd" clip-rule="evenodd" fill="#A4A4A4" d="M1.289,43.16c0-2.709,0.03-5.419-0.019-8.127
		c-0.015-0.84,0.148-1.175,1.091-1.167c5.587,0.045,11.174,0.041,16.761,0.002c0.859-0.006,1.044,0.273,1.039,1.076
		c-0.031,5.543-0.038,11.087,0.004,16.631c0.007,0.971-0.412,1.248-1.253,1.245c-5.586-0.015-11.173-0.043-16.76-0.026
		c-0.804,0.003-0.878-0.36-0.874-0.999C1.3,48.917,1.289,46.039,1.289,43.16z"/>
</g>
</svg>
