<?xml version="1.0" encoding="utf-8"?>
<!-- Generator: Adobe Illustrator 16.0.0, SVG Export Plug-In . SVG Version: 6.00 Build 0)  -->
<!DOCTYPE svg PUBLIC "-//W3C//DTD SVG 1.1//EN" "http://www.w3.org/Graphics/SVG/1.1/DTD/svg11.dtd">
<svg version="1.1" id="Logo_x5F_1" xmlns="http://www.w3.org/2000/svg" xmlns:xlink="http://www.w3.org/1999/xlink" x="0px" y="0px"
	 width="250px" height="56px" viewBox="0 10.167 250 56" enable-background="new 0 10.167 250 56" xml:space="preserve">
<g>
	<path fill="#FFFFFF" d="M4.5,19.604h11.495c5.238,0,9.04,0.745,11.407,2.236c2.366,1.49,3.549,3.861,3.549,7.111
		c0,2.208-0.518,4.016-1.554,5.431c-1.035,1.415-2.412,2.266-4.13,2.552v0.252c2.34,0.522,4.029,1.5,5.065,2.93
		c1.035,1.432,1.553,3.335,1.553,5.709c0,3.369-1.217,5.997-3.651,7.883c-2.434,1.887-5.739,2.83-9.916,2.83H4.5V19.604z
		 M12.332,34.232h4.547c2.122,0,3.659-0.33,4.611-0.986c0.95-0.657,1.427-1.743,1.427-3.258c0-1.415-0.518-2.43-1.554-3.044
		c-1.035-0.615-2.673-0.922-4.914-0.922h-4.118V34.232z M12.332,40.444v9.626h5.103c2.155,0,3.747-0.413,4.775-1.237
		c1.027-0.825,1.542-2.089,1.542-3.789c0-3.065-2.19-4.6-6.569-4.6H12.332z"/>
	<path fill="#FFFFFF" d="M38.327,20.994c0-2.51,1.398-3.765,4.194-3.765s4.193,1.255,4.193,3.765c0,1.195-0.35,2.126-1.048,2.791
		c-0.699,0.666-1.748,0.998-3.145,0.998C39.725,24.782,38.327,23.52,38.327,20.994z M46.361,56.539h-7.706V28.294h7.706V56.539z"/>
	<path fill="#FFFFFF" d="M66.344,50.905c1.347,0,2.963-0.294,4.851-0.885v5.735c-1.92,0.857-4.278,1.287-7.074,1.287
		c-3.082,0-5.327-0.777-6.732-2.337c-1.407-1.558-2.11-3.894-2.11-7.01V34.079h-3.688V30.82l4.244-2.577l2.223-5.962h4.927v6.013
		h7.907v5.785h-7.907v13.618c0,1.096,0.307,1.904,0.922,2.425C64.521,50.645,65.334,50.905,66.344,50.905z"/>
	<path fill="#FFFFFF" d="M102.193,56.539h-7.705V40.041c0-2.037-0.341-3.566-1.024-4.585c-0.681-1.018-1.755-1.527-3.221-1.527
		c-1.971,0-3.402,0.723-4.294,2.171c-0.893,1.449-1.339,3.833-1.339,7.15v13.289h-7.705V28.294h5.886l1.036,3.613h0.429
		c0.758-1.298,1.852-2.313,3.284-3.044c1.432-0.733,3.073-1.099,4.926-1.099c4.227,0,7.09,1.38,8.589,4.143h0.683
		c0.757-1.313,1.873-2.333,3.347-3.058c1.474-0.723,3.137-1.085,4.99-1.085c3.2,0,5.621,0.82,7.264,2.463
		c1.641,1.641,2.463,4.273,2.463,7.894v18.418h-7.73V40.041c0-2.037-0.341-3.566-1.024-4.585c-0.681-1.018-1.755-1.527-3.22-1.527
		c-1.887,0-3.297,0.673-4.231,2.021c-0.936,1.347-1.402,3.485-1.402,6.415V56.539z"/>
	<path fill="#FFFFFF" d="M153.376,42.364c0,4.601-1.212,8.196-3.639,10.788c-2.425,2.595-5.802,3.891-10.13,3.891
		c-2.712,0-5.103-0.593-7.175-1.78c-2.071-1.188-3.663-2.894-4.774-5.116c-1.111-2.224-1.668-4.816-1.668-7.782
		c0-4.613,1.205-8.201,3.613-10.76c2.407-2.562,5.793-3.84,10.155-3.84c2.712,0,5.104,0.589,7.175,1.767
		c2.071,1.18,3.663,2.873,4.774,5.079C152.82,36.817,153.376,39.401,153.376,42.364z M133.848,42.364
		c0,2.797,0.458,4.912,1.376,6.343c0.919,1.432,2.413,2.146,4.485,2.146c2.054,0,3.532-0.709,4.433-2.133
		c0.901-1.423,1.353-3.541,1.353-6.355c0-2.794-0.455-4.89-1.364-6.29c-0.909-1.397-2.4-2.097-4.472-2.097
		c-2.055,0-3.537,0.696-4.447,2.084C134.303,37.452,133.848,39.552,133.848,42.364z"/>
	<path fill="#FFFFFF" d="M179.751,56.539l-1.036-3.612h-0.404c-0.825,1.313-1.995,2.328-3.511,3.042
		c-1.516,0.716-3.242,1.074-5.18,1.074c-3.317,0-5.819-0.888-7.504-2.665c-1.684-1.776-2.525-4.333-2.525-7.668V28.294h7.705v16.497
		c0,2.038,0.361,3.566,1.085,4.585c0.726,1.02,1.879,1.529,3.462,1.529c2.155,0,3.713-0.721,4.675-2.161
		c0.958-1.439,1.439-3.827,1.439-7.162V28.294h7.704v28.245H179.751z"/>
	<path fill="#FFFFFF" d="M219.816,56.539h-7.704V40.041c0-2.037-0.361-3.566-1.087-4.585c-0.725-1.018-1.876-1.527-3.46-1.527
		c-2.155,0-3.715,0.719-4.673,2.16c-0.962,1.438-1.441,3.827-1.441,7.162v13.289h-7.705V28.294h5.887l1.036,3.613h0.43
		c0.858-1.366,2.042-2.396,3.549-3.095c1.508-0.699,3.221-1.048,5.141-1.048c3.284,0,5.776,0.888,7.478,2.665
		c1.701,1.777,2.551,4.341,2.551,7.691V56.539z"/>
	<path fill="#FFFFFF" d="M239.649,50.905c1.348,0,2.964-0.294,4.851-0.885v5.735c-1.92,0.857-4.278,1.287-7.074,1.287
		c-3.082,0-5.326-0.777-6.732-2.337c-1.406-1.558-2.109-3.894-2.109-7.01V34.079h-3.688V30.82l4.244-2.577l2.224-5.962h4.925v6.013
		h7.909v5.785h-7.909v13.618c0,1.096,0.309,1.904,0.925,2.425C237.826,50.645,238.639,50.905,239.649,50.905z"/>
</g>
</svg>
