<?xml version="1.0" encoding="utf-8"?>
<!-- Generator: Adobe Illustrator 16.0.0, SVG Export Plug-In . SVG Version: 6.00 Build 0)  -->
<!DOCTYPE svg PUBLIC "-//W3C//DTD SVG 1.1//EN" "http://www.w3.org/Graphics/SVG/1.1/DTD/svg11.dtd">
<svg version="1.1" id="Layer_1" xmlns="http://www.w3.org/2000/svg" xmlns:xlink="http://www.w3.org/1999/xlink" x="0px" y="0px"
	 width="150px" height="150px" viewBox="0 0 150 150" enable-background="new 0 0 150 150" xml:space="preserve">
<path fill-rule="evenodd" clip-rule="evenodd" fill="#FFFFFF" d="M132.232,132.228c0,2.798,0.014,5.354-0.004,7.909
	c-0.017,2.475-1.02,3.517-3.436,3.532c-3.457,0.021-6.914,0.024-10.371-0.003c-2.319-0.019-3.333-1.065-3.354-3.43
	c-0.022-2.608-0.005-5.216-0.005-7.915c-26.724,0-53.286,0-80.125,0c0,2.445,0.005,4.921-0.001,7.396
	c-0.009,3.057-0.892,3.95-3.917,3.957c-3.278,0.008-6.557,0.019-9.835-0.006c-2.352-0.018-3.388-1.046-3.411-3.373
	c-0.026-2.613-0.006-5.227-0.006-8.067c-2.596,0-5.076,0.005-7.557-0.001c-2.953-0.007-3.889-0.91-3.889-3.799
	c-0.004-39.399-0.004-78.8-0.002-118.199c0-3.033,0.891-3.912,3.954-3.912c43.155-0.003,86.31-0.003,129.465-0.001
	c3.04,0,3.938,0.897,3.938,3.933c0.002,39.34,0.002,78.68,0,118.021c0,3.06-0.886,3.952-3.91,3.958
	C137.333,132.231,134.898,132.228,132.232,132.228z M12.171,12.121c0,38.185,0,76.233,0,114.242c41.99,0,83.854,0,125.691,0
	c0-38.147,0-76.154,0-114.242C95.948,12.121,54.126,12.121,12.171,12.121z M120.825,137.802c1.854,0,3.698,0,5.564,0
	c0-1.863,0-3.665,0-5.438c-1.926,0-3.729,0-5.564,0C120.825,134.218,120.825,135.935,120.825,137.802z M23.58,132.302
	c0,1.963,0,3.724,0,5.543c1.894,0,3.695,0,5.512,0c0-1.911,0-3.713,0-5.543C27.21,132.302,25.449,132.302,23.58,132.302z"/>
<path fill-rule="evenodd" clip-rule="evenodd" fill="#FFFFFF" d="M74.954,112.536C51.135,112.509,31.41,92.768,31.468,69.01
	c0.059-24.325,19.577-43.955,43.711-43.965c24.174-0.01,43.824,19.681,43.787,43.875C118.928,93.106,99.294,112.563,74.954,112.536z
	 M75.244,59.05c-5.241-0.021-9.649,4.34-9.703,9.602c-0.053,5.28,4.225,9.679,9.511,9.788c5.381,0.107,9.893-4.354,9.853-9.744
	C84.868,63.417,80.516,59.073,75.244,59.05z M80.096,34.402c0,5.495-0.061,9.933,0.026,14.367c0.035,1.767,4.333,3.67,5.613,2.443
	c3.247-3.125,6.337-6.412,10.171-10.328C90.533,38.681,85.606,36.662,80.096,34.402z M47.396,89.507
	c3.863-3.811,6.93-6.735,9.843-9.804c0.514-0.541,0.788-1.871,0.488-2.514c-0.612-1.305-1.614-3.32-2.594-3.404
	c-4.392-0.368-8.833-0.161-14.286-0.161C43.126,79.152,45.157,84.074,47.396,89.507z M54.343,40.981
	c3.909,3.886,6.956,6.985,10.088,9.997c1.313,1.265,5.81-0.104,5.868-1.834c0.152-4.586,0.051-9.181,0.051-14.798
	C64.746,36.668,59.892,38.681,54.343,40.981z M48.016,48.393c-3.403,4.734-5.648,9.619-6.271,15.328c5.043,0,9.838,0,15.09,0
	c-0.73-2.175,2.827-3.504,0.576-5.824C54.391,54.788,51.318,51.729,48.016,48.393z M109.561,73.625
	c-5.394,0-9.724-0.076-14.047,0.075c-0.707,0.023-1.723,0.91-1.994,1.624c-0.48,1.258-1.172,3.264-0.588,3.954
	c2.882,3.419,6.155,6.51,10.047,10.493C105.32,84.029,107.325,79.111,109.561,73.625z M70.359,103.204
	c0-5.542,0.065-9.97-0.033-14.395c-0.038-1.707-4.422-3.646-5.638-2.478c-3.243,3.114-6.346,6.371-10.175,10.25
	C59.84,98.808,64.675,100.828,70.359,103.204z M96.188,96.413c-3.896-3.795-6.95-6.848-10.118-9.776
	c-0.506-0.468-1.7-0.738-2.279-0.466c-1.327,0.626-3.445,1.558-3.524,2.511c-0.375,4.453-0.167,8.954-0.167,14.481
	C85.694,100.814,90.59,98.761,96.188,96.413z M108.731,63.781c-0.739-5.719-2.807-10.653-6.248-15.094
	c-0.479,0.353-0.66,0.454-0.8,0.595c-2.083,2.071-4.162,4.146-6.24,6.224c-3.631,3.631-3.631,3.632-1.162,8.275
	C99.008,63.781,103.75,63.781,108.731,63.781z"/>
</svg>
