<?xml version="1.0" encoding="utf-8"?>
<!-- Generator: Adobe Illustrator 16.0.0, SVG Export Plug-In . SVG Version: 6.00 Build 0)  -->
<!DOCTYPE svg PUBLIC "-//W3C//DTD SVG 1.1//EN" "http://www.w3.org/Graphics/SVG/1.1/DTD/svg11.dtd">
<svg version="1.1" id="Layer_1" xmlns="http://www.w3.org/2000/svg" xmlns:xlink="http://www.w3.org/1999/xlink" x="0px" y="0px"
	 width="350px" height="350px" viewBox="0 0 350 350" enable-background="new 0 0 350 350" xml:space="preserve">
<path fill-rule="evenodd" clip-rule="evenodd" fill="#151515" d="M66.518,303.789c-0.608-3.483,1.669-3.673,4.146-3.636
	c0.917,0.011,1.833,0.021,2.75,0.032c3.62-0.012,7.239-0.021,10.859-0.032c0.918,0.011,1.836,0.021,2.755,0.032
	c3.618-0.012,7.236-0.021,10.854-0.032c0.918,0.011,1.837,0.021,2.755,0.032c3.619-0.012,7.236-0.021,10.854-0.032
	c0.918,0.011,1.837,0.021,2.755,0.032c3.618-0.012,7.236-0.021,10.854-0.032c0.918,0.011,1.837,0.021,2.755,0.032
	c3.386,0,6.771,0,10.157,0c1.158,0.01,2.315,0.02,3.473,0.029c3.612-0.02,7.224-0.041,10.835-0.062
	c0.918,0.011,1.836,0.021,2.755,0.032c3.618-0.012,7.235-0.021,10.854-0.032c0.919,0.011,1.837,0.021,2.755,0.032
	c3.618-0.012,7.236-0.021,10.855-0.032c0.918,0.011,1.836,0.021,2.755,0.032c3.617-0.012,7.234-0.021,10.854-0.032
	c0.919,0.011,1.838,0.021,2.755,0.032c3.619-0.012,7.236-0.021,10.855-0.032c0.918,0.011,1.836,0.021,2.755,0.032
	c3.617-0.012,7.235-0.021,10.854-0.032c0.918,0.011,1.837,0.021,2.755,0.032c3.617-0.012,7.235-0.021,10.854-0.032
	c0.918,0.011,1.837,0.021,2.756,0.032c3.617-0.012,7.234-0.021,10.854-0.032c0.919,0.011,1.837,0.021,2.755,0.032
	c3.384,0,6.769,0,10.153,0c1.159,0.01,2.317,0.02,3.477,0.029c3.377-0.01,6.754-0.02,10.133-0.029
	c1.159,0.01,2.317,0.02,3.477,0.029c0.337,0.03,0.671,0.08,1.008,0.086c9.409,0.171,9.409,0.169,8.895-9.387
	c0.288-1.397,0.273-2.793-0.034-4.185c0.011-3.143,0.022-6.284,0.034-9.425c0.288-1.397,0.273-2.793-0.034-4.186
	c0-3.149-0.002-6.301-0.002-9.451c-0.011-1.149-0.024-2.3-0.037-3.45c0.316-3.386,0.272-6.772,0.037-10.159
	c-0.011-1.15-0.024-2.3-0.037-3.45c0.316-3.385,0.272-6.771,0.037-10.159c-0.011-1.15-0.024-2.3-0.037-3.451
	c0.316-3.384,0.272-6.771,0.037-10.158c-0.011-1.151-0.024-2.301-0.037-3.45c0.316-3.386,0.272-6.772,0.037-10.16
	c-0.011-1.149-0.024-2.299-0.037-3.45c0.316-3.385,0.272-6.772,0.037-10.159c-0.011-1.149-0.024-2.3-0.037-3.45
	c0.316-3.385,0.272-6.771,0.037-10.159c-0.011-1.15-0.024-2.3-0.037-3.449c0.314-3.386,0.272-6.773,0.037-10.16
	c-0.011-1.15-0.024-2.3-0.037-3.45c0.024-3.377,0.05-6.754,0.073-10.131c0.288-1.398,0.273-2.794-0.034-4.187
	c0-3.15-0.002-6.3-0.002-9.451c-0.011-1.149-0.024-2.3-0.037-3.45c0.314-3.385,0.272-6.772,0.037-10.16
	c-0.011-1.15-0.024-2.3-0.037-3.45c0.314-3.385,0.272-6.771,0.037-10.159c-0.011-1.15-0.024-2.3-0.037-3.45
	c0.314-3.385,0.272-6.772,0.037-10.16c-0.011-1.15-0.024-2.3-0.037-3.45c0.314-3.385,0.272-6.772,0.037-10.159
	c-0.011-1.15-0.024-2.3-0.037-3.45c0.314-3.386,0.272-6.772,0.037-10.16c-0.011-1.149-0.024-2.3-0.037-3.45
	c0.314-3.385,0.272-6.771,0.037-10.159c-0.011-1.15-0.024-2.3-0.037-3.45c0.314-3.385,0.272-6.771,0.037-10.16
	c-0.013-1.149-0.024-2.3-0.038-3.45c0.338-1.834-1.075-1.303-1.905-1.308c-3.104-0.02-6.207,0.06-9.312,0.102
	c-1.14-0.009-2.279-0.017-3.419-0.026c-3.396,0.009-6.794,0.017-10.19,0.026c-1.14-0.009-2.28-0.017-3.418-0.026
	c-3.397,0.009-6.795,0.017-10.192,0.026c-1.138-0.009-2.278-0.017-3.418-0.026c-3.397,0.009-6.794,0.017-10.191,0.026
	c-1.139-0.009-2.278-0.017-3.418-0.026c-3.396,0.009-6.794,0.017-10.19,0.026c-1.14-0.009-2.28-0.017-3.42-0.026
	c-3.396,0.009-6.794,0.017-10.19,0.026c-1.14-0.009-2.279-0.017-3.418-0.026c-3.397,0.009-6.794,0.017-10.191,0.026
	c-1.139-0.009-2.279-0.017-3.418-0.026c-3.397,0.009-6.794,0.017-10.192,0.026c-1.139-0.009-2.278-0.017-3.418-0.026
	c-3.397,0.009-6.794,0.017-10.191,0.026c-1.139-0.009-2.279-0.017-3.418-0.026c-3.397,0.009-6.794,0.017-10.191,0.026
	c-1.14-0.009-2.28-0.017-3.419-0.026c-3.396,0.009-6.794,0.017-10.191,0.026c-1.14-0.009-2.279-0.017-3.419-0.026
	c-3.396,0.009-6.793,0.017-10.19,0.026c-1.14-0.009-2.279-0.017-3.419-0.026c-3.396,0.009-6.793,0.017-10.19,0.026
	c-1.14-0.009-2.279-0.017-3.419-0.026c-3.396,0.007-6.793,0.015-10.189,0.023c-1.141-0.009-2.281-0.018-3.42-0.027
	c-3.282-0.027-6.564,0.008-9.842-0.107c-1.637-0.058-2.387,0.263-2.418,2.177c-0.049,3.002,1.378,6.992-0.653,8.733
	c-1.741,1.492-5.598,0.513-8.519,0.63c-0.111,0.005-0.221,0.046-0.332,0.07c-1.135-0.012-2.27-0.024-3.405-0.037
	c-3.049,0.336-4.577-0.87-4.131-4.076c-0.01-1.138-0.021-2.274-0.032-3.412c0.011-3.4,0.022-6.799,0.032-10.198
	c-0.01-1.138-0.021-2.275-0.032-3.412c0.183-4.534,0.966-8.922,3.156-12.967c2.05-3.125,4.621-5.728,7.762-7.761
	c3.618-1.82,7.44-2.445,11.492-2.442c64.478,0.042,128.956,0.015,193.433,0.032c13.04,0.004,21.586,8.35,22.126,21.475
	c0.088,2.146,0.126,4.295,0.186,6.442c-0.274,1.134-0.259,2.263,0.047,3.39c-0.362,3.405-0.31,6.813-0.047,10.22
	c-0.274,1.134-0.259,2.264,0.047,3.39c-0.362,3.405-0.31,6.812-0.047,10.22c-0.274,1.134-0.259,2.263,0.047,3.39
	c-0.362,3.405-0.31,6.812-0.047,10.22c-0.274,1.134-0.259,2.264,0.047,3.39c-0.362,3.405-0.31,6.812-0.047,10.22
	c-0.274,1.134-0.259,2.263,0.047,3.39c-0.362,3.405-0.31,6.813-0.047,10.22c-0.274,1.134-0.259,2.264,0.047,3.39
	c-0.362,3.405-0.31,6.813-0.047,10.22c-0.274,1.134-0.259,2.263,0.047,3.39c-0.362,3.405-0.31,6.812-0.047,10.22
	c-0.274,1.134-0.259,2.264,0.047,3.39c-0.362,3.405-0.31,6.813-0.047,10.22c-0.274,1.134-0.259,2.264,0.047,3.39
	c-0.362,3.405-0.31,6.812-0.047,10.22c-0.274,1.134-0.259,2.263,0.047,3.39c-0.362,3.405-0.31,6.813-0.047,10.22
	c-0.274,1.133-0.259,2.263,0.047,3.39c-0.362,3.405-0.31,6.813-0.047,10.22c-0.274,1.134-0.259,2.264,0.047,3.39
	c-0.362,3.405-0.31,6.813-0.047,10.22c-0.274,1.134-0.259,2.264,0.047,3.39c-0.362,3.405-0.31,6.813-0.047,10.22
	c-0.274,1.135-0.259,2.264,0.047,3.39c-0.362,3.405-0.31,6.813-0.047,10.221c-0.274,1.133-0.259,2.263,0.047,3.39
	c-0.362,3.405-0.31,6.812-0.047,10.22c-0.274,1.134-0.259,2.264,0.047,3.39c-0.362,3.404-0.31,6.813-0.047,10.22
	c-0.274,1.134-0.259,2.264,0.047,3.39c-0.362,3.405-0.31,6.812-0.047,10.22c-0.274,1.133-0.259,2.263,0.047,3.39
	c-0.362,3.405-0.31,6.813-0.047,10.22c-0.274,1.134-0.259,2.264,0.047,3.39c-0.362,3.405-0.31,6.813-0.047,10.221
	c-0.274,1.133-0.259,2.263,0.047,3.39c-0.362,3.404-0.31,6.812-0.047,10.219c-0.274,1.135-0.259,2.264,0.047,3.39
	c-0.369,3.404-0.293,6.812-0.063,10.22c-0.486,1.322-0.533,2.695-0.476,4.081c-2.384,8.264-7.022,14.358-15.789,16.563
	c-1.568,0.393-3.129,0.447-4.716,0.446c-64.943-0.002-129.889-0.154-194.833,0.133c-12.193,0.054-22.097-9.098-22.172-21.926
	c-0.028-4.757-0.081-9.515-0.123-14.272C66.54,306.063,66.529,304.926,66.518,303.789z M185.501,314.127c0-0.005,0-0.011,0-0.016
	c-7.476,0-14.952-0.029-22.428,0.011c-5.025,0.025-8.613,3.319-8.541,7.727c0.071,4.327,3.496,7.515,8.369,7.534
	c15.065,0.058,30.129,0.067,45.195,0.026c5.162-0.015,8.532-3.186,8.477-7.718c-0.058-4.51-3.496-7.544-8.644-7.559
	C200.454,314.11,192.979,314.127,185.501,314.127z M185.326,21.587c-8.837,0-17.675,0.05-26.513-0.033
	c-2.334-0.022-4.169,0.365-4.225,3.102c-0.057,2.816,1.637,3.487,4.228,3.476c17.902-0.078,35.805-0.069,53.706-0.007
	c2.427,0.008,4.015-0.58,4.029-3.293c0.017-2.756-1.639-3.295-4.034-3.275C203.455,21.632,194.391,21.587,185.326,21.587z"/>
<path fill-rule="evenodd" clip-rule="evenodd" fill="#151515" d="M47.567,186.751c0.328-3.634,0.283-7.27,0.04-10.905
	c-0.013-0.902-0.026-1.803-0.04-2.704c0.328-3.635,0.283-7.271,0.04-10.907c-0.013-0.901-0.026-1.803-0.04-2.703
	c0.328-3.635,0.283-7.271,0.04-10.907c-0.013-0.901-0.026-1.802-0.04-2.703c0.328-3.635,0.283-7.27,0.04-10.906
	c-0.013-0.901-0.026-1.802-0.04-2.703c0.328-3.635,0.283-7.27,0.04-10.906c-0.013-0.901-0.026-1.802-0.04-2.704
	c0.328-3.634,0.283-7.27,0.04-10.906c-0.013-0.901-0.026-1.802-0.04-2.703c0.328-3.635,0.283-7.271,0.04-10.907
	c-0.013-0.901-0.026-1.802-0.04-2.703c0.329-2.321,0.282-4.694,1.073-6.949c2.649-7.538,8.265-10.447,15.898-10.232
	c1.145,0.012,2.289,0.024,3.433,0.037c3.62-0.013,7.239-0.027,10.858-0.042c0.917,0.013,1.833,0.025,2.75,0.037
	c3.62-0.012,7.24-0.024,10.859-0.037c0.917,0.013,1.833,0.025,2.751,0.037c3.62-0.012,7.239-0.024,10.858-0.037
	c0.917,0.013,1.834,0.025,2.75,0.037c3.62-0.012,7.24-0.024,10.859-0.037c0.917,0.013,1.833,0.025,2.75,0.037
	c3.62-0.012,7.239-0.024,10.859-0.037c0.917,0.013,1.833,0.025,2.75,0.037c3.62-0.012,7.24-0.024,10.859-0.037
	c0.917,0.013,1.833,0.025,2.75,0.037c3.153,0.103,6.306,0.206,9.458,0.309c0.928,0.376,1.855,0.753,2.783,1.129
	c1.935,1.318,3.702,2.828,5.226,4.611c0.21,0.321,0.418,0.642,0.628,0.963c1.307,2.789,1.935,5.751,2.255,8.793
	c0.012,0.903,0.025,1.806,0.039,2.708c-0.321,3.633-0.28,7.267-0.037,10.901c0.012,0.902,0.024,1.806,0.037,2.708
	c-0.321,3.633-0.28,7.267-0.037,10.901c0.012,0.903,0.024,1.806,0.037,2.708c-0.321,3.633-0.28,7.267-0.037,10.902
	c0.012,0.902,0.024,1.805,0.037,2.708c-0.321,3.633-0.28,7.267-0.037,10.901c0.012,0.902,0.024,1.805,0.037,2.708
	c-0.319,3.633-0.28,7.267-0.037,10.901c0.012,0.902,0.024,1.804,0.037,2.708c-0.319,3.634-0.28,7.267-0.037,10.901
	c0.012,0.903,0.024,1.805,0.037,2.708c-0.321,3.632-0.28,7.267-0.037,10.901c0.012,0.902,0.024,1.805,0.037,2.708
	c-0.321,3.632-0.28,7.267-0.037,10.9c0.012,0.903,0.024,1.807,0.037,2.709c-0.321,3.634-0.28,7.268-0.037,10.901
	c0.012,0.902,0.024,1.805,0.037,2.708c-0.319,3.634-0.28,7.267-0.037,10.901c0.012,0.903,0.024,1.806,0.037,2.708
	c-0.321,3.633-0.28,7.267-0.037,10.901c0.012,0.903,0.024,1.806,0.037,2.709c-0.319,3.633-0.28,7.267-0.037,10.9
	c0.012,0.903,0.024,1.806,0.037,2.709c-0.395,3.649,0.07,7.371-0.917,10.972c-1.859,4.676-5.117,7.967-9.775,9.872
	c-3.458,0.139-6.916,0.277-10.375,0.416c-1.143-0.013-2.286-0.023-3.429-0.036c-3.394,0.013-6.787,0.023-10.181,0.036
	c-1.143-0.013-2.286-0.023-3.429-0.036c-3.394,0.013-6.787,0.023-10.181,0.036c-1.143-0.013-2.286-0.023-3.429-0.036
	c-3.394,0.013-6.787,0.023-10.181,0.036c-1.143-0.013-2.286-0.023-3.429-0.036c-3.394,0.013-6.789,0.024-10.183,0.036
	c-1.143-0.012-2.284-0.023-3.427-0.036c-3.393,0.013-6.787,0.023-10.181,0.036c-1.143-0.013-2.286-0.023-3.429-0.036
	c-3.393,0.013-6.787,0.023-10.181,0.036c-1.143-0.013-2.286-0.023-3.429-0.036c-3.046,0.037-5.988-0.448-8.771-1.737
	c-0.326-0.214-0.651-0.428-0.976-0.642c-1.768-1.535-3.24-3.328-4.584-5.233c-0.407-0.919-0.813-1.838-1.22-2.757
	c-0.236-3.171-0.472-6.344-0.708-9.516c-0.013-0.901-0.026-1.802-0.04-2.703c0.328-3.635,0.283-7.271,0.04-10.907
	c-0.013-0.9-0.026-1.802-0.04-2.703c0.328-3.634,0.283-7.269,0.04-10.905c-0.013-0.901-0.026-1.803-0.04-2.704
	c0.328-3.634,0.283-7.27,0.04-10.905c-0.013-0.901-0.026-1.803-0.04-2.703c0.328-3.635,0.283-7.271,0.04-10.907
	c-0.013-0.901-0.026-1.802-0.04-2.703c0.328-3.635,0.283-7.271,0.04-10.906C47.594,188.554,47.58,187.652,47.567,186.751z
	 M67.229,97.335c-7.692-0.748-7.693-0.748-7.501,6.736c0.009,0.337,0.074,0.674,0.113,1.011c0.008,0.915,0.017,1.83,0.025,2.746
	c-0.009,3.621-0.017,7.243-0.025,10.864c0.008,0.915,0.017,1.83,0.025,2.746c-0.009,3.622-0.017,7.243-0.025,10.864
	c-0.087,0.761-0.438,1.582,0.491,2.105c-1.213,3.791-0.474,7.663-0.491,11.504c0.008,0.916,0.017,1.831,0.025,2.746
	c-0.009,3.622-0.017,7.244-0.025,10.865c-0.087,0.76-0.438,1.581,0.491,2.104c-1.213,3.79-0.474,7.663-0.491,11.504
	c-0.087,0.761-0.438,1.582,0.491,2.104c-1.213,3.791-0.474,7.663-0.491,11.505c-0.087,0.761-0.438,1.582,0.491,2.104
	c-1.21,3.791-0.482,7.664-0.486,11.505c0.008,0.915,0.017,1.829,0.025,2.744c-0.008,3.622-0.017,7.244-0.025,10.865
	c0.008,0.915,0.017,1.829,0.025,2.745c-0.008,3.621-0.017,7.243-0.025,10.865c0.008,0.915,0.017,1.829,0.025,2.744
	c-0.008,3.622-0.017,7.242-0.025,10.864c0.008,0.915,0.017,1.829,0.025,2.744c-0.72,2.644,0.16,3.765,2.993,3.425
	c1.9-0.229,3.84-0.122,5.763-0.165c1.141,0.011,2.282,0.021,3.423,0.032c3.395-0.012,6.791-0.021,10.186-0.032
	c1.141,0.011,2.282,0.021,3.423,0.032c3.395-0.012,6.791-0.021,10.187-0.032c1.141,0.011,2.282,0.021,3.423,0.032
	c3.395-0.012,6.791-0.021,10.187-0.032c1.141,0.011,2.282,0.021,3.423,0.032c3.395-0.012,6.791-0.021,10.187-0.032
	c1.141,0.011,2.281,0.021,3.422,0.032c9.744,0.032,19.487,0.039,29.23,0.123c1.568,0.013,2.198-0.413,2.181-2.086
	c-0.104-9.969-0.118-19.938-0.163-29.906c-0.008-0.914-0.018-1.828-0.027-2.742c0.009-3.622,0.017-7.244,0.027-10.867
	c-0.01-0.914-0.018-1.827-0.027-2.742c0.009-3.622,0.017-7.245,0.027-10.866c-0.01-0.915-0.018-1.829-0.027-2.743
	c0.009-3.623,0.017-7.245,0.027-10.867c-0.01-0.914-0.018-1.828-0.027-2.743c0.009-3.623,0.017-7.244,0.027-10.867
	c-0.01-0.915-0.018-1.828-0.027-2.743c0.009-3.622,0.017-7.244,0.027-10.867c-0.01-0.914-0.018-1.828-0.027-2.742
	c0.009-3.623,0.017-7.245,0.027-10.868c-0.01-0.914-0.018-1.828-0.027-2.742c0.009-3.623,0.017-7.245,0.027-10.867
	c-0.01-0.915-0.018-1.828-0.027-2.743c0.009-3.622,0.017-7.244,0.027-10.867c-0.01-0.915-0.018-1.828-0.027-2.743
	c0.543-7.103,0.384-7.268-6.012-6.272c-0.918-0.474-1.859-0.412-2.81-0.118c-3.604-0.273-7.206-0.471-10.8,0.118
	c-0.918-0.474-1.86-0.412-2.81-0.118c-3.604-0.273-7.207-0.471-10.8,0.118c-0.918-0.474-1.859-0.412-2.81-0.118
	c-3.376-0.304-6.75-0.398-10.122,0.06c-1.157-0.406-2.319-0.379-3.489-0.06c-3.603-0.273-7.205-0.471-10.799,0.118
	c-0.918-0.474-1.859-0.412-2.81-0.118c-3.376-0.304-6.75-0.398-10.122,0.06c-1.157-0.406-2.319-0.379-3.488-0.06
	c-3.375-0.304-6.75-0.399-10.122,0.06C69.561,96.989,68.397,97.016,67.229,97.335z M108.456,267.675
	c5.209,0,10.419,0.036,15.628-0.013c3.8-0.035,6.25-2.08,6.374-5.18c0.126-3.142-2.505-5.505-6.396-5.524
	c-10.192-0.048-20.384-0.043-30.577-0.001c-3.735,0.015-6.261,2.15-6.372,5.191c-0.117,3.198,2.443,5.467,6.394,5.513
	C98.49,267.719,103.473,267.675,108.456,267.675z M108.606,88.091c6.231,0,12.461-0.024,18.691,0.016
	c1.621,0.011,3.078-0.151,3.119-2.164c0.039-1.896-1.204-2.449-2.929-2.446c-12.46,0.02-24.92,0.02-37.381-0.002
	c-1.714-0.002-2.979,0.524-2.95,2.428c0.031,2.006,1.466,2.194,3.1,2.183C96.372,88.06,102.489,88.086,108.606,88.091z"/>
</svg>
