<?xml version="1.0" encoding="utf-8"?>
<!-- Generator: Adobe Illustrator 16.0.0, SVG Export Plug-In . SVG Version: 6.00 Build 0)  -->
<!DOCTYPE svg PUBLIC "-//W3C//DTD SVG 1.1//EN" "http://www.w3.org/Graphics/SVG/1.1/DTD/svg11.dtd">
<svg version="1.1" id="Isolation_Mode" xmlns="http://www.w3.org/2000/svg" xmlns:xlink="http://www.w3.org/1999/xlink" x="0px"
	 y="0px" width="240px" height="240px" viewBox="0 0 240 240" enable-background="new 0 0 240 240" xml:space="preserve">
<g>
	<g>
		<path fill="#929293" d="M122.479,6.73c63.135,0.193,114.371,51.705,114.08,114.695c-0.289,62.927-51.637,114.035-114.349,113.816
			c-62.958-0.22-114.341-51.87-113.948-114.519C8.651,58.73,57.616,7.481,122.479,6.73z M19.611,120.91
			c-0.129,56.677,45.75,102.703,102.5,102.831c57.05,0.129,102.746-45.349,103.016-102.521
			c0.268-56.51-45.643-102.888-101.975-103.015C65.753,18.078,19.742,63.716,19.611,120.91z"/>
	</g>
</g>
<path fill="#929293" d="M183.125,120.986c0,2.984-2.42,5.404-5.404,5.404H67.099c-2.984,0-5.404-2.42-5.404-5.404l0,0
	c0-2.984,2.419-5.404,5.404-5.404h110.622C180.705,115.583,183.125,118.002,183.125,120.986L183.125,120.986z"/>
</svg>
