<?xml version="1.0" encoding="utf-8"?>
<!-- Generator: Adobe Illustrator 16.0.0, SVG Export Plug-In . SVG Version: 6.00 Build 0)  -->
<!DOCTYPE svg PUBLIC "-//W3C//DTD SVG 1.1//EN" "http://www.w3.org/Graphics/SVG/1.1/DTD/svg11.dtd">
<svg version="1.1" id="Layer_1" xmlns="http://www.w3.org/2000/svg" xmlns:xlink="http://www.w3.org/1999/xlink" x="0px" y="0px"
	 width="350px" height="350px" viewBox="0 0 350 350" enable-background="new 0 0 350 350" xml:space="preserve">
<path fill="#367AFF" d="M47.403,43.432c21.442,0,42.139-0.698,62.759,0.259c12.628,0.586,22.815-2.393,32.279-10.822
	c8.56-7.624,18.25-13.981,27.485-20.839c5.471-4.064,7.99-4.044,13.526,0.081c12.538,9.343,24.944,18.868,37.639,27.993
	c2.546,1.83,6.12,3.09,9.238,3.127c23.371,0.276,46.748,0.179,70.12,0.199c1.763,0.002,3.521,0,5.914,0c0,3.123,0,5.763-0.001,8.403
	c-0.007,15.823,0.086,31.647-0.103,47.468c-0.041,3.412,0.903,5.599,3.729,7.615c8.479,6.057,16.651,12.549,25.133,18.609
	c3.363,2.404,5.305,5.189,5.332,9.34c0.123,18.512,0.385,37.023,0.408,55.535c0.054,45.31,0.003,90.619,0.002,135.929
	c0,8.228-2.736,10.845-10.976,10.843c-101.408-0.027-202.82-0.025-304.229-0.029c-10.477,0-12.802-2.391-12.805-13.105
	c-0.023-63.11-0.105-126.223,0.091-189.329c0.009-2.74,1.871-6.313,4.032-8.056c8.663-6.99,17.695-13.54,26.792-19.97
	c2.859-2.022,3.737-4.209,3.703-7.596C47.306,82.545,47.4,66.003,47.403,49.46C47.403,47.691,47.403,45.923,47.403,43.432z
	 M323.165,312.175c0-54.729,0-108.502,0-162.788c-2.376,1.444-4.211,2.534-6.021,3.666c-43.721,27.326-87.521,54.521-131.064,82.127
	c-6.955,4.409-12.184,4.252-19.073-0.104c-43.58-27.544-87.412-54.689-131.168-81.955c-1.621-1.01-3.317-1.898-5.326-3.041
	c0,54.132,0,107.697,0,161.904c2.186-1.385,3.84-2.389,5.448-3.459c26.907-17.943,53.807-35.897,80.713-53.842
	c1.492-0.996,2.955-2.078,4.562-2.851c4.363-2.09,8.195-1.076,10.89,2.813c2.735,3.946,2.024,7.883-1.348,11.196
	c-1.264,1.242-2.883,2.134-4.376,3.128c-23.47,15.648-46.95,31.282-70.417,46.938c-1.518,1.014-2.953,2.15-4.903,3.58
	c84.198,0,167.461,0,251.887,0c-9.616-6.436-18.25-12.215-26.888-17.984c-17.029-11.382-34.091-22.716-51.079-34.156
	c-6.438-4.337-6.644-11.898-0.584-15.351c4.049-2.306,7.503-0.833,10.998,1.519c20.28,13.629,40.61,27.185,60.927,40.76
	C305.109,300.137,313.887,305.984,323.165,312.175z M64.935,60.909c-0.125,1.308-0.25,2.004-0.25,2.701
	c-0.013,27.854-0.101,55.709,0.155,83.56c0.019,2.048,2.063,4.812,3.949,6c34.496,21.708,69.135,43.188,103.66,64.85
	c2.945,1.85,5.011,2.114,8.109,0.164c34.791-21.914,69.664-43.699,104.606-65.369c2.989-1.854,4.019-3.799,3.997-7.277
	c-0.15-26.594-0.077-53.19-0.096-79.786c0-1.559-0.188-3.116-0.299-4.842C214.043,60.909,139.706,60.909,64.935,60.909z
	 M158.373,42.937c12.407,0,24.243,0,37.402,0c-7.099-5.306-13.096-9.788-19.158-14.321c-5.902,4.423-11.504,8.612-17.087,12.828
	C159.146,41.731,158.915,42.221,158.373,42.937z M47.079,139.643c0-4.815,0-8.922,0-13.897c-3.64,2.776-6.652,5.072-10.126,7.721
	C40.603,135.693,43.581,137.51,47.079,139.643z M306.747,125.958c0,4.815,0,8.625,0,13.2c3.44-2.144,6.234-3.885,9.567-5.963
	C312.925,130.632,310.145,128.53,306.747,125.958z"/>
<path fill="#367AFF" d="M154.897,147.116c16.056-16.937,31.86-33.618,47.68-50.284c1.231-1.298,2.423-2.712,3.883-3.7
	c3.75-2.537,7.544-2.271,10.799,0.855c3.273,3.143,3.574,6.92,1.25,10.782c-0.727,1.208-1.829,2.202-2.813,3.243
	c-17.273,18.27-34.551,36.536-51.838,54.789c-7.042,7.436-10.696,7.443-17.748,0.279c-8.188-8.318-16.447-16.568-24.667-24.857
	c-5.778-5.827-6.562-10.743-2.384-14.797c4.073-3.954,8.95-2.999,14.814,2.841C140.736,133.105,147.632,139.914,154.897,147.116z"/>
</svg>
