<?xml version="1.0" encoding="utf-8"?>
<!-- Generator: Adobe Illustrator 16.0.0, SVG Export Plug-In . SVG Version: 6.00 Build 0)  -->
<!DOCTYPE svg PUBLIC "-//W3C//DTD SVG 1.1//EN" "http://www.w3.org/Graphics/SVG/1.1/DTD/svg11.dtd">
<svg version="1.1" id="Layer_1" xmlns="http://www.w3.org/2000/svg" xmlns:xlink="http://www.w3.org/1999/xlink" x="0px" y="0px"
	 width="495px" height="505.756px" viewBox="0 0 495 505.756" enable-background="new 0 0 495 505.756" xml:space="preserve">
<g>
	<path fill="#C8172C" d="M233.607,485.495c-8.026-1.051-16.054-2.103-24.683-3.232c0-64.622,0-129.09,0-194.102
		c-2.575,0-4.524,0-6.471,0c-60.754,0-121.509-0.059-182.264,0.116c-4.425,0.013-5.653-1.476-6.173-5.499
		c-2.907-22.501-2.938-44.947,0.23-67.43c0.503-3.568,1.803-4.459,5.203-4.452c43.264,0.1,86.528,0.066,129.792,0.067
		c18.411,0,36.821,0.003,55.23-0.014c1.203-0.001,2.404-0.164,4.092-0.286c0-64.358,0-128.55,0-192.541
		c12.098-4.875,54.721-5.189,77.318-0.635c0,64.186,0,128.504,0,193.176c2.104,0.125,3.595,0.289,5.084,0.289
		c61.062,0.016,122.122,0.062,183.182-0.082c4.342-0.01,6.326,0.882,6.622,5.551c0.413,6.534,1.551,13.023,2.378,19.53
		c0,9.208,0,18.416,0,27.625c-0.695,5.599-1.43,11.192-2.076,16.798c-0.901,7.821-0.872,7.806-8.633,7.804
		c-59.997-0.009-119.995-0.01-179.99-0.014c-2.061-0.001-4.121,0-6.668,0c0,65.21,0,129.571,0,193.96
		c-1.376,0.25-2.268,0.447-3.169,0.566c-7.125,0.944-14.252,1.872-21.379,2.804C252.023,485.495,242.815,485.495,233.607,485.495z"
		/>
	<path fill="#00247D" d="M90.538,425.5c30.695-22.81,60.914-45.267,91.716-68.157c0,39.887,0,79.104,0,118.82
		C147.891,466.199,117.709,449.447,90.538,425.5z"/>
	<path fill="#00247D" d="M91.054,73.825c22.21-21.384,68.616-46.736,91.322-50.003c0,39.013,0,77.986,0,117.863
		C151.657,118.857,121.492,96.442,91.054,73.825z"/>
	<path fill="#00247D" d="M312.405,141.678c0-39.955,0-78.876,0-118.371c34.318,9.937,64.416,26.591,91.468,50.346
		C373.43,96.294,343.251,118.737,312.405,141.678z"/>
	<path fill="#C8172C" d="M182.581,314.354c0,7.356,0.097,14.077-0.096,20.79c-0.032,1.124-1.083,2.531-2.069,3.266
		c-33.545,25.004-67.14,49.942-100.734,74.88c-0.23,0.173-0.566,0.199-1.695,0.571c-6.507-7.61-13.231-15.476-20.191-23.617
		c1.43-1.204,2.412-2.119,3.48-2.919c31.417-23.501,62.816-47.028,94.331-70.397c2.015-1.495,4.917-2.319,7.462-2.461
		C169.327,314.12,175.617,314.354,182.581,314.354z"/>
	<path fill="#C8172C" d="M416.119,84.812c6.793,7.926,13.244,15.455,19.933,23.259c-1.826,1.411-3.117,2.447-4.447,3.429
		c-31.305,23.131-62.651,46.21-93.877,69.451c-3.396,2.527-6.714,3.832-10.936,3.569c-4.567-0.286-9.166-0.065-14.51-0.065
		c0-7.297-0.083-14.271,0.096-21.238c0.024-0.958,1.184-2.106,2.1-2.789C348.134,135.346,381.822,110.31,416.119,84.812z"/>
	<path fill="#C8172C" d="M159.645,184.481c-8.227,0-16.454,0.005-24.682-0.001c-7.672-0.005-15.345,0.065-23.015-0.093
		c-1.734-0.036-3.778-0.437-5.126-1.424c-21.284-15.586-42.479-31.293-63.687-46.984c-0.36-0.266-0.629-0.656-1.533-1.622
		c5.458-8.397,11.008-16.934,16.833-25.895c34.157,25.231,67.785,50.073,101.411,74.913
		C159.78,183.744,159.713,184.113,159.645,184.481z"/>
	<path fill="#00247D" d="M33.238,349.171c-4.427-11.929-8.549-23.041-12.857-34.647c20.031,0,39.13,0,59.481,0
		C64.126,326.215,49.226,337.29,33.238,349.171z"/>
	<path fill="#00247D" d="M33.5,149.802c15.763,11.738,30.567,22.764,46.31,34.488c-20.218,0-39.151,0-59.204,0
		C24.938,172.702,29.08,161.624,33.5,149.802z"/>
	<path fill="#00247D" d="M461.319,149.812c4.402,11.774,8.549,22.862,12.897,34.495c-20.015,0-38.955,0-59.225,0
		C430.743,172.578,445.536,161.563,461.319,149.812z"/>
	<path fill="#00247D" d="M312.402,476.217c0-39.854,0-78.909,0-118.951c30.821,22.916,61.021,45.368,91.785,68.241
		C377.351,449.367,347.076,466.115,312.402,476.217z"/>
	<path fill="#C8172C" d="M338.233,314.358c15.632,0,31.262-0.037,46.892,0.061c1.402,0.011,3.03,0.588,4.166,1.426
		c21.073,15.569,42.089,31.216,63.11,46.857c0.358,0.266,0.629,0.65,1.366,1.434c-5.291,8.244-10.641,16.579-16.391,25.541
		c-33.526-25.077-66.551-49.78-99.575-74.481C337.947,314.915,338.09,314.637,338.233,314.358z"/>
	<path fill="#00247D" d="M461.575,349.163c-15.972-11.868-30.818-22.899-46.473-34.532c20.055,0,39.102,0,59.266,0
		C470.134,326.063,465.999,337.22,461.575,349.163z"/>
</g>
</svg>
