<?xml version="1.0" encoding="utf-8"?>
<!-- Generator: Adobe Illustrator 16.0.0, SVG Export Plug-In . SVG Version: 6.00 Build 0)  -->
<!DOCTYPE svg PUBLIC "-//W3C//DTD SVG 1.1//EN" "http://www.w3.org/Graphics/SVG/1.1/DTD/svg11.dtd">
<svg version="1.1" id="Layer_1" xmlns="http://www.w3.org/2000/svg" xmlns:xlink="http://www.w3.org/1999/xlink" x="0px" y="0px"
	 width="57.75px" height="70px" viewBox="0 0 57.75 70" enable-background="new 0 0 57.75 70" xml:space="preserve">
<g>
	<path fill-rule="evenodd" clip-rule="evenodd" fill="#6085BA" d="M1.461,34.949c0-10.078,0-20.156,0-30.233
		c0-1.643,0.004-1.646,1.69-1.646c14.357-0.001,28.713,0,43.07,0c1.874,0,1.878,0.001,1.878,1.834
		c0.002,8.398,0.001,16.796,0.001,25.194c0,0.32-0.062,0.658,0.021,0.955c0.081,0.289,0.31,0.537,0.474,0.803
		c0.242-0.197,0.61-0.346,0.707-0.599c0.499-1.304,0.91-2.641,1.387-3.954c0.404-1.109,1.106-1.944,2.323-2.207
		c2.398-0.518,4.294,1.632,3.517,4.076c-0.835,2.624-1.783,5.21-2.684,7.813c-1.763,5.092-3.548,10.177-5.268,15.282
		c-0.299,0.89-0.441,1.869-0.456,2.811c-0.053,3.479-0.056,6.958-0.001,10.437c0.018,1.124-0.339,1.571-1.493,1.569
		c-14.557-0.022-29.113-0.021-43.67-0.004c-1.104,0.001-1.525-0.361-1.52-1.537C1.479,55.345,1.461,45.146,1.461,34.949z
		 M41.319,54.029c-0.665,0-1.177,0-1.688,0c-10.76-0.001-21.52,0.001-32.279-0.002c-1.518-0.001-1.569-0.054-1.57-1.532
		c-0.003-5.88,0.02-11.76-0.021-17.64c-0.007-1.071,0.295-1.486,1.419-1.483c11.72,0.03,23.439,0.03,35.159-0.001
		c1.105-0.003,1.468,0.39,1.454,1.458c-0.041,3.199-0.017,6.399-0.011,9.6c0.001,0.404,0.044,0.809,0.067,1.213
		c0.979-1.781,1.783-3.559,2.329-5.412c0.432-1.467,0.756-3.025,0.767-4.545c0.067-9.8,0.036-19.6,0.029-29.399
		c-0.001-0.663-0.075-1.326-0.114-1.97c-14.797,0-29.454,0-44.111,0c0,20.542,0,40.997,0,61.454c14.74,0,29.391,0,44.057,0
		c0-2.349,0-4.597,0-7.084c-1.51,1.262-2.845,2.383-4.188,3.495c-0.505,0.419-1.067,0.62-1.251-0.238
		c-0.502-2.35-1.521-4.698-0.219-7.112C41.239,54.665,41.234,54.45,41.319,54.029z M7.021,34.639c0,6.14,0,12.156,0,18.27
		c0.51,0,0.943,0,1.376,0c10.479,0,20.958,0,31.436-0.001c2.074,0,2.38-0.267,2.685-2.35c0.04-0.276,0.059-0.558,0.061-0.836
		c0.03-4.398,0.063-8.796,0.075-13.194c0.002-0.619-0.096-1.238-0.149-1.889C30.607,34.639,18.857,34.639,7.021,34.639z
		 M54.499,31.637c-1.261-0.437-2.44-0.847-3.67-1.272c-3.08,8.911-6.113,17.687-9.171,26.532c1.266,0.435,2.417,0.829,3.661,1.257
		C48.392,49.276,51.43,40.503,54.499,31.637z M51.272,29.308c1.226,0.412,2.403,0.809,3.563,1.199
		c1.41-3.009,0.599-3.695-0.57-4.152C52.797,25.781,52.012,26.561,51.272,29.308z M42.312,60.963
		c0.808-0.682,1.459-1.231,2.266-1.912c-1.041-0.294-1.874-0.529-2.836-0.801C41.944,59.216,42.106,59.986,42.312,60.963z"/>
	<path fill-rule="evenodd" clip-rule="evenodd" fill="#6085BA" d="M31.747,17.189c-3.557,0-7.114-0.021-10.67,0.015
		c-0.867,0.009-1.246-0.235-1.19-1.151c0.062-1.035,0.075-2.082-0.002-3.115c-0.083-1.104,0.509-1.241,1.392-1.237
		c5.275,0.018,10.551,0.009,15.825,0.009c1.799,0,3.598,0.032,5.396-0.013c0.931-0.023,1.313,0.353,1.286,1.265
		c-0.027,0.958-0.035,1.919,0.005,2.876c0.04,0.989-0.282,1.398-1.371,1.377C38.861,17.146,35.304,17.189,31.747,17.189z
		 M42.498,12.998c-7.165,0-14.247,0-21.333,0c0,1.033,0,1.976,0,2.947c7.149,0,14.234,0,21.333,0
		C42.498,14.921,42.498,13.982,42.498,12.998z"/>
	<path fill-rule="evenodd" clip-rule="evenodd" fill="#6085BA" d="M31.774,25.869c-3.515,0-7.031-0.034-10.545,0.021
		c-1.062,0.016-1.43-0.333-1.345-1.382c0.08-0.992,0.052-1.998,0.006-2.994c-0.036-0.756,0.213-1.092,1.009-1.091
		c7.271,0.015,14.541,0.017,21.812-0.002c0.782-0.002,1.082,0.312,1.07,1.057c-0.016,1.078-0.023,2.158,0.003,3.235
		c0.02,0.866-0.343,1.182-1.223,1.172C38.966,25.847,35.37,25.869,31.774,25.869z M21.161,21.593c0,1.082,0,2.051,0,3.004
		c7.164,0,14.228,0,21.302,0c0-1.037,0-2,0-3.004C35.319,21.593,28.292,21.593,21.161,21.593z"/>
	<path fill-rule="evenodd" clip-rule="evenodd" fill="#6085BA" d="M11.37,20.431c1.399,0,2.8,0.031,4.199-0.013
		c0.749-0.023,1.141,0.229,1.139,1c-0.003,1.159-0.002,2.317-0.009,3.476c-0.004,0.677-0.303,0.992-1.029,0.985
		c-2.959-0.026-5.919-0.021-8.878-0.004c-0.712,0.004-1.021-0.295-1.012-0.997c0.014-1.16,0.017-2.32,0-3.479
		c-0.011-0.725,0.333-0.986,1.032-0.975C8.33,20.449,9.85,20.431,11.37,20.431z M15.389,24.622c0-1.047,0-1.985,0-2.967
		c-2.829,0-5.585,0-8.323,0c0,1.046,0,1.984,0,2.967C9.851,24.622,12.551,24.622,15.389,24.622z"/>
	<path fill-rule="evenodd" clip-rule="evenodd" fill="#6085BA" d="M11.163,17.188c-1.436,0-2.871-0.03-4.305,0.012
		c-0.772,0.023-1.096-0.272-1.081-1.037c0.022-1.116,0.023-2.233,0-3.349c-0.018-0.836,0.396-1.116,1.18-1.112
		c2.87,0.018,5.741,0.018,8.611,0c0.733-0.005,1.146,0.279,1.146,1.029c0.001,1.194-0.018,2.389-0.033,3.583
		c-0.008,0.637-0.307,0.902-0.974,0.886C14.193,17.163,12.678,17.188,11.163,17.188z M7.031,15.94c2.869,0,5.639,0,8.434,0
		c0-1.027,0-1.965,0-2.941c-2.846,0-5.616,0-8.434,0C7.031,13.998,7.031,14.906,7.031,15.94z"/>
	<path fill-rule="evenodd" clip-rule="evenodd" fill="#6085BA" d="M7.046,57.305c7.519,0,14.979,0,22.436,0
		c0.243,0.935,0.243,0.957-0.729,0.96c-3.673,0.011-7.347,0.005-11.02,0.005c-3.274,0-6.548-0.003-9.822,0.002
		C7.318,58.272,6.712,58.322,7.046,57.305z"/>
	<path fill-rule="evenodd" clip-rule="evenodd" fill="#6085BA" d="M5.739,8.086c0.323-0.205,0.643-0.584,0.969-0.589
		c3.034-0.045,6.068-0.014,9.102-0.036c0.792-0.006,0.991,0.297,0.723,1.042c-3.521,0-7.02,0-10.519,0
		C5.922,8.365,5.831,8.225,5.739,8.086z"/>
	<path fill-rule="evenodd" clip-rule="evenodd" fill="#6085BA" d="M5.781,29.791c0.263-0.213,0.523-0.61,0.789-0.613
		c3.477-0.042,6.956-0.042,10.433-0.002c0.287,0.003,0.57,0.368,0.855,0.565c-0.059,0.112-0.119,0.224-0.178,0.336
		c-3.864,0-7.729,0-11.593,0C5.985,29.982,5.883,29.886,5.781,29.791z"/>
</g>
</svg>
