<?xml version="1.0" encoding="utf-8"?>
<!-- Generator: Adobe Illustrator 16.0.0, SVG Export Plug-In . SVG Version: 6.00 Build 0)  -->
<!DOCTYPE svg PUBLIC "-//W3C//DTD SVG 1.1//EN" "http://www.w3.org/Graphics/SVG/1.1/DTD/svg11.dtd">
<svg version="1.1" id="Layer_1" xmlns="http://www.w3.org/2000/svg" xmlns:xlink="http://www.w3.org/1999/xlink" x="0px" y="0px"
	 width="350px" height="350px" viewBox="0 0 350 350" enable-background="new 0 0 350 350" xml:space="preserve">
<g>
	<path fill="#367AFF" d="M125.268,339.672c-1.907-0.335-3.854-0.521-5.714-1.029c-14.294-3.918-22.916-13.393-26.701-27.519
		c-1.097-4.092-1.152-8.301-1.17-12.505c-0.05-11.816-0.125-23.631-0.14-35.447c-0.008-5.927,0.068-11.854,0.146-17.777
		c0.083-6.313,4.398-11.494,10.133-12.23c6.676-0.857,12.193,3.066,13.514,9.679c0.24,1.203,0.348,2.455,0.348,3.685
		c0,11.971-0.082,23.938-0.04,35.908c0.021,6.334,0.052,12.681,0.437,19c0.263,4.305,2.293,8.133,4.68,11.662
		c1.266,1.875,3.469,2.229,5.597,2.438c0.595,0.062,1.199,0.045,1.799,0.045c53.394-0.013,106.788-0.079,160.184,0.022
		c8.08,0.019,12.052-5.438,12.935-10.679c0.479-2.823,0.494-5.745,0.494-8.625c0.023-84.839,0.021-169.678,0.013-254.517
		c0-1.197-0.099-2.398-0.218-3.589c-0.394-3.938-2.006-5.574-5.94-6.048c-0.744-0.09-1.497-0.135-2.244-0.14
		c-5.328-0.036-10.653-0.074-15.981-0.077c-33.244-0.02-66.488-0.033-99.731-0.04c-11.033-0.002-22.064,0.009-33.095,0.042
		c-6.902,0.021-13.803,0.075-20.705,0.163c-1.189,0.015-2.397,0.182-3.558,0.448c-2.877,0.659-4.273,2.076-4.46,5.019
		c-0.215,3.397-0.121,6.815-0.125,10.224c-0.002,2.212,0.088,4.424,0.087,6.636c-0.001,9.155-0.004,18.31-0.041,27.465
		c-0.016,3.975-0.079,7.951-0.199,11.923c-0.036,1.226-0.232,2.468-0.528,3.66c-1.327,5.352-5.333,8.569-11.031,8.943
		c-7.125,0.467-12.051-3.946-12.28-11.092c-0.117-3.636-0.106-7.275-0.117-10.914c-0.035-11.518-0.119-23.036-0.05-34.552
		c0.033-5.507,0.045-11.047,0.636-16.51c1.05-9.704,6.293-16.729,14.889-21.259c4.785-2.521,9.944-3.705,15.311-4.086
		c0.359-0.026,0.713-0.133,1.069-0.202c56.289,0,112.577,0,168.866,0c0.318,0.065,0.637,0.145,0.956,0.192
		c3.183,0.474,6.435,0.67,9.533,1.458c12.01,3.052,19.714,10.449,22.268,22.793c0.331,1.595,0.53,3.217,0.791,4.827
		c0,88.786,0,177.572,0,266.357c-0.074,0.275-0.188,0.547-0.214,0.824c-0.692,7.382-3.016,14.177-7.319,20.242
		c-4.998,7.044-11.428,12.113-19.969,14.162c-1.841,0.443-3.729,0.688-5.596,1.021C236.943,339.672,181.105,339.672,125.268,339.672
		z"/>
	<path fill="#367AFF" d="M24.85,165.177c0.29-1.795,0.54-3.598,0.875-5.385c1.895-10.113,6.435-18.884,13.534-26.313
		c7.721-8.078,17.053-13.368,28.091-15.187c17.319-2.853,32.545,1.729,45.335,13.819c7.177,6.785,11.676,15.225,14.355,24.676
		c0.101,0.358,0.205,0.715,0.328,1.148c0.549,0,1.07,0,1.592,0c46.225,0,92.451,0.001,138.675-0.002
		c4.197,0,7.846,1.309,10.521,4.643c2.896,3.607,3.48,7.697,1.718,11.949c-1.784,4.295-5.177,6.913-9.781,7.25
		c-5.19,0.382-10.418,0.219-15.63,0.287c-1.154,0.014-2.311,0.002-3.596,0.002c0,0.535,0.004,0.971-0.001,1.408
		c-0.058,5.586,0.026,11.182-0.22,16.76c-0.248,5.578-3.73,9.957-8.586,11.328c-7.012,1.979-13.729-2.396-14.992-9.845
		c-0.289-1.688-0.334-3.433-0.354-5.149c-0.048-4.278-0.016-8.557-0.016-12.832c0-0.443,0-0.885,0-1.383c-6.973,0-13.824,0-20.864,0
		c0,0.416,0,0.844,0,1.272c-0.001,9.116,0.063,18.233-0.043,27.353c-0.031,2.598-0.188,5.307-0.94,7.762
		c-2.518,8.207-12.4,11.021-18.789,5.449c-3.072-2.68-4.283-6.271-4.31-10.256c-0.06-10.02-0.062-20.035-0.084-30.054
		c-0.001-0.485,0-0.969,0-1.627c-0.474,0-0.868,0-1.267,0c-17.484,0-34.969,0.007-52.453-0.021
		c-0.875-0.002-1.209,0.271-1.459,1.095c-3.193,10.534-8.736,19.557-17.515,26.345c-9.978,7.717-21.276,11.803-33.962,11.277
		c-25.729-1.063-44.868-19.336-49.243-42.045c-0.373-1.938-0.618-3.896-0.922-5.844C24.85,170.431,24.85,167.806,24.85,165.177z
		 M76.023,197.104c14.831,0.248,27.823-11.713,28.457-26.692c0.64-15.088-10.846-27.956-26.473-28.799
		c-15.338-0.827-28.455,10.729-28.991,26.578C48.502,183.391,60.215,196.6,76.023,197.104z"/>
</g>
</svg>
