<?xml version="1.0" encoding="utf-8"?>
<!-- Generator: Adobe Illustrator 16.0.0, SVG Export Plug-In . SVG Version: 6.00 Build 0)  -->
<!DOCTYPE svg PUBLIC "-//W3C//DTD SVG 1.1//EN" "http://www.w3.org/Graphics/SVG/1.1/DTD/svg11.dtd">
<svg version="1.1" id="Layer_1" xmlns="http://www.w3.org/2000/svg" xmlns:xlink="http://www.w3.org/1999/xlink" x="0px" y="0px"
	 width="350px" height="350px" viewBox="0 0 350 350" enable-background="new 0 0 350 350" xml:space="preserve">
<path fill="#367AFF" d="M43.137,244.271c-3.489,0-6.477,0.064-9.461-0.016c-6.092-0.158-10.434-4.332-10.432-9.938
	c0.001-5.547,4.422-9.76,10.517-9.936c2.881-0.085,5.765-0.016,9.01-0.016c0-33.12,0-66.035,0-99.417
	c-2.932,0-5.788,0.057-8.639-0.012c-6.393-0.151-10.913-4.341-10.89-10.018c0.023-5.709,4.486-9.77,10.928-9.888
	c2.73-0.051,5.464-0.009,8.664-0.009c0.112-1.844,0.29-3.423,0.291-5.002c0.017-27.259,0.011-54.517,0.014-81.777
	C43.14,8.858,46.664,5.375,56.134,5.375c83.703,0,167.407,0,251.112,0c12.045,0,14.806,3,14.785,15.229
	c-0.068,41.301-0.026,82.602-0.025,123.904c0.003,61.953,0.014,123.903,0.003,185.856c0,10.282-3.3,13.593-13.561,13.594
	c-84.116,0.008-168.233,0.004-252.351-0.011c-9.498-0.002-12.946-3.438-12.955-12.916c-0.023-27.121-0.006-54.244-0.006-81.363
	C43.137,248.051,43.137,246.436,43.137,244.271z M302.077,25.517c-79.921,0-159.152,0-238.623,0c0,26.566,0,52.888,0,79.529
	c3.098,0,5.84-0.039,8.581,0.008c6.573,0.11,10.905,3.992,10.967,9.774c0.063,5.92-4.416,9.997-11.165,10.119
	c-2.734,0.047-5.471,0.008-8.366,0.008c0,33.296,0,66.214,0,99.438c3.532,0,6.697-0.164,9.84,0.033
	c5.772,0.359,9.866,4.813,9.691,10.283c-0.171,5.355-4.268,9.346-9.927,9.534c-3.128,0.104-6.262,0.021-9.627,0.021
	c0,26.797,0,53.121,0,79.784c2.268,0,4.181,0,6.093,0c75.997,0,151.992-0.04,227.988,0.101c4.173,0.009,4.603-1.569,4.599-5.028
	c-0.069-95.96-0.052-191.919-0.052-287.879C302.077,29.479,302.077,27.716,302.077,25.517z"/>
<path fill="#367AFF" d="M226.438,149.231c7.891,6.013,16.563,11.424,23.766,18.358c15.64,15.054,24.02,33.765,24.605,55.663
	c0.191,6.982-3.875,11.479-10.054,11.512c-6.202,0.035-10.071-4.257-10.252-11.375c-0.778-30.32-21.055-54.443-49.437-58.805
	c-31.923-4.907-59.631,10.401-69.121,38.768c-2.197,6.566-2.796,13.733-3.596,20.688c-0.781,6.776-4.435,10.871-10.536,10.72
	c-6.047-0.148-10.273-4.924-9.875-11.762c1.834-31.557,17.232-54.621,44.34-70.257c1.458-0.84,2.98-1.572,4.465-2.365
	c0.117-0.062,0.194-0.197,0.551-0.579c-13.141-12.135-20.691-26.753-18.241-45.138c1.753-13.142,8.374-23.787,18.379-32.28
	c20.497-17.402,48.459-15.946,67.517,3.274C246.833,93.692,253.118,123.969,226.438,149.231z M162.924,110.854
	c-0.124,18.202,12.042,30.586,30.207,30.753c18.721,0.172,30.459-11.951,30.822-31.831c0.3-16.548-12.561-29.064-30.014-29.21
	C175.334,80.413,163.049,92.409,162.924,110.854z"/>
<path fill="#367AFF" d="M191.593,282c17.839,0,35.677-0.046,53.517,0.021c7.978,0.033,12.836,4.904,12.255,12.008
	c-0.517,6.279-5.318,10.099-12.91,10.109c-18.449,0.03-36.897,0.014-55.347,0.01c-17.078-0.002-34.151,0.013-51.229-0.021
	c-7.103-0.014-11.908-3.632-12.658-9.374c-0.953-7.306,3.906-12.661,11.941-12.735c13.721-0.125,27.443-0.037,41.166-0.037
	c4.422-0.002,8.842,0,13.265,0C191.593,281.986,191.593,281.993,191.593,282z"/>
</svg>
