<?xml version="1.0" encoding="utf-8"?>
<!-- Generator: Adobe Illustrator 16.0.0, SVG Export Plug-In . SVG Version: 6.00 Build 0)  -->
<!DOCTYPE svg PUBLIC "-//W3C//DTD SVG 1.1//EN" "http://www.w3.org/Graphics/SVG/1.1/DTD/svg11.dtd">
<svg version="1.1" id="Layer_1" xmlns="http://www.w3.org/2000/svg" xmlns:xlink="http://www.w3.org/1999/xlink" x="0px" y="0px"
	 width="550px" height="502px" viewBox="0 0 550 502" enable-background="new 0 0 550 502" xml:space="preserve">
<g>
	<g>
		<path fill="#6C6C75" d="M152.861,499.6c-1.881-0.308-3.754-0.682-5.644-0.911c-25.346-3.085-46.286-21.204-50.846-49.119
			c-4.601-28.168,12.276-55.583,39.362-64.622c0.151-0.051,0.311-0.078,0.462-0.131c4.083-1.403,3.754-0.691,3.748-5.32
			c-0.007-5.598-0.128-11.194-0.06-16.79c0.058-4.754,0.884-9.417,2.791-13.787c5.997-13.747,16.521-21.147,31.504-22.123
			c2.232-0.146,4.477-0.122,6.716-0.122c74.07-0.006,148.141-0.04,222.209,0.027c13.717,0.013,24.927-4.943,34.075-15.202
			c21.563-24.176,43.276-48.216,64.985-72.26c5.285-5.854,9.378-12.318,11.431-19.992c1.249-4.669,1.715-9.421,1.715-14.242
			c0.003-23.676,0.034-47.353,0.013-71.029c-0.001-1.824-0.219-3.672-0.559-5.467c-0.425-2.249-1.918-3.667-4.133-4.186
			c-1.314-0.308-2.678-0.442-4.026-0.564c-0.952-0.086-1.919-0.024-2.879-0.024c-107.506,0-215.012,0.006-322.517-0.025
			c-4.057-0.001-8.113-0.369-12.476-0.581c0,0.601,0,1.371,0,2.141c0,31.996-0.02,63.992,0.009,95.987
			c0.015,15.917,0.125,31.833,0.17,47.749c0.003,1.195-0.076,2.407-0.274,3.584c-0.569,3.389-2.971,5.502-6.421,5.707
			c-0.956,0.057-1.918-0.004-2.878-0.009c-3.676-0.019-7.352-0.039-11.028-0.054c-0.959-0.004-1.924,0.082-2.877,0.007
			c-3.631-0.289-5.61-2.502-5.605-6.16c0.029-23.196,0.055-46.392,0.079-69.588c0.027-25.437,0.053-50.873,0.073-76.309
			c0-0.708-0.073-1.417-0.125-2.385c-0.92-0.053-1.765-0.157-2.608-0.143c-7.116,0.124-14.232,0.383-21.348,0.381
			c-10.494-0.003-20.693-1.662-30.352-5.993c-14.345-6.433-23.896-17.324-29.602-31.792c-0.645-1.635-1.322-3.276-1.741-4.975
			c-0.625-2.542-2.168-3.86-4.64-4.592c-7.585-2.247-14.584-5.723-20.726-10.749c-10.937-8.95-17.704-20.502-20.585-34.253
			c-0.777-3.709-0.552-7.625-0.818-11.445C7.31,18.423,7.108,16.613,6.941,14.8c0-1.44,0-2.88,0-4.32
			c1.312-1.76,2.477-3.683,4.8-4.32c40.48,0,80.96,0,121.44,0c2.035,0.326,4.083,0.591,6.104,0.987
			c13.399,2.627,22.751,10.057,27.233,23.157c1.432,4.186,2.175,8.523,2.193,12.952c0.04,10.317-0.016,20.634,0.046,30.95
			c0.028,4.713,0.067,9.438,0.426,14.132c0.306,4.003,2.121,5.662,6.111,6.12c2.219,0.254,4.467,0.355,6.702,0.355
			c107.734,0.017,215.47,0.014,323.204,0.019c1.759,0,3.52,0.03,5.275,0.101c17.491,0.704,33.952,15.73,33.609,34.891
			c-0.176,9.832,0.074,19.672,0.155,29.508c0.007,0.784,0.195,1.565,0.3,2.348c0,8,0,16,0,24c-0.104,0.783-0.29,1.565-0.3,2.35
			c-0.095,7.758-0.046,15.52-0.286,23.272c-0.117,3.819-0.51,7.667-1.201,11.425c-2.416,13.142-8.38,24.583-17.145,34.6
			c-4.108,4.694-8.251,9.362-12.436,13.991c-18.825,20.83-37.533,41.769-56.553,62.42c-13.427,14.578-30.357,21.777-50.187,21.816
			c-41.117,0.076-82.234,0.049-123.354,0.049c-34.318,0.002-68.636-0.024-102.954-0.013c-1.831,0.001-3.68,0.132-5.489,0.407
			c-3.628,0.553-4.997,1.956-5.468,5.604c-0.266,2.057-0.389,4.142-0.417,6.215c-0.061,4.479-0.023,8.959-0.013,13.438
			c0.002,0.771,0.068,1.545,0.105,2.331c1.027,0.323,1.857,0.59,2.691,0.847c9.968,3.066,18.795,8.023,25.932,15.741
			c6.313,6.826,10.471,14.854,13.088,23.729c0.663,2.247,0.685,2.243,2.917,2.236c13.439-0.035,26.877-0.103,40.316-0.103
			c13.279,0,26.558,0.067,39.836,0.104c0.851,0.002,1.701,0,2.521,0c0.641-1.896,1.146-3.493,1.717-5.066
			c10.774-29.71,42.466-45.916,72.464-37.063c27.476,8.108,45.151,36.465,40.915,65.072c-3.931,26.536-24.538,45.175-47.577,49.26
			c-2.426,0.432-4.856,0.838-7.284,1.256c-1.6,0-3.2,0-4.8,0c-0.694-0.151-1.383-0.341-2.084-0.451
			c-2.683-0.425-5.408-0.646-8.043-1.262c-21.782-5.089-36.604-18.002-43.912-39.29c-1.164-3.39-1.632-3.725-5.157-3.723
			c-25.655,0.009-51.309,0.009-76.964,0.029c-4.465,0.004-3.936-0.464-5.509,3.87c-7.755,21.367-22.645,34.681-44.958,39.479
			c-2.721,0.585-5.5,0.904-8.252,1.347C155.421,499.6,154.141,499.6,152.861,499.6z M124.875,440.357
			c-0.032,17.009,12.333,29.384,29.211,29.616c15.854,0.22,29.891-11.592,29.997-29.49c0.099-16.614-13.003-29.719-29.624-29.744
			C137.62,410.713,124.907,423.439,124.875,440.357z M323.614,440.467c-0.021,16.948,12.41,29.306,29.327,29.504
			c16.025,0.189,29.885-11.954,29.884-29.596c-0.001-16.643-12.995-29.586-29.73-29.636
			C336.36,410.689,323.634,423.522,323.614,440.467z M139.783,50.355c0.205-3.596,0.271-6.853-0.417-10.083
			c-0.501-2.353-1.944-3.852-4.308-4.271c-1.724-0.305-3.489-0.529-5.236-0.531c-28.945-0.032-57.89-0.024-86.834-0.018
			c-0.598,0-1.196,0.074-2.03,0.129c0.403,0.809,0.629,1.393,0.96,1.907c5.068,7.863,12.319,12.179,21.604,12.838
			c4.697,0.333,9.428,0.216,14.145,0.221c19.35,0.02,38.699,0.011,58.049,0C136.981,50.547,138.246,50.431,139.783,50.355z
			 M85,79.635c0.16,0.469,0.211,0.782,0.362,1.035c3.666,6.133,8.677,10.625,15.704,12.484c2.456,0.649,4.998,1.047,7.526,1.332
			c7.726,0.87,15.479,0.405,23.224,0.324c2.61-0.027,5.222-0.004,7.954-0.004c0-5.212,0-10.118,0-15.17
			C121.48,79.635,103.328,79.635,85,79.635z"/>
	</g>
	<path fill="#FC9E07" d="M275,219.023c0,16.891-0.104,33.784,0.082,50.67c0.04,3.658-1.063,4.654-4.646,4.591
		c-11.89-0.209-23.784-0.169-35.675-0.021c-3.137,0.038-4.147-0.938-4.139-4.111c0.095-33.954,0.105-67.908-0.011-101.861
		c-0.011-3.48,1.151-4.367,4.466-4.319c11.89,0.171,23.786,0.188,35.675-0.008c3.443-0.058,4.345,1.058,4.316,4.388
		C274.919,185.24,275,202.132,275,219.023z"/>
	<path fill="#FC9E07" d="M363.199,219.658c0,16.553-0.109,33.105,0.084,49.658c0.044,3.787-0.896,5.07-4.859,4.98
		c-11.547-0.262-23.105-0.238-34.655-0.01c-3.747,0.072-4.565-1.253-4.555-4.746c0.115-33.623,0.117-67.248-0.003-100.871
		c-0.012-3.542,0.888-4.783,4.592-4.713c11.722,0.22,23.451,0.202,35.172,0.008c3.509-0.058,4.313,1.222,4.286,4.481
		C363.128,185.517,363.199,202.587,363.199,219.658z"/>
	<path fill="#FC9E07" d="M407.493,274.379c0-2.465,0-3.619,0-4.775c0-33.464,0.06-66.933-0.08-100.397
		c-0.019-3.895,0.754-5.388,5.034-5.274c11.722,0.312,23.46,0.189,35.188,0.052c3.046-0.035,4.247,0.764,4.226,4.037
		c-0.127,19.665-0.082,39.331-0.033,58.998c0.006,2.024-0.502,3.59-1.979,5.056C436.029,245.813,422.267,259.605,407.493,274.379z"
		/>
	<path fill="#6C6C75" d="M153.46,456.406c-8.932-0.036-16.364-7.481-16.389-16.417c-0.024-8.849,7.478-16.528,16.279-16.668
		c8.769-0.14,16.971,8.067,16.811,16.819C170.001,448.945,162.304,456.441,153.46,456.406z"/>
	<path fill="#6C6C75" d="M352.479,456.402c-8.97,0.086-16.507-7.222-16.654-16.144c-0.151-9.071,7.563-16.981,16.518-16.938
		c8.633,0.043,16.519,7.92,16.566,16.549C368.956,448.604,361.29,456.318,352.479,456.402z"/>
</g>
</svg>
