<?xml version="1.0" encoding="utf-8"?>
<!-- Generator: Adobe Illustrator 16.0.0, SVG Export Plug-In . SVG Version: 6.00 Build 0)  -->
<!DOCTYPE svg PUBLIC "-//W3C//DTD SVG 1.1//EN" "http://www.w3.org/Graphics/SVG/1.1/DTD/svg11.dtd">
<svg version="1.1" id="Layer_1" xmlns="http://www.w3.org/2000/svg" xmlns:xlink="http://www.w3.org/1999/xlink" x="0px" y="0px"
	 width="320px" height="72px" viewBox="-65 -3.167 320 72" enable-background="new -65 -3.167 320 72" xml:space="preserve">
<g enable-background="new    ">
	<path fill="#FFFFFF" d="M40.745,46.043c-2.258,1.191-5.069,1.788-8.435,1.788c-4.345,0-7.824-1.398-10.437-4.196
		c-2.613-2.796-3.919-6.468-3.919-11.011c0-4.884,1.47-8.833,4.409-11.843c2.939-3.009,6.667-4.516,11.183-4.516
		c2.897,0,5.296,0.419,7.199,1.256v3.813c-2.187-1.221-4.601-1.832-7.242-1.832c-3.507,0-6.351,1.172-8.53,3.515
		c-2.18,2.343-3.27,5.474-3.27,9.394c0,3.721,1.02,6.685,3.057,8.894c2.038,2.206,4.71,3.311,8.02,3.311
		c3.067,0,5.722-0.682,7.966-2.045V46.043z"/>
	<path fill="#FFFFFF" d="M57.87,29.045c-0.61-0.468-1.491-0.702-2.641-0.702c-1.491,0-2.737,0.702-3.738,2.108
		c-1,1.406-1.501,3.322-1.501,5.752v11.118h-3.493V25.51h3.493v4.495h0.085c0.497-1.534,1.257-2.73,2.279-3.591
		c1.021-0.858,2.165-1.287,3.429-1.287c0.909,0,1.604,0.1,2.086,0.298V29.045z"/>
	<path fill="#FFFFFF" d="M79.021,25.51L68.989,50.813c-1.789,4.517-4.303,6.773-7.54,6.773c-0.909,0-1.668-0.092-2.279-0.277v-3.131
		c0.753,0.257,1.441,0.383,2.066,0.383c1.761,0,3.081-1.05,3.962-3.151l1.747-4.133l-8.52-21.768H62.3l5.9,16.784
		c0.071,0.213,0.22,0.767,0.447,1.661h0.127c0.072-0.341,0.213-0.88,0.426-1.619L75.4,25.51H79.021z"/>
	<path fill="#FFFFFF" d="M86.348,44.168h-0.085v13.186h-3.494V25.51h3.494v3.834h0.085c1.718-2.897,4.231-4.346,7.54-4.346
		c2.813,0,5.007,0.977,6.582,2.93c1.576,1.952,2.365,4.567,2.365,7.848c0,3.648-0.887,6.57-2.662,8.766
		c-1.778,2.193-4.206,3.29-7.286,3.29C90.062,47.831,87.882,46.61,86.348,44.168z M86.263,35.371v3.047
		c0,1.803,0.585,3.332,1.757,4.59c1.172,1.256,2.66,1.885,4.462,1.885c2.116,0,3.774-0.81,4.972-2.428
		c1.201-1.619,1.803-3.871,1.803-6.753c0-2.427-0.563-4.33-1.685-5.707c-1.121-1.379-2.641-2.066-4.558-2.066
		c-2.031,0-3.664,0.705-4.899,2.12C86.881,31.47,86.263,33.241,86.263,35.371z"/>
	<path fill="#FFFFFF" d="M118.531,47.107c-0.822,0.454-1.909,0.682-3.259,0.682c-3.818,0-5.729-2.13-5.729-6.39V28.491h-3.749V25.51
		h3.749v-5.325l3.492-1.129v6.454h5.495v2.981h-5.495v12.291c0,1.463,0.249,2.507,0.747,3.131c0.496,0.623,1.32,0.937,2.469,0.937
		c0.88,0,1.641-0.241,2.279-0.724V47.107z"/>
	<path fill="#FFFFFF" d="M132.312,47.831c-3.224,0-5.796-1.019-7.72-3.058c-1.925-2.035-2.887-4.737-2.887-8.103
		c0-3.664,1.002-6.524,3.003-8.584c2.003-2.06,4.706-3.089,8.115-3.089c3.251,0,5.79,1.002,7.615,3.004
		c1.824,2.003,2.735,4.777,2.735,8.328c0,3.478-0.983,6.265-2.948,8.359C138.259,46.785,135.62,47.831,132.312,47.831z
		 M132.568,27.938c-2.244,0-4.02,0.763-5.326,2.29c-1.306,1.525-1.959,3.631-1.959,6.313c0,2.584,0.659,4.623,1.981,6.113
		c1.319,1.491,3.088,2.237,5.304,2.237c2.258,0,3.994-0.73,5.206-2.194c1.217-1.463,1.822-3.543,1.822-6.241
		c0-2.726-0.605-4.828-1.822-6.303C136.563,28.677,134.826,27.938,132.568,27.938z"/>
	<path fill="#FFFFFF" d="M166.859,47.321h-3.492V34.882c0-4.628-1.688-6.943-5.069-6.943c-1.746,0-3.193,0.656-4.336,1.969
		c-1.142,1.313-1.715,2.972-1.715,4.975v12.439h-3.492V25.51h3.492v3.621h0.088c1.645-2.754,4.031-4.133,7.155-4.133
		c2.386,0,4.211,0.771,5.474,2.311c1.265,1.542,1.896,3.768,1.896,6.678V47.321z"/>
	<path fill="#FFFFFF" d="M182.559,47.831c-3.224,0-5.798-1.019-7.722-3.058c-1.925-2.035-2.887-4.737-2.887-8.103
		c0-3.664,1.001-6.524,3.005-8.584c2-2.06,4.706-3.089,8.113-3.089c3.253,0,5.791,1.002,7.615,3.004
		c1.825,2.003,2.737,4.777,2.737,8.328c0,3.478-0.983,6.265-2.95,8.359C188.503,46.785,185.865,47.831,182.559,47.831z
		 M182.813,27.938c-2.244,0-4.021,0.763-5.326,2.29c-1.305,1.525-1.959,3.631-1.959,6.313c0,2.584,0.661,4.623,1.98,6.113
		c1.322,1.491,3.09,2.237,5.305,2.237c2.258,0,3.993-0.73,5.206-2.194c1.217-1.463,1.822-3.543,1.822-6.241
		c0-2.726-0.605-4.828-1.822-6.303C186.807,28.677,185.071,27.938,182.813,27.938z"/>
	<path fill="#FFFFFF" d="M229.97,47.321h-3.492V34.796c0-2.412-0.374-4.159-1.117-5.239c-0.746-1.08-1.999-1.618-3.761-1.618
		c-1.491,0-2.758,0.682-3.803,2.043c-1.041,1.364-1.564,2.998-1.564,4.9v12.439h-3.492v-12.95c0-4.289-1.655-6.433-4.964-6.433
		c-1.533,0-2.798,0.642-3.791,1.927s-1.491,2.957-1.491,5.017v12.439H199V25.51h3.494v3.45h0.086
		c1.547-2.642,3.807-3.962,6.773-3.962c1.489,0,2.789,0.416,3.898,1.246c1.106,0.832,1.867,1.921,2.277,3.27
		c1.618-3.009,4.031-4.516,7.243-4.516c4.798,0,7.197,2.961,7.197,8.882V47.321z"/>
	<path fill="#FFFFFF" d="M252.186,47.321h-3.492v-3.408h-0.086c-1.519,2.613-3.755,3.918-6.709,3.918
		c-2.173,0-3.873-0.574-5.104-1.725c-1.227-1.149-1.84-2.678-1.84-4.579c0-4.075,2.399-6.447,7.2-7.114l6.538-0.916
		c0-3.706-1.499-5.559-4.496-5.559c-2.624,0-4.997,0.894-7.113,2.684v-3.579c2.146-1.362,4.615-2.045,7.412-2.045
		c5.127,0,7.689,2.712,7.689,8.138V47.321z M248.693,36.287l-5.263,0.724c-1.618,0.229-2.839,0.631-3.663,1.203
		c-0.822,0.577-1.234,1.594-1.234,3.057c0,1.065,0.38,1.936,1.141,2.608c0.759,0.676,1.771,1.014,3.034,1.014
		c1.732,0,3.162-0.606,4.293-1.822c1.127-1.212,1.692-2.751,1.692-4.611V36.287z"/>
</g>
<g>
	<circle fill-rule="evenodd" clip-rule="evenodd" fill="#377AFD" cx="-29.99" cy="33.599" r="33.224"/>
	<path fill-rule="evenodd" clip-rule="evenodd" fill="#FFFFFF" d="M-22.88,28.663c-0.569,3.658-0.873,7.168-1.694,10.594
		c-0.791,3.302-1.998,6.406-4.537,8.8c-1.722,1.624-3.797,2.372-6.151,1.979c-3.064-0.511-4.875-2.948-4.906-6.618
		c-0.026-3.006,1.29-5.406,3.73-7.123c2.039-1.435,4.509-0.63,5.353,1.708c0.406,1.126,0.732,2.304,0.424,3.532
		c-0.07,0.28-0.109,0.658-0.515,0.623c-0.504-0.047-0.288-0.423-0.238-0.689c0.209-1.108-0.181-2.132-0.503-3.145
		c-0.374-1.174-1.343-1.491-2.468-0.912c-2.989,1.538-4.563,7.331-2.76,10.156c0.878,1.376,2.267,1.77,3.813,1.024
		c1.651-0.798,2.797-2.119,3.606-3.732c2.076-4.137,2.924-8.603,3.315-13.158c0.223-2.599,0.969-5.17,0.529-7.815
		c-0.082-0.494,0.229-0.717,0.648-0.784c0.776-0.124,1.561-0.214,2.114,0.542c0.44,0.599,0.647,1.302,0.87,1.998
		c0.857,2.651,1.7,5.312,2.56,7.964c0.235,0.727,0.413,1.483,0.97,2.225c0.784-2.252,0.89-4.53,1.362-6.729
		c0.395-1.847,0.665-3.72,1.045-5.57c0.314-1.531,0.871-2.975,1.987-4.119c0.606-0.622,0.429-1.071-0.107-1.631
		c-5.712-5.948-12.531-8.438-20.688-6.514c-8.236,1.941-13.391,7.166-15.718,15.225c-3.901,13.513,4.183,26.411,16.88,29.385
		c11.556,2.708,22.885-4.852,25.412-16.862c0.208-0.988,0.268-2.125,1.621-2.331c1.15-0.174,1.559,0.214,1.351,1.336
		c-1.105,5.959-3.802,11.044-8.574,14.846c-7.506,5.98-15.876,7.474-24.785,3.808c-8.969-3.69-14.094-10.679-15.3-20.245
		c-1.646-13.06,6.01-24.193,18.605-27.135c10.008-2.337,18.27,0.852,24.853,8.631c0.657,0.774,0.731,1.227-0.511,1.296
		c-1.34,0.073-2.005,1.036-2.462,2.164c-1.009,2.492-1.334,5.142-1.771,7.765c-0.366,2.203-0.711,4.411-1.115,6.606
		c-0.123,0.668-0.392,1.313-0.636,1.955c-0.198,0.519-0.583,0.821-1.172,0.853c-0.65,0.035-0.896-0.396-1.12-0.883
		c-1.09-2.345-1.697-4.854-2.425-7.321C-22.154,29.801-22.208,29.188-22.88,28.663z"/>
</g>
</svg>
