<?xml version="1.0" encoding="utf-8"?>
<!-- Generator: Adobe Illustrator 16.0.0, SVG Export Plug-In . SVG Version: 6.00 Build 0)  -->
<!DOCTYPE svg PUBLIC "-//W3C//DTD SVG 1.1//EN" "http://www.w3.org/Graphics/SVG/1.1/DTD/svg11.dtd">
<svg version="1.1" id="Layer_1" xmlns="http://www.w3.org/2000/svg" xmlns:xlink="http://www.w3.org/1999/xlink" x="0px" y="0px"
	 width="550px" height="502px" viewBox="0 0 550 502" enable-background="new 0 0 550 502" xml:space="preserve">
<path fill="#6C6C75" d="M543.074,73.68c-0.133,0.539-0.318,1.071-0.393,1.619c-1.403,10.453-2.734,20.917-4.206,31.36
	c-1.615,11.477-3.354,22.937-5.047,34.402c-1.821,12.335-3.651,24.67-5.483,37.003c-1.516,10.199-3.136,20.384-4.534,30.598
	c-3.001,21.897-12.835,40.075-29.864,54.109c-9.004,7.418-18.487,14.264-27.854,21.233
	C382.8,345.706,299.881,407.371,216.987,469.07c-5.412,4.027-10.944,7.818-17.368,10.04c-15.965,5.521-30.381,2.634-43.261-8.188
	c-3.382-2.842-6.309-6.123-8.943-9.669c-40.873-55.027-81.752-110.05-122.62-165.081c-5.324-7.169-9.101-15.02-10.347-23.964
	c-0.106-0.76-0.535-1.474-0.814-2.209c0-2.399,0-4.8,0-7.2c0.303-0.803,0.759-1.583,0.885-2.412
	c1.011-6.699,3.634-12.725,7.504-18.237c3.764-5.361,8.526-9.702,13.768-13.587c76.189-56.474,152.365-112.967,228.541-169.458
	c0.621-0.461,1.209-0.967,2.037-1.633c-1-0.413-1.712-0.747-2.45-1.006c-7.688-2.693-15.353-5.458-23.078-8.042
	c-15.397-5.151-31-9.526-47.088-11.976c-1.915-0.292-3.84-0.511-5.761-0.764c-0.066,0.175-0.132,0.35-0.197,0.525
	c1.125,0.851,2.211,1.76,3.381,2.543c10.496,7.029,21.021,14.014,31.498,21.071c1.711,1.153,3.352,2.472,4.8,3.937
	c1.837,1.857,2.958,4.17,3.119,6.84c0.285,4.726-1.603,8.457-5.511,11.019c-3.945,2.586-8.158,2.689-12.271,0.381
	c-10.043-5.635-19.936-11.52-29.247-18.327c-5.884-4.301-11.495-8.928-16.645-14.096c-3.636-3.649-6.775-7.689-9.042-12.327
	c-4.856-9.937-0.27-20.764,10.116-23.904c4.146-1.254,8.414-1.886,12.75-2.046c6.59-0.242,13.091,0.651,19.57,1.637
	c12.426,1.89,24.578,4.974,36.559,8.737c23.413,7.354,46.376,15.937,69.03,25.359c0.703,0.292,1.428,0.535,2.143,0.8
	c-0.518-0.863-1.215-1.382-1.85-1.969c-3.404-3.146-4.723-6.957-3.496-11.497c0.75-2.783,2.34-5.077,4.532-6.917
	c1.345-1.129,2.774-2.163,4.215-3.171c11.708-8.206,24.511-13.691,38.77-15.539c2.048-0.266,4.094-0.547,6.142-0.821
	c3.359,0,6.72,0,10.079,0c0.446,0.138,0.886,0.344,1.342,0.403c5.698,0.735,11.411,1.366,17.099,2.186
	c12.483,1.799,24.953,3.703,37.432,5.541c13.585,2.001,27.176,3.963,40.76,5.967c13.741,2.027,27.479,4.086,41.219,6.125
	c6.479,0.962,12.61,2.944,18.099,6.556C534.443,42.64,541.601,53.6,542.65,68.23c0.051,0.703,0.278,1.394,0.424,2.089
	C543.074,71.44,543.074,72.56,543.074,73.68z M370.6,106.084c-4.145-2.263-7.984-4.562-11.993-6.516
	c-20.689-10.083-41.423-20.076-62.14-30.101c-3.438-1.663-3.434-1.662-6.596,0.686c-59.017,43.812-118.034,87.625-177.053,131.435
	c-21.322,15.827-42.665,31.625-63.951,47.5c-2.226,1.659-4.395,3.532-6.139,5.674c-4.858,5.967-5.825,12.684-2.789,19.785
	c0.964,2.254,2.281,4.413,3.746,6.387c41.172,55.5,82.381,110.973,123.602,166.436c1.093,1.471,2.295,2.889,3.612,4.159
	c6.562,6.336,15.59,7.683,23.691,3.49c1.904-0.984,3.686-2.247,5.413-3.53C281.58,390.832,363.143,330.16,444.71,269.49
	c9.434-7.018,18.886-14.01,28.305-21.045c15.39-11.493,24.43-26.723,26.994-45.801c1.533-11.407,3.172-22.801,4.831-34.191
	c1.982-13.604,4.036-27.198,6.064-40.796c2.204-14.784,4.444-29.562,6.601-44.353c0.53-3.632,1.099-7.301,1.115-10.956
	c0.043-9.818-5.009-16.547-14.439-19.339c-3.123-0.924-6.396-1.39-9.63-1.878c-10.433-1.573-20.878-3.057-31.317-4.579
	c-11.549-1.683-23.1-3.35-34.644-5.061c-11.228-1.664-22.445-3.386-33.671-5.06c-8.457-1.261-16.891-2.765-25.387-3.666
	c-16.921-1.794-32.394,2.256-46.039,12.577c-3.756,2.84-7.668,4.543-12.439,3.456c-0.048-0.011-0.117,0.07-0.328,0.206
	c0.938,0.434,1.781,0.846,2.644,1.22c17.824,7.743,35.317,16.164,52.354,25.518c19.798,10.87,39.074,22.517,56.232,37.378
	c4.489,3.888,8.15,8.352,10.902,13.563c5.798,10.979,0.945,22.129-11.015,25.464c-0.308,0.086-0.618,0.163-0.929,0.234
	c-5.75,1.313-11.576,1.428-17.417,0.991c-2.848-0.212-5.163-1.62-6.956-3.823c-5.236-6.438-2.428-16.402,5.385-19.177
	c0.623-0.221,1.235-0.471,2.117-0.809c-4.413-3.557-8.564-6.904-12.765-10.29c-1.65,2.106-2.644,4.292-3.278,6.604
	c-2.986,10.852-0.643,20.564,7.132,28.583c7.677,7.918,17.34,10.001,27.833,7.227c14.707-3.887,23.984-19.427,20.228-33.906
	c-2.945-11.344-10.574-18.311-21.775-21.462c-1.384-0.39-2.82-0.62-4.168-1.102c-6.009-2.151-9.34-8.217-7.838-14.153
	c1.543-6.097,7.374-9.983,13.68-9.017c2.127,0.326,4.238,0.817,6.32,1.368c28.832,7.632,44.035,37.893,36.845,64.571
	c-6.36,23.599-29.898,42.055-57.023,38.618c-15.757-1.997-28.313-9.036-37.222-22.258c-6.268-9.303-9.919-19.5-9.748-30.84
	c0.127-8.477,2.498-16.39,6.441-23.857C369.259,108.596,369.82,107.548,370.6,106.084z"/>
<path fill="#6C6C75" d="M287.234,498c-0.377-0.103-0.758-0.303-1.133-0.294c-4.112,0.095-7.765-1.338-11.446-3.022
	c-7.563-3.461-14.425-7.899-20.491-13.584c-2.86-2.679-5.827-5.248-8.591-8.021c-4.879-4.895-5.063-11.946-0.581-16.845
	c3.477-3.802,8.655-4.995,13.346-2.85c1.716,0.785,3.33,1.915,4.777,3.14c4.15,3.512,8.193,7.15,12.277,10.74
	c2.297,2.019,4.779,3.739,7.612,4.936c6.314,2.664,12.325,2.047,18.038-1.671c2.644-1.721,4.8-3.964,6.765-6.408
	c14.429-17.951,28.86-35.897,43.286-53.85c22.189-27.614,44.371-55.235,66.566-82.846c1.752-2.179,3.421-4.462,5.414-6.402
	c5.279-5.145,13.231-4.639,17.767,1.029c2.966,3.709,3.399,7.858,1.602,12.182c-0.604,1.449-1.526,2.816-2.518,4.052
	c-37.779,47.092-75.601,94.152-113.373,141.25c-6.78,8.455-15.101,14.442-25.811,16.729c-3.038,0.648-6.159,0.912-9.242,1.358
	c-0.783,0.113-1.563,0.251-2.345,0.378C288.516,498,287.875,498,287.234,498z"/>
<path fill="#6C6C75" d="M359.065,274.693c-3.46,3.486-6.522,7.248-10.495,10.195c-46.439,34.442-92.826,68.955-139.232,103.445
	c-1.604,1.191-3.194,2.416-4.882,3.479c-6.215,3.91-11.958,3.033-16.554-2.705c-3.297-4.116-6.355-8.426-9.503-12.664
	c-23.845-32.1-47.692-64.196-71.505-96.319c-1.179-1.591-2.247-3.326-3.024-5.142c-1.774-4.141-1.015-8.026,1.902-11.393
	c1.191-1.374,2.642-2.563,4.109-3.652c45.244-33.638,90.505-67.253,135.763-100.874c3.017-2.241,5.997-4.536,9.071-6.697
	c1.426-1.003,2.957-1.947,4.575-2.572c4.066-1.571,7.884-0.906,11.198,1.945c1.201,1.033,2.285,2.25,3.231,3.525
	c26.711,35.948,53.403,71.908,80.063,107.893c1.082,1.46,1.946,3.115,2.692,4.779C357.424,270.049,358.146,272.26,359.065,274.693z
	 M260.99,179.744c-4.389,2.625-125.781,93.063-126.96,94.591c22.037,29.664,44.094,59.354,66.271,89.208
	c42.47-31.548,84.68-62.902,127.09-94.404C305.199,239.262,283.139,209.56,260.99,179.744z"/>
<path fill="#FC9E07" d="M210.575,229.756c2.34,1.741,4.502,3.258,6.553,4.912c1.108,0.894,2.162,1.924,3.012,3.063
	c13.339,17.882,26.641,35.792,39.953,53.694c1.766,2.375,2.852,5,2.843,7.992c-0.016,4.765-2.242,8.283-6.356,10.519
	c-4.063,2.205-8.182,1.991-12.049-0.522c-1.313-0.854-2.544-1.99-3.482-3.245c-13.639-18.258-27.223-36.555-40.807-54.853
	c-0.568-0.766-1.065-1.601-1.486-2.457c-2.43-4.952-1.446-9.943,2.932-13.3C204.465,233.428,207.556,231.707,210.575,229.756z"/>
<path fill="#FC9E07" d="M247.833,202.435c4.78,3.349,8.928,7.052,12.343,11.732c12.014,16.463,24.26,32.756,36.434,49.103
	c1.906,2.563,3.203,5.321,3.269,8.582c0.175,8.805-9.137,14.748-17.03,10.861c-2.054-1.011-3.705-2.492-5.061-4.314
	c-13.448-18.088-26.902-36.17-40.322-54.277c-0.847-1.144-1.565-2.427-2.108-3.743c-1.844-4.464-0.806-8.758,2.823-11.934
	c0.837-0.733,1.764-1.382,2.716-1.959C243.148,205.121,245.441,203.825,247.833,202.435z"/>
<path fill="#FC9E07" d="M227.228,329.889c-1.746,1.824-3.356,3.489-4.947,5.172c-2.373,2.513-5.307,3.684-8.673,3.01
	c-2.559-0.514-5.073-1.397-7.489-2.4c-1.024-0.426-1.887-1.473-2.586-2.413c-8.104-10.915-16.153-21.87-24.235-32.802
	c-5.136-6.945-10.3-13.869-15.457-20.799c-2.338-3.141-3.629-6.574-2.887-10.542c0.914-4.884,3.94-7.981,8.553-9.431
	c4.544-1.429,8.516-0.14,11.81,3.24c0.722,0.741,1.333,1.596,1.953,2.428c13.063,17.596,26.106,35.205,39.197,52.778
	c1.562,2.095,2.662,4.337,3.3,6.854C226.176,326.602,226.716,328.188,227.228,329.889z"/>
</svg>
