<?xml version="1.0" encoding="utf-8"?>
<!-- Generator: Adobe Illustrator 16.0.0, SVG Export Plug-In . SVG Version: 6.00 Build 0)  -->
<!DOCTYPE svg PUBLIC "-//W3C//DTD SVG 1.1//EN" "http://www.w3.org/Graphics/SVG/1.1/DTD/svg11.dtd">
<svg version="1.1" id="Layer_1" xmlns="http://www.w3.org/2000/svg" xmlns:xlink="http://www.w3.org/1999/xlink" x="0px" y="0px"
	 width="28px" height="28px" viewBox="0 0 28 28" enable-background="new 0 0 28 28" xml:space="preserve">
<path fill-rule="evenodd" clip-rule="evenodd" fill="#FFFFFF" d="M12.941,6.886c-0.001,1.222,0.003,2.443-0.002,3.665
	c-0.004,1.329-0.898,2.225-2.228,2.228c-2.417,0.005-4.834,0.005-7.253,0.001c-1.432-0.002-2.296-0.879-2.296-2.314
	c0-2.393-0.001-4.785,0-7.178c0.001-1.403,0.883-2.285,2.286-2.285c2.406,0,4.81,0,7.216,0c1.384,0,2.27,0.874,2.276,2.256
	C12.947,4.467,12.941,5.678,12.941,6.886z M2.997,6.891c0,1.195,0.007,2.391-0.004,3.587c-0.003,0.345,0.126,0.474,0.471,0.473
	c2.391-0.009,4.782-0.009,7.174,0c0.344,0.001,0.474-0.124,0.473-0.471c-0.007-2.392-0.007-4.783,0-7.175
	c0.001-0.342-0.123-0.474-0.471-0.473C8.262,2.841,5.883,2.836,3.505,2.836c-0.456,0-0.507,0.053-0.508,0.505
	C2.995,4.524,2.996,5.708,2.997,6.891z"/>
<path fill-rule="evenodd" clip-rule="evenodd" fill="#FFFFFF" d="M1.162,20.949c0-1.223-0.003-2.443,0.001-3.664
	c0.006-1.332,0.897-2.223,2.232-2.225c2.417-0.002,4.836-0.004,7.253,0c1.43,0.002,2.292,0.879,2.292,2.316
	c0,2.393,0.001,4.785-0.001,7.178c0,1.4-0.887,2.283-2.29,2.283c-2.405,0-4.81,0.002-7.215,0c-1.381,0-2.265-0.877-2.272-2.262
	C1.157,23.367,1.162,22.158,1.162,20.949z M11.105,20.91c0-1.182-0.007-2.365,0.005-3.547c0.003-0.346-0.125-0.475-0.472-0.475
	c-2.392,0.01-4.783,0.01-7.174,0c-0.345,0-0.474,0.129-0.472,0.475C3,19.754,3,22.145,2.992,24.535
	c-0.001,0.346,0.128,0.473,0.473,0.471c2.378-0.008,4.756-0.002,7.136-0.002c0.455,0,0.504-0.051,0.505-0.506
	C11.107,23.303,11.106,22.105,11.105,20.91z"/>
<path fill-rule="evenodd" clip-rule="evenodd" fill="#FFFFFF" d="M26.999,6.872c0,1.234,0.002,2.468-0.002,3.703
	c-0.006,1.302-0.908,2.202-2.213,2.204c-2.443,0.004-4.887,0.004-7.33,0c-1.333-0.001-2.229-0.888-2.231-2.222
	c-0.008-2.457-0.008-4.912,0-7.369c0.002-1.281,0.906-2.18,2.19-2.184c2.457-0.006,4.912-0.006,7.369,0
	c1.332,0.004,2.211,0.899,2.217,2.24C27.001,4.454,26.999,5.663,26.999,6.872z M21.118,2.836c-1.195,0-2.393,0.008-3.59-0.004
	c-0.341-0.004-0.479,0.119-0.479,0.469c0.01,2.394,0.01,4.787,0,7.181c0,0.35,0.139,0.469,0.479,0.468
	c2.379-0.008,4.762-0.008,7.143,0.001c0.357,0.001,0.5-0.12,0.498-0.487c-0.01-2.381-0.01-4.762,0-7.143
	c0-0.367-0.139-0.492-0.498-0.489C23.487,2.845,22.304,2.836,21.118,2.836z"/>
<path fill-rule="evenodd" clip-rule="evenodd" fill="#FFFFFF" d="M15.094,20.74c0-1.223-0.004-2.443,0-3.664
	c0.006-1.332,0.898-2.221,2.231-2.223c2.418-0.004,4.838-0.006,7.254-0.002c1.432,0.004,2.293,0.881,2.293,2.318
	c0,2.393,0.002,4.785-0.002,7.178c0,1.398-0.887,2.281-2.289,2.283c-2.404,0-4.811,0-7.215,0c-1.382,0-2.265-0.879-2.272-2.264
	C15.088,23.158,15.094,21.951,15.094,20.74z M25.036,20.701c0-1.182-0.006-2.363,0.006-3.547c0.004-0.346-0.125-0.475-0.473-0.473
	c-2.391,0.008-4.783,0.008-7.174,0c-0.345-0.002-0.474,0.127-0.472,0.473c0.008,2.393,0.008,4.781-0.002,7.174
	c0,0.346,0.129,0.471,0.474,0.471c2.379-0.008,4.756-0.002,7.137-0.004c0.455,0,0.504-0.051,0.506-0.506
	C25.038,23.094,25.038,21.898,25.036,20.701z"/>
</svg>
