<?xml version="1.0" encoding="utf-8"?>
<!-- Generator: Adobe Illustrator 16.0.0, SVG Export Plug-In . SVG Version: 6.00 Build 0)  -->
<!DOCTYPE svg PUBLIC "-//W3C//DTD SVG 1.1//EN" "http://www.w3.org/Graphics/SVG/1.1/DTD/svg11.dtd">
<svg version="1.1" id="Layer_1" xmlns="http://www.w3.org/2000/svg" xmlns:xlink="http://www.w3.org/1999/xlink" x="0px" y="0px"
	 width="550px" height="550px" viewBox="0 0 550 550" enable-background="new 0 0 550 550" xml:space="preserve">
<g>
	<path fill="#768086" d="M129.548,13c9.504,4.025,12.747,11.238,12.615,21.42c-0.399,30.809-0.134,61.626-0.149,92.44
		c-0.006,12.755-6.398,19.147-19.154,19.153c-30.814,0.015-61.631-0.249-92.44,0.148c-10.178,0.131-17.4-3.099-21.419-12.614
		C9,97.522,9,61.496,9,25.47c2.434-5.88,6.592-10.035,12.47-12.47C57.496,13,93.522,13,129.548,13z"/>
	<path fill="#768086" d="M329.075,13c9.517,4.007,12.747,11.218,12.614,21.396c-0.399,30.786-0.139,61.58-0.148,92.37
		c-0.004,12.771-6.394,19.242-19.025,19.248c-31.656,0.014-63.311,0.016-94.966-0.001c-12.641-0.007-19.015-6.47-19.019-19.253
		c-0.011-30.791,0.253-61.584-0.148-92.37c-0.134-10.18,3.105-17.382,12.615-21.39C257.023,13,293.05,13,329.075,13z"/>
	<path fill="#768086" d="M541.072,133.548c-4.031,9.495-11.231,12.75-21.421,12.617c-30.813-0.405-61.638-0.138-92.455-0.15
		c-12.764-0.005-19.136-6.383-19.14-19.151c-0.011-30.819,0.255-61.641-0.148-92.455C407.774,24.22,410.976,16.994,420.525,13
		c36.023,0,72.051,0,108.075,0c5.888,2.427,10.026,6.601,12.472,12.47C541.072,61.496,541.072,97.522,541.072,133.548z"/>
	<path fill="#768086" d="M9,224.998c4.004-9.515,11.212-12.748,21.39-12.615c30.785,0.4,61.579,0.137,92.37,0.148
		c12.783,0.004,19.246,6.378,19.253,19.02c0.017,31.655,0.015,63.311,0.001,94.967c-0.006,12.631-6.478,19.021-19.249,19.024
		c-30.791,0.011-61.584-0.252-92.37,0.147C20.217,345.822,13.007,342.592,9,333.075C9,297.05,9,261.023,9,224.998z"/>
	<path fill="#768086" d="M541.072,333.075c-4.027,9.481-11.215,12.749-21.398,12.616c-30.79-0.403-61.587-0.141-92.381-0.15
		c-12.796-0.004-19.229-6.363-19.234-19.027c-0.012-31.66-0.014-63.319,0-94.979c0.008-12.657,6.437-19.001,19.242-19.005
		c30.795-0.01,61.593,0.259,92.381-0.151c10.192-0.135,17.374,3.122,21.393,12.619C541.072,261.023,541.072,297.05,541.072,333.075z
		"/>
	<path fill="#768086" d="M275.037,345.546c-15.919,0-31.838,0.017-47.758-0.007c-12.091-0.018-18.735-6.549-18.744-18.48
		c-0.023-32.012-0.024-64.021,0.001-96.035c0.009-11.943,6.647-18.482,18.735-18.49c31.838-0.019,63.678-0.018,95.516,0
		c12.313,0.007,18.748,6.53,18.753,18.994c0.015,31.665,0.015,63.33,0,94.996c-0.005,12.625-6.483,19.011-19.265,19.021
		C306.529,345.555,290.783,345.546,275.037,345.546z"/>
	<path fill="#768086" d="M9,422.446c4.004-9.517,11.212-12.747,21.39-12.614c30.785,0.399,61.579,0.137,92.37,0.148
		c12.783,0.004,19.246,6.377,19.253,19.018c0.017,31.656,0.015,63.312,0.001,94.968c-0.006,12.631-6.478,19.021-19.249,19.025
		c-30.791,0.01-61.584-0.253-92.37,0.146C20.217,543.271,13.007,540.041,9,530.523C9,494.499,9,458.472,9,422.446z"/>
	<path fill="#768086" d="M541.072,530.523c-4.027,9.481-11.215,12.75-21.398,12.615c-30.79-0.402-61.587-0.14-92.381-0.148
		c-12.796-0.004-19.229-6.364-19.234-19.028c-0.012-31.659-0.014-63.317,0-94.978c0.008-12.657,6.437-19.001,19.242-19.006
		c30.795-0.011,61.593,0.26,92.381-0.15c10.192-0.136,17.374,3.121,21.393,12.618C541.072,458.472,541.072,494.499,541.072,530.523z
		"/>
	<path fill="#768086" d="M275.037,542.994c-15.919,0-31.838,0.018-47.758-0.006c-12.091-0.02-18.735-6.549-18.744-18.481
		c-0.023-32.012-0.024-64.021,0.001-96.034c0.009-11.941,6.647-18.48,18.735-18.488c31.838-0.021,63.678-0.021,95.516,0
		c12.313,0.006,18.748,6.527,18.753,18.992c0.015,31.665,0.015,63.33,0,94.995c-0.005,12.626-6.483,19.012-19.265,19.021
		C306.529,543.004,290.783,542.994,275.037,542.994z"/>
</g>
</svg>
