<?xml version="1.0" encoding="utf-8"?>
<!-- Generator: Adobe Illustrator 16.0.0, SVG Export Plug-In . SVG Version: 6.00 Build 0)  -->
<!DOCTYPE svg PUBLIC "-//W3C//DTD SVG 1.1//EN" "http://www.w3.org/Graphics/SVG/1.1/DTD/svg11.dtd">
<svg version="1.1" id="Layer_1" xmlns="http://www.w3.org/2000/svg" xmlns:xlink="http://www.w3.org/1999/xlink" x="0px" y="0px"
	 width="150px" height="150px" viewBox="0 0 150 150" enable-background="new 0 0 150 150" xml:space="preserve">
<g>
	<path fill-rule="evenodd" clip-rule="evenodd" fill="#FFFFFF" d="M3.206,55.602c0.1-0.683,0.183-1.37,0.303-2.049
		c1.042-5.88,5.535-10.359,11.407-11.329c1.037-0.172,2.1-0.27,3.152-0.27c33.016-0.014,66.031-0.014,99.046-0.006
		c2.99,0,5.835,0.646,8.409,2.23c3.35,2.062,5.284,5.117,6.138,8.908c0.312,1.391,0.42,2.802,0.421,4.222
		c0.007,4.295,0.006,8.59,0.002,12.883c0,1.147,0.033,2.298-0.043,3.441c-0.048,0.708-0.179,1.441-0.439,2.097
		c-0.585,1.468-2.009,2.299-3.532,2.189c-1.694-0.121-2.923-1.088-3.358-2.767c-0.187-0.725-0.246-1.501-0.249-2.254
		c-0.021-5.481-0.009-10.962-0.014-16.444c-0.003-1.158-0.196-2.287-0.714-3.334c-1.036-2.097-2.79-3.169-5.06-3.473
		c-0.495-0.066-1.002-0.08-1.502-0.08c-33.055-0.003-66.109-0.003-99.165-0.003c-1.343,0-2.647,0.199-3.85,0.836
		c-1.95,1.034-2.912,2.736-3.209,4.86c-0.072,0.521-0.091,1.053-0.091,1.58c-0.005,19.372-0.004,38.743-0.006,58.113
		c0,1.149,0.179,2.263,0.677,3.304c1.044,2.183,2.846,3.287,5.194,3.575c0.485,0.059,0.977,0.067,1.467,0.067
		c20.854,0.004,41.708,0.002,62.563,0.009c0.523,0,1.057,0.036,1.574,0.126c1.039,0.179,1.949,0.624,2.627,1.471
		c-4.877-9.287-5.475-18.823-1.445-28.508c3.183-7.654,8.643-13.281,16.163-16.788c14.814-6.907,32.864-1.725,41.509,12.939
		c8.234,13.97,5.133,32.329-8.501,42.481c-7.671,5.712-16.324,7.684-25.706,5.833c-9.396-1.851-16.476-7.149-21.466-15.052
		c0.022,0.541,0.155,1.24,0.064,1.909c-0.21,1.557-1.2,2.502-2.67,2.927c-0.575,0.165-1.192,0.254-1.79,0.254
		c-21.176,0.013-42.353,0.025-63.529-0.002c-3.947-0.006-7.434-1.333-10.258-4.159c-2.305-2.309-3.543-5.149-3.966-8.364
		c-0.052-0.391-0.103-0.782-0.154-1.174C3.206,95.736,3.206,75.668,3.206,55.602z M113.388,132.519
		c13.632-0.046,24.45-11.134,24.737-24.259c0.303-13.872-10.797-25.403-24.696-25.453c-13.703-0.048-24.828,10.879-24.922,24.757
		C88.413,121.361,99.567,132.497,113.388,132.519z"/>
	<path fill-rule="evenodd" clip-rule="evenodd" fill="#FFFFFF" d="M51.337,10.951c0.149,0.021,0.297,0.061,0.446,0.062
		c1.611,0.01,3.225-0.029,4.835,0.026c3.756,0.125,6.896,1.646,9.479,4.343c1.453,1.52,2.514,3.289,3.212,5.274
		c0.234,0.665,0.237,0.664,0.929,0.664c15.578-0.004,31.156-0.008,46.734-0.012c2.318,0,4.572,0.362,6.709,1.286
		c4.243,1.837,6.787,5.096,7.899,9.536c0.411,1.638,0.514,3.309,0.5,4.986c-0.009,1.287,0.012,2.583-0.13,3.859
		c-0.196,1.762-1.332,3.008-2.839,3.33c-2.144,0.459-4.007-0.764-4.472-2.979c-0.133-0.625-0.164-1.278-0.182-1.919
		c-0.04-1.52,0.048-3.048-0.078-4.561c-0.285-3.464-3.026-5.901-6.519-5.903c-16.879-0.009-33.76-0.017-50.64-0.031
		c-0.514,0-1.036-0.026-1.54-0.116c-1.692-0.3-2.611-1.263-2.968-3.071c-0.139-0.707-0.202-1.432-0.387-2.125
		c-0.718-2.724-3.487-5.005-6.447-4.984c-4.319,0.03-8.64-0.003-12.959-0.004c-8.125-0.002-16.248-0.002-24.373,0.002
		c-1.016,0-2.036-0.03-3.032,0.254c-2.82,0.805-4.655,3.3-4.66,6.377c-0.006,4.642,0.009,9.283-0.012,13.924
		c-0.003,0.806-0.031,1.64-0.236,2.41c-0.403,1.511-1.38,2.561-2.985,2.764c-1.534,0.195-2.851-0.319-3.782-1.614
		c-0.385-0.536-0.553-1.157-0.557-1.818c-0.005-1.059-0.007-2.116-0.016-3.173c-0.001-0.134-0.041-0.267-0.062-0.401
		c0-3.017,0-6.035,0-9.054c0.021-0.122,0.055-0.243,0.063-0.365c0.142-2.003,0.128-4.032,0.449-6.005
		c0.989-6.057,6.201-10.285,11.935-10.789c1.881-0.165,3.786-0.079,5.678-0.113c0.15-0.002,0.299-0.041,0.447-0.063
		C31.631,10.951,41.484,10.951,51.337,10.951z"/>
	<path fill-rule="evenodd" clip-rule="evenodd" fill="#FFFFFF" d="M130.21,103.565c0.061,0.418-0.077,0.751-0.393,1.027
		c-0.104,0.091-0.179,0.22-0.261,0.335c-0.603,0.856-1.376,1.459-2.382,1.816c-4.174,1.479-8.327,3.01-12.5,4.489
		c-1.968,0.698-3.623,0.083-4.72-1.688c-2.93-4.731-5.854-9.465-8.778-14.199c-0.517-0.833-1.04-1.659-1.534-2.504
		c-0.756-1.284-1.005-2.623-0.262-4.001c1.201-2.229,4.673-3.064,6.614-0.104c1.308,1.992,2.556,4.023,3.81,6.049
		c1.56,2.52,3.097,5.052,4.644,7.579c0.009,0.011,0.015,0.021,0.021,0.031c0.435,0.705,0.487,0.705,1.264,0.427
		c3.051-1.098,6.105-2.185,9.162-3.267c0.742-0.264,1.514-0.34,2.286-0.192c1.581,0.302,2.688,1.538,2.928,3.239
		C130.155,102.923,130.176,103.245,130.21,103.565z"/>
</g>
</svg>
