<?xml version="1.0" encoding="utf-8"?>
<!-- Generator: Adobe Illustrator 16.0.0, SVG Export Plug-In . SVG Version: 6.00 Build 0)  -->
<!DOCTYPE svg PUBLIC "-//W3C//DTD SVG 1.1//EN" "http://www.w3.org/Graphics/SVG/1.1/DTD/svg11.dtd">
<svg version="1.1" id="Layer_1" xmlns="http://www.w3.org/2000/svg" xmlns:xlink="http://www.w3.org/1999/xlink" x="0px" y="0px"
	 width="150px" height="150px" viewBox="0 0 150 150" enable-background="new 0 0 150 150" xml:space="preserve">
<g>
	<path fill-rule="evenodd" clip-rule="evenodd" fill="#FFFFFF" d="M2.878,106.914c0-28.801,0-57.601,0-86.4
		c0.076-0.26,0.188-0.516,0.223-0.782c1.058-8.258,6.951-14.876,15.026-16.856c0.911-0.223,1.833-0.402,2.751-0.602
		c26.479,0,52.96,0,79.439,0c0.137,0.067,0.268,0.179,0.409,0.194c9.991,1.071,17.642,9.5,17.606,20.513
		c-0.057,17.786-0.016,35.571-0.016,53.356c0,2.066,0.012,2.015,2.032,2.462c13.936,3.084,22.854,11.587,26.979,25.17
		c0.597,1.965,0.828,4.04,1.229,6.065c0,1.999,0,4,0,6c-0.075,0.256-0.192,0.507-0.22,0.768
		c-1.486,14.318-12.022,26.501-25.995,29.979c-2.033,0.506-4.122,0.787-6.186,1.173c-1.76,0-3.52,0-5.279,0
		c-0.217-0.071-0.429-0.181-0.651-0.207c-13.374-1.589-22.866-8.555-28.521-20.726c-0.646-1.39-1.382-1.86-2.873-1.856
		c-18.511,0.044-37.021,0.041-55.531,0.023c-9.605-0.009-17.167-5.652-19.6-14.585C3.371,109.389,3.15,108.145,2.878,106.914z
		 M78.736,115.794c-0.553-4.275-0.144-8.378,1.113-12.317c4.381-13.728,13.617-22.122,27.845-24.853
		c0.804-0.154,1.106-0.459,1.066-1.234c-0.039-0.758-0.041-1.519-0.041-2.278c-0.003-17.478,0.004-34.956-0.006-52.434
		c-0.003-4.376-1.782-7.83-5.816-9.671c-1.679-0.767-3.702-1.082-5.57-1.087c-24.518-0.069-49.035-0.046-73.552-0.044
		c-0.44,0-0.881,0.009-1.319,0.042c-4.714,0.351-8.221,2.983-9.409,7.239c-0.381,1.366-0.545,2.835-0.547,4.258
		c-0.031,26.757-0.023,53.514-0.021,80.271c0,0.561,0.007,1.121,0.042,1.679c0.349,5.537,3.312,9.149,8.368,10.081
		c1.288,0.237,2.624,0.292,3.938,0.297c10.758,0.035,21.517,0.042,32.275,0.052c6.758,0.006,13.517,0.001,20.275,0.001
		C77.809,115.794,78.239,115.794,78.736,115.794z M113.367,138.354c14.069,0.006,25.583-11.346,25.591-25.232
		c0.008-14.185-11.249-25.598-25.296-25.647c-14.11-0.05-25.531,11.266-25.584,25.351
		C88.024,126.833,99.431,138.348,113.367,138.354z"/>
	<path fill-rule="evenodd" clip-rule="evenodd" fill="#FFFFFF" d="M62.023,56.074c-9.033,0-18.065-0.002-27.098,0.002
		c-1.505,0.001-2.955-0.132-4.139-1.222c-1.362-1.254-1.833-2.782-1.364-4.56c0.458-1.736,1.58-2.834,3.366-3.181
		c0.545-0.106,1.106-0.191,1.66-0.192c18.506-0.01,37.011-0.012,55.517-0.004c3.134,0.001,5.137,1.838,5.111,4.626
		c-0.024,2.566-1.872,4.45-4.639,4.47c-7.913,0.059-15.826,0.034-23.739,0.041c-1.559,0.001-3.117,0-4.676,0
		C62.023,56.061,62.023,56.067,62.023,56.074z"/>
	<path fill-rule="evenodd" clip-rule="evenodd" fill="#FFFFFF" d="M62.074,34.674c-9.318,0-18.637,0.003-27.955-0.003
		c-2.287-0.001-3.821-0.974-4.555-2.842c-1.057-2.69,0.585-5.706,3.464-6.027c2.052-0.229,4.144-0.123,6.217-0.124
		c16.757-0.007,33.514-0.005,50.271,0.001c0.638,0,1.283,0.013,1.911,0.113c2.083,0.333,3.537,1.95,3.646,3.998
		c0.123,2.327-1.01,4.044-3.153,4.615c-0.76,0.203-1.578,0.257-2.37,0.259C80.392,34.68,71.233,34.674,62.074,34.674z"/>
	<path fill-rule="evenodd" clip-rule="evenodd" fill="#FFFFFF" d="M61.078,68.274c8.879,0,17.759,0.008,26.639-0.008
		c1.595-0.003,3.027,0.365,4.111,1.587c2.28,2.571,0.892,6.597-2.504,7.295c-0.39,0.08-0.794,0.119-1.19,0.119
		c-18.08,0.006-36.16,0.021-54.239-0.01c-3.564-0.006-5.657-3.292-4.198-6.421c0.817-1.752,2.28-2.508,4.142-2.552
		c1.599-0.039,3.2-0.011,4.799-0.011C46.118,68.273,53.598,68.274,61.078,68.274z"/>
	<path fill-rule="evenodd" clip-rule="evenodd" fill="#FFFFFF" d="M52.946,89.514c5.958,0,11.915-0.026,17.871,0.026
		c1.012,0.009,2.087,0.199,3.017,0.584c1.797,0.745,2.703,2.61,2.47,4.628c-0.201,1.748-1.646,3.282-3.605,3.715
		c-0.773,0.17-1.584,0.235-2.378,0.236c-11.714,0.015-23.429,0.015-35.143,0c-0.793-0.001-1.605-0.069-2.377-0.244
		c-2.141-0.486-3.464-2.079-3.523-4.126c-0.065-2.285,1.084-3.909,3.313-4.521c0.758-0.208,1.574-0.282,2.364-0.285
		C40.952,89.504,46.949,89.514,52.946,89.514z"/>
	<path fill-rule="evenodd" clip-rule="evenodd" fill="#FFFFFF" d="M122.109,110.69c0,2.238,0.086,4.48-0.021,6.713
		c-0.135,2.813-1.729,4.501-4.516,4.612c-3.393,0.136-6.801,0.163-10.191,0c-3.292-0.157-5.159-2.593-4.548-5.552
		c0.411-1.987,2.15-3.418,4.446-3.509c1.431-0.057,2.869,0.033,4.303,0.109c1.365,0.072,1.632-0.146,1.6-1.524
		c-0.06-2.636-0.202-5.271-0.178-7.905c0.03-3.213,2.384-5.299,5.33-4.864c1.99,0.293,3.614,1.987,3.734,4.248
		c0.135,2.551,0.031,5.114,0.031,7.672C122.103,110.69,122.106,110.69,122.109,110.69z"/>
</g>
</svg>
