<?xml version="1.0" encoding="utf-8"?>
<!-- Generator: Adobe Illustrator 16.0.0, SVG Export Plug-In . SVG Version: 6.00 Build 0)  -->
<!DOCTYPE svg PUBLIC "-//W3C//DTD SVG 1.1//EN" "http://www.w3.org/Graphics/SVG/1.1/DTD/svg11.dtd">
<svg version="1.1" id="Layer_1" xmlns="http://www.w3.org/2000/svg" xmlns:xlink="http://www.w3.org/1999/xlink" x="0px" y="0px"
	 width="52.5px" height="70px" viewBox="0 0 52.5 70" enable-background="new 0 0 52.5 70" xml:space="preserve">
<g>
	<path fill-rule="evenodd" clip-rule="evenodd" fill="#777777" d="M0.909,39.17c0-8.022,0.07-16.044-0.035-24.065
		c-0.039-2.873,1.914-5.167,5.128-5.118c6.379,0.098,12.763,0.025,19.148,0.03c2.984,0.001,5.527,1.077,7.636,3.185
		c2.941,2.94,5.896,5.864,8.814,8.824c2,2.028,3.034,4.503,3.041,7.349c0.021,11.386,0.012,22.775,0.006,34.166
		c0,3.005-1.86,4.886-4.863,4.887c-11.358,0.004-22.718,0.004-34.077-0.001c-2.969-0.004-4.795-1.851-4.796-4.84
		C0.906,55.448,0.909,47.31,0.909,39.17z M28.324,12.522c-1.023-0.154-2.104-0.451-3.188-0.458
		c-6.323-0.045-12.646-0.023-18.969-0.022c-2.372,0-3.213,0.846-3.213,3.229c0,15.985,0,31.968,0,47.952
		c0,2.346,0.82,3.164,3.165,3.164c11.095,0.003,22.189,0,33.287,0c0.232,0,0.467,0.006,0.701-0.005
		c1.481-0.081,2.471-1.058,2.473-2.532c0.01-11.65,0.018-23.303-0.021-34.952c-0.003-0.894-0.344-1.785-0.502-2.557
		c-1.098,0.084-1.964,0.194-2.831,0.207c-2.019,0.028-4.043-0.061-6.058,0.026c-2.823,0.119-5.224-1.939-5.061-5.09
		c0.106-2.102,0.003-4.214,0.028-6.321C28.144,14.381,28.243,13.6,28.324,12.522z M40.66,24.498
		c-3.524-3.532-6.973-6.988-10.402-10.421c-0.009,0.028-0.086,0.188-0.086,0.349c-0.007,2.57-0.049,5.143,0.018,7.712
		c0.037,1.415,1.104,2.34,2.547,2.354c2.133,0.022,4.265,0.006,6.397,0.006C39.649,24.498,40.163,24.498,40.66,24.498z"/>
	<path fill-rule="evenodd" clip-rule="evenodd" fill="#777777" d="M43.675,0.618c1.113,0,2.226,0.016,3.336-0.005
		c0.814-0.016,1.182,0.36,1.178,1.162C48.182,3.707,48.22,5.64,48.173,7.57c-0.017,0.786,0.252,1.059,1.014,0.974
		c0.433-0.048,0.892-0.08,1.312,0.01c0.445,0.097,1.076,0.248,1.22,0.561c0.149,0.321-0.071,0.975-0.347,1.3
		c-1.724,2.029-3.507,4.006-5.271,6.001c-0.526,0.593-1.039,1.192-1.577,1.771c-0.624,0.672-1.184,0.699-1.774,0.038
		c-2.357-2.641-4.712-5.288-7.025-7.969c-0.234-0.271-0.338-0.855-0.21-1.18c0.103-0.266,0.622-0.457,0.986-0.519
		c0.513-0.085,1.055-0.07,1.575-0.012c0.805,0.091,0.994-0.267,0.979-1.007c-0.04-1.872-0.021-3.746-0.007-5.619
		c0.006-1.065,0.24-1.292,1.291-1.299C41.451,0.612,42.562,0.618,43.675,0.618z M38.569,10.548c1.752,1.982,3.365,3.804,5.048,5.709
		c1.703-1.928,3.308-3.743,5.033-5.693c-0.467-0.048-0.694-0.081-0.92-0.091c-1.293-0.054-1.447-0.211-1.449-1.515
		c-0.004-1.872-0.02-3.745,0.01-5.619c0.01-0.613-0.218-0.83-0.819-0.816c-1.229,0.027-2.458,0.032-3.688-0.004
		c-0.661-0.019-0.852,0.246-0.841,0.884c0.032,1.93,0.016,3.863,0.008,5.793c-0.006,0.99-0.247,1.223-1.25,1.274
		C39.394,10.484,39.087,10.511,38.569,10.548z"/>
	<path fill-rule="evenodd" clip-rule="evenodd" fill="#777777" d="M23.939,22.021c-0.075,2.124-0.584,4.101-1.269,6.038
		c-0.178,0.501-0.121,0.859,0.218,1.267c1.55,1.87,3.083,3.755,4.601,5.653c0.362,0.452,0.771,0.585,1.343,0.633
		c2.089,0.178,4.174,0.403,6.247,0.704c0.612,0.087,1.213,0.421,1.763,0.741c1.322,0.769,1.88,1.865,1.621,3.027
		c-0.235,1.066-1.48,1.975-2.858,2.103c-1.448,0.137-2.846-0.105-4.021-0.944c-1.351-0.963-2.573-2.104-3.889-3.122
		c-0.333-0.257-0.835-0.522-1.21-0.467c-2.767,0.419-5.526,0.897-8.272,1.424c-0.352,0.067-0.697,0.482-0.928,0.818
		c-1.46,2.115-2.843,4.283-4.342,6.369c-0.726,1.011-1.752,1.699-3.023,1.97c-1.852,0.392-3.276-0.997-2.868-2.844
		c0.429-1.938,1.652-3.399,3.18-4.484c1.629-1.158,3.448-2.062,5.237-2.972c0.584-0.297,1.019-0.597,1.292-1.188
		c1.032-2.257,2.081-4.508,3.135-6.756c0.283-0.6,0.248-1.093-0.083-1.712c-1.504-2.809-2.209-5.779-1.438-8.958
		c0.242-0.995,0.749-1.85,1.719-2.319c1.222-0.59,2.579-0.109,3.067,1.286C23.576,19.479,23.691,20.772,23.939,22.021z
		 M21.67,30.945c-0.913,2-1.748,3.827-2.631,5.757c2.195-0.36,4.236-0.694,6.41-1.051C24.173,34.064,22.977,32.572,21.67,30.945z
		 M14.397,40.646c-2.154,0.95-3.99,2.271-5.136,4.372c-0.185,0.336-0.122,0.807-0.173,1.217c0.411-0.078,0.818-0.156,1.228-0.24
		c0.056-0.011,0.109-0.047,0.154-0.083C12.221,44.49,13.321,42.586,14.397,40.646z M21.08,26.181
		c0.783-2.181,1.012-4.396,0.466-6.655c-0.063-0.271-0.336-0.489-0.511-0.73c-0.212,0.219-0.529,0.402-0.622,0.666
		C19.597,21.792,20.106,24.007,21.08,26.181z M30.361,37.601c-0.062,0.118-0.121,0.237-0.184,0.355
		c1.093,0.678,2.147,1.436,3.295,1.998c0.561,0.274,1.301,0.274,1.948,0.231c0.372-0.022,0.723-0.381,1.082-0.591
		c-0.269-0.313-0.479-0.739-0.817-0.919C34.021,37.799,32.207,37.593,30.361,37.601z"/>
	<path fill-rule="evenodd" clip-rule="evenodd" fill="#777777" d="M19.862,56.462c0.001-1.229,0.009-2.458-0.002-3.689
		c-0.008-0.76,0.369-1.163,1.109-1.163c1.199-0.002,2.405-0.033,3.595,0.087c1.807,0.18,3.005,1.296,3.365,3.066
		c0.146,0.707,0.214,1.453,0.179,2.176c-0.143,2.901-1.687,4.356-4.589,4.385c-0.761,0.008-1.521,0.013-2.284-0.002
		c-1.092-0.023-1.353-0.27-1.369-1.343C19.847,58.806,19.862,57.633,19.862,56.462z M21.827,59.834
		c1.406-0.154,2.961,0.449,3.803-1.086c0.816-1.492,0.882-3.149-0.012-4.612c-0.867-1.42-2.404-0.948-3.791-1.019
		C21.827,55.37,21.827,57.522,21.827,59.834z"/>
	<path fill-rule="evenodd" clip-rule="evenodd" fill="#777777" d="M12.667,57.604c0,0.875,0.003,1.742-0.002,2.613
		c-0.003,0.646-0.203,1.222-0.94,1.236c-0.802,0.017-0.976-0.572-0.971-1.265c0.01-2.453,0.018-4.909-0.004-7.36
		c-0.006-0.814,0.377-1.22,1.146-1.218c1.284,0.004,2.574-0.013,3.848,0.111c1.457,0.141,2.295,1.123,2.375,2.569
		c0.087,1.582-0.628,2.717-2.081,3.01C14.989,57.512,13.899,57.502,12.667,57.604z M12.721,56.143
		c0.856-0.072,1.669-0.078,2.452-0.23c0.727-0.144,1.041-0.729,1.002-1.447c-0.04-0.714-0.404-1.255-1.153-1.323
		c-0.744-0.068-1.5-0.015-2.301-0.015C12.721,54.092,12.721,55.04,12.721,56.143z"/>
	<path fill-rule="evenodd" clip-rule="evenodd" fill="#777777" d="M31.858,53.091c0,0.871,0,1.646,0,2.529
		c0.989,0,1.945-0.006,2.899,0.001c0.536,0.004,1.141-0.027,1.141,0.74c0.002,0.738-0.601,0.671-1.088,0.681
		c-0.96,0.017-1.918,0.006-3.001,0.006c0,0.959,0.006,1.826-0.002,2.689c-0.003,0.322,0.07,0.709-0.081,0.943
		c-0.208,0.325-0.63,0.771-0.897,0.732c-0.339-0.051-0.819-0.5-0.875-0.838c-0.135-0.797-0.06-1.63-0.061-2.449
		c-0.002-1.726-0.009-3.453,0.003-5.178c0.006-1.036,0.276-1.329,1.277-1.346c1.463-0.022,2.926-0.013,4.389,0
		c0.521,0.004,1.049,0.081,1.016,0.787c-0.028,0.639-0.525,0.696-1.016,0.7C34.343,53.099,33.122,53.091,31.858,53.091z"/>
</g>
</svg>
