<?xml version="1.0" encoding="utf-8"?>
<!-- Generator: Adobe Illustrator 16.0.0, SVG Export Plug-In . SVG Version: 6.00 Build 0)  -->
<!DOCTYPE svg PUBLIC "-//W3C//DTD SVG 1.1//EN" "http://www.w3.org/Graphics/SVG/1.1/DTD/svg11.dtd">
<svg version="1.1" id="Layer_1" xmlns="http://www.w3.org/2000/svg" xmlns:xlink="http://www.w3.org/1999/xlink" x="0px" y="0px"
	 width="150px" height="150px" viewBox="0 0 150 150" enable-background="new 0 0 150 150" xml:space="preserve">
<path fill-rule="evenodd" clip-rule="evenodd" fill="#FFFFFF" d="M148,74.452c-0.122,39.505-32.187,71.4-71.592,71.212
	c-39.36-0.188-71.216-32.177-71.087-71.382c0.131-39.555,32.083-71.413,71.51-71.3C116.235,3.095,148.122,35.116,148,74.452z
	 M27.062,111.18c0.299-0.401,0.509-0.651,0.686-0.924c6.972-10.768,16.904-16.244,29.695-16.35
	c12.837-0.105,25.674-0.103,38.511-0.001c12.735,0.101,22.61,5.575,29.582,16.256c0.219,0.337,0.513,0.627,0.796,0.967
	c18.345-24.213,16.512-60.046-7.878-82.56C94.477,6.436,57.23,6.929,33.512,29.911C10.043,52.651,9.215,87.887,27.062,111.18z
	 M74.538,136.321c17.636-0.012,32.744-5.946,44.063-16.431c0.74-0.685,0.903-1.216,0.448-2.121
	c-4.388-8.736-11.353-14.038-21.172-14.295c-14.157-0.371-28.339-0.381-42.494,0.006c-9.739,0.267-16.676,5.536-21.062,14.201
	c-0.503,0.994-0.306,1.55,0.48,2.259C46.689,130.662,60.643,136.075,74.538,136.321z"/>
<path fill-rule="evenodd" clip-rule="evenodd" fill="#FFFFFF" d="M50.823,60.184c0.158-8.823,3.292-16.342,10.131-22.041
	c11.193-9.327,27.163-7.146,35.961,4.781c7.123,9.657,7.538,23.521,0.83,33.472c-5.299,7.857-12.663,12.228-22.297,11.705
	c-10.254-0.558-17.292-6.162-21.801-15.131C51.64,68.978,50.752,64.678,50.823,60.184z M93.14,60.778
	c-0.036-4.655-1.158-8.503-3.548-11.952c-6.002-8.666-17.423-9.473-24.477-1.74c-6.948,7.618-6.474,20.352,1.021,27.423
	c5.951,5.616,14.687,5.752,20.758,0.252C91.151,70.909,93.002,65.968,93.14,60.778z"/>
</svg>
