<?xml version="1.0" encoding="utf-8"?>
<!-- Generator: Adobe Illustrator 16.0.0, SVG Export Plug-In . SVG Version: 6.00 Build 0)  -->
<!DOCTYPE svg PUBLIC "-//W3C//DTD SVG 1.1//EN" "http://www.w3.org/Graphics/SVG/1.1/DTD/svg11.dtd">
<svg version="1.1" id="Layer_1" xmlns="http://www.w3.org/2000/svg" xmlns:xlink="http://www.w3.org/1999/xlink" x="0px" y="0px"
	 width="150px" height="150px" viewBox="0 0 150 150" enable-background="new 0 0 150 150" xml:space="preserve">
<path fill-rule="evenodd" clip-rule="evenodd" fill="#FFFFFF" d="M74.939,142.75c-37.285-0.021-67.698-30.497-67.648-67.786
	C7.341,37.535,37.744,7.19,75.136,7.25c37.258,0.06,67.59,30.452,67.574,67.707C142.694,112.385,112.316,142.771,74.939,142.75z
	 M48.434,63.647c-0.04-0.001-0.079-0.003-0.12-0.005c0.132-2.901,0.058-5.83,0.433-8.699c1.151-8.819,5.669-15.193,14.089-18.513
	c5.854-2.308,11.943-2.456,18.101-1.785c12.64,1.377,20.753,10.037,21.186,22.717c0.141,4.112,0.028,8.231,0.1,12.347
	c0.014,0.764,0.208,1.6,0.567,2.27c2.604,4.863,1.813,10.502-2.066,14.472c-0.389,0.397-0.743,0.906-0.913,1.429
	c-1.622,4.984-3.98,9.557-7.383,13.572c-0.89,1.049-0.741,4.46,0.317,5.325c1.518,1.241,3.029,2.578,4.756,3.461
	c6.239,3.188,12.58,6.182,18.851,9.312c1.005,0.503,1.579,0.267,2.293-0.455c11.241-11.393,17.508-25.053,18.325-41.038
	c0.746-14.578-3.336-27.818-11.892-39.666c-18.128-25.104-52.87-32.839-79.914-17.787C19.482,34.896,7.309,64.302,15.479,92.506
	c2.997,10.346,8.474,19.256,16.151,26.81c0.499,0.491,0.901,1.003,1.817,0.563c5.758-2.76,11.605-5.337,17.302-8.216
	c2.488-1.258,4.742-3.015,6.998-4.686c1.234-0.915,1.358-4.471,0.368-5.643c-3.306-3.915-5.573-8.392-7.23-13.212
	c-0.222-0.644-0.622-1.272-1.082-1.78c-3.438-3.8-4.562-8.186-2.525-12.886c0.959-2.214,1.174-4.322,1.157-6.588
	C48.428,65.795,48.434,64.722,48.434,63.647z M112.427,124.286c-5.529-2.791-11.11-5.42-16.494-8.404
	c-2.744-1.521-5.208-3.592-7.659-5.586c-1.472-1.196-2.145-2.905-2.003-4.9c0.103-1.425-0.066-2.869,0.057-4.29
	c0.065-0.753,0.306-1.649,0.793-2.182c3.678-4.008,6.058-8.693,7.634-13.854c0.244-0.8,0.817-1.598,1.447-2.162
	c2.718-2.438,3.171-5.761,1.242-8.811c-0.517-0.815-0.858-1.885-0.88-2.847c-0.099-4.561,0.031-9.127-0.089-13.687
	c-0.221-8.385-4.646-14.304-12.276-16.453c-5.168-1.455-10.435-1.588-15.671-0.464c-8.74,1.876-13.439,7.021-14.218,15.958
	c-0.41,4.708-0.201,9.474-0.207,14.213c-0.001,1.343-0.267,2.485-1.049,3.631c-1.75,2.563-1.329,6.034,1.007,8.039
	c1.125,0.965,1.727,2.084,2.139,3.441c1.245,4.101,2.978,8.024,5.893,11.176c1.851,2,2.564,4.078,2.258,6.658
	c-0.016,0.133-0.02,0.271,0,0.402c0.51,3.421-1.117,5.843-3.664,7.828c-0.775,0.604-1.548,1.218-2.363,1.764
	c-6.085,4.071-12.769,6.979-19.417,9.951c-0.425,0.19-0.847,0.39-1.339,0.616C59.856,141.821,92.194,140.712,112.427,124.286z"/>
</svg>
