<?xml version="1.0" encoding="utf-8"?>
<!-- Generator: Adobe Illustrator 16.0.0, SVG Export Plug-In . SVG Version: 6.00 Build 0)  -->
<!DOCTYPE svg PUBLIC "-//W3C//DTD SVG 1.1//EN" "http://www.w3.org/Graphics/SVG/1.1/DTD/svg11.dtd">
<svg version="1.1" id="Layer_1" xmlns="http://www.w3.org/2000/svg" xmlns:xlink="http://www.w3.org/1999/xlink" x="0px" y="0px"
	 width="350px" height="350px" viewBox="0 0 350 350" enable-background="new 0 0 350 350" xml:space="preserve">
<g>
	<path fill-rule="evenodd" clip-rule="evenodd" fill="#151515" d="M325.006,112.42c-0.038,9.098-0.856,18.142-1.878,27.174
		c-1.672,14.783-4.401,29.364-8.293,43.724c-7.805,28.8-20.117,55.467-37.734,79.618c-14.832,20.336-32.589,37.748-52.76,52.746
		c-13.741,10.217-28.197,19.244-43.775,26.424c-1.907,0.88-3.632,0.924-5.56,0.081c-17.993-7.869-34.397-18.303-49.609-30.66
		c-10.986-8.925-21.467-18.397-31.03-28.854c-13.136-14.367-23.925-30.353-32.86-47.616c-8.532-16.485-15.642-33.553-20.981-51.347
		c-3.337-11.121-5.573-22.469-7.217-33.95c-1.804-12.602-2.884-25.271-3.513-37.977c-0.284-5.744,0.976-11.1,5.308-15.304
		c2.104-2.042,4.681-3.265,7.435-4.165c4.941-1.614,10.021-2.902,14.791-4.923c11.283-4.781,20.163-12.4,25.798-23.461
		c3.699-7.262,5.607-15.011,6.029-23.138c0.218-4.191,0.434-8.381,0.684-12.571c0.169-2.829,1.54-4.69,4.417-5.29
		c6.12-1.274,12.214-2.687,18.361-3.813c11.39-2.086,22.795-4.106,34.224-5.968c9.877-1.608,19.778-3.103,29.704-4.371
		c6.771-0.865,13.555-0.201,20.261,0.989c17.88,3.173,35.752,6.389,53.625,9.598c2.303,0.414,4.615,0.799,6.889,1.345
		c6.482,1.556,8.965,4.565,9.495,11.205c0.44,5.512,0.646,11.066,1.49,16.519c2.969,19.185,13.399,32.636,31.604,39.679
		c6.194,2.396,12.599,4.267,18.945,6.258c3.957,1.242,5.998,3.701,6.129,8.11C325.084,105.792,325.006,109.107,325.006,112.42z
		 M307.17,117.675c-0.059-1.086,0.002-2.195-0.199-3.254c-0.627-3.305-3.019-4.864-5.971-5.866c-3.74-1.27-7.539-2.41-11.175-3.936
		c-12.577-5.278-22.752-13.413-29.533-25.448c-3.428-6.085-5.703-12.637-7.742-19.279c-2.178-7.095-4.345-14.192-6.481-21.299
		c-0.378-1.26-1.016-2.016-2.411-2.137c-1.444-0.126-2.87-0.446-4.311-0.643c-12.68-1.73-25.354-3.49-38.042-5.163
		c-7.688-1.013-21.053-2.676-31.129-2.144c-5.842,0.309-11.734,0.464-17.494,1.38c-13.068,2.078-26.074,4.556-39.093,6.936
		c-3.764,0.688-5.339,2.3-5.874,6.078c-0.9,6.36-1.94,12.68-3.824,18.838c-5.429,17.737-15.924,31.365-32.48,40.083
		c-5.775,3.041-11.873,5.235-18.154,6.96c-4.027,1.106-5.754,3.759-5.229,7.878c0.833,6.528,1.703,13.051,2.467,19.586
		c1.581,13.525,3.812,26.923,7.331,40.095c6.692,25.046,16.925,48.488,31.575,69.933c21.522,31.504,49.845,55.353,83.065,73.671
		c3.249,1.792,6.548,1.798,9.86,0.173c8.42-4.132,16.509-8.835,24.294-14.063c16.741-11.243,31.53-24.669,44.618-39.986
		c10.688-12.51,20.185-25.843,27.486-40.634c8.522-17.264,15.192-35.255,20.595-53.715
		C304.48,154.084,306.399,135.966,307.17,117.675z"/>
	<path fill-rule="evenodd" clip-rule="evenodd" fill="#151515" d="M177.546,135.366c37.759,0.001,67.86,30.928,67.251,68.105
		c-0.597,36.389-30.453,65.963-67.527,65.918c-37.263-0.045-67.521-30.525-66.993-68.394
		C110.783,164.742,140.992,135.283,177.546,135.366z M232.542,202.148c0.174-29.392-24.746-54.136-53.208-54.639
		c-30.994-0.549-56.146,23.17-56.693,54.313c-0.519,29.494,23.904,55.375,54.041,55.419
		C207.807,257.285,232.542,232.913,232.542,202.148z"/>
	<path fill-rule="evenodd" clip-rule="evenodd" fill="#151515" d="M124.899,144.332c-0.21-2.764-0.433-5.288-0.588-7.815
		c-0.435-7.098-0.608-14.195-0.046-21.296c1.426-18.009,9.03-32.579,24.433-42.395c18.896-12.042,43.76-10.528,61.641,3.377
		c10.631,8.268,16.977,19.074,18.827,32.434c0.949,6.858,0.893,13.773,0.821,20.681c-0.044,4.361-0.104,8.722-0.155,13.082
		c-0.007,0.475-0.001,0.95-0.001,1.701c-1.136-0.818-2.069-1.487-2.999-2.162c-2.483-1.803-4.95-3.627-7.45-5.406
		c-1.954-1.39-2.925-3.252-3.017-5.64c-0.193-5-0.232-10.017-0.68-14.996c-1.393-15.505-12.225-28.225-27.309-32.051
		c-8.659-2.197-17.399-2.603-25.808,0.958c-11.68,4.945-19.987,13.105-22.861,25.858c-0.695,3.083-0.869,6.311-1.004,9.484
		c-0.159,3.711-0.101,7.423-1.079,11.053c-1.122,4.161-3.451,7.439-7.075,9.761C128.788,142.089,126.956,143.11,124.899,144.332z"/>
	<path fill-rule="evenodd" clip-rule="evenodd" fill="#151515" d="M137.011,202.331c0-22.79,18.016-40.756,40.97-40.646
		c21.567,0.103,40.775,17.874,40.52,41.502c-0.241,22.166-19.344,40.34-41.852,39.922
		C153.844,242.685,136.85,223.887,137.011,202.331z M167.684,217.58c0.07,0.001,0.141,0.001,0.21,0.001
		c0,4.08-0.082,8.161,0.023,12.239c0.104,4.005,2.628,6.332,6.635,6.226c2.54-0.066,5.08-0.229,7.612-0.439
		c2.46-0.205,4.041-1.633,4.45-4.054c0.233-1.386,0.317-2.81,0.329-4.216c0.056-6.543,0.079-13.087,0.08-19.63
		c0.001-3.385,1.073-6.342,3.383-8.816c2.998-3.212,3.89-7.048,3.086-11.229c-1.21-6.304-4.877-10.71-11.045-12.614
		c-6.253-1.93-11.82-0.422-16.396,4.307c-5.022,5.19-6.496,14.132-0.869,20.059c1.686,1.776,2.464,4.072,2.489,6.542
		C167.712,209.83,167.684,213.705,167.684,217.58z"/>
</g>
</svg>
