<?xml version="1.0" encoding="utf-8"?>
<!-- Generator: Adobe Illustrator 16.0.0, SVG Export Plug-In . SVG Version: 6.00 Build 0)  -->
<!DOCTYPE svg PUBLIC "-//W3C//DTD SVG 1.1//EN" "http://www.w3.org/Graphics/SVG/1.1/DTD/svg11.dtd">
<svg version="1.1" id="Layer_1" xmlns="http://www.w3.org/2000/svg" xmlns:xlink="http://www.w3.org/1999/xlink" x="0px" y="0px"
	 width="150px" height="150px" viewBox="0 0 150 150" enable-background="new 0 0 150 150" xml:space="preserve">
<g>
	<path fill-rule="evenodd" clip-rule="evenodd" fill="#FFFFFF" d="M70.985,2.569c2.461,0.417,4.285,1.802,5.701,3.784
		c1.34,1.874,2.747,3.694,4.281,5.413c3.807,4.261,8.145,7.858,13.224,10.519c4.153,2.176,8.556,3.55,13.22,4.086
		c2.758,0.316,5.518,0.374,8.279,0.106c1.455-0.141,2.87-0.536,4.315-0.725c3.458-0.453,6.413,0.442,8.512,3.395
		c1.155,1.627,1.551,3.499,1.553,5.464c0.008,5.003,0.001,10.005,0.001,15.008c0,2.523,0.004,5.048-0.003,7.571
		c0,0.244,0.082,0.504-0.211,0.699c-0.16,0.106-0.065,0.376-0.065,0.57c0.002,2.08,0.016,4.161,0.014,6.242
		c-0.001,3.741-0.019,7.482-0.014,11.223c0.003,2.548-0.097,5.089-0.618,7.591c-0.369,1.768-1.371,3.046-3.172,3.459
		c-2.854,0.653-5.336-1.353-5.361-4.087c-0.008-0.822,0.11-1.634,0.18-2.449c0.699-8.215,0.694-16.447,0.614-24.681
		c-0.062-6.241-0.15-12.481-0.083-18.724c0.008-0.663,0.031-1.326,0.042-1.99c0.003-0.218,0.03-0.442-0.101-0.694
		c-0.899,0.166-1.806,0.338-2.714,0.497c-2.606,0.458-5.234,0.518-7.871,0.455c-6.402-0.154-12.528-1.533-18.353-4.208
		c-5.483-2.519-10.292-6.014-14.631-10.187c-2.673-2.571-5.004-5.434-7.259-8.367c-0.32-0.416-0.651-0.821-0.991-1.251
		c-0.347,0.316-0.553,0.658-0.788,0.976c-3.602,4.868-7.724,9.228-12.569,12.878c-6.142,4.627-12.957,7.822-20.461,9.511
		c-3.975,0.896-8.003,1.204-12.068,0.822c-1.871-0.174-3.734-0.422-5.542-0.977c-0.5-0.154-0.542-0.115-0.542,0.307
		c0.008,4.184,0.016,8.367,0.023,12.55c0.01,5.356,0.023,10.713,0.023,16.069c0,2.324-0.03,4.647-0.05,6.971
		c-0.023,2.834,0.086,5.665,0.379,8.485c1.327,12.78,6.083,24.091,14.54,33.806c5.352,6.149,11.653,11.155,18.587,15.394
		c5.298,3.237,10.895,5.838,16.796,7.78c1.101,0.362,2.136,0.368,3.231-0.042c3.083-1.154,6.123-2.409,9.156-3.684
		c0.8-0.335,1.61-0.603,2.486-0.646c2.2-0.109,3.966,1.261,4.392,3.423c0.337,1.714-0.252,3.085-1.557,4.183
		c-0.425,0.358-0.914,0.614-1.428,0.831c-3.724,1.568-7.482,3.05-11.247,4.518c-2.242,0.874-4.516,0.829-6.758,0.062
		c-11.179-3.828-21.542-9.163-30.649-16.772c-7.545-6.305-13.87-13.642-18.571-22.316c-3.366-6.209-5.628-12.81-6.854-19.768
		c-0.626-3.559-0.999-7.139-1.067-10.751c-0.003-0.11-0.023-0.218-0.035-0.327c0.06-1.069,0.015-2.135-0.069-3.202
		c0.053-0.487,0.055-0.973-0.003-1.459c0.007-0.531,0.014-1.063,0.021-1.593c0.152-0.194,0.09-0.42,0.092-0.635
		c0.012-1.398-0.198-2.79-0.118-4.19c0.007-0.135-0.019-0.262-0.129-0.356c0-4.162,0-8.323,0-12.485
		c0.139-0.113,0.127-0.269,0.13-0.423c0.034-1.712-0.049-3.425,0.102-5.138c0.09-1.027,0.02-2.068,0.013-3.102
		c-0.001-0.213,0.064-0.443-0.098-0.634c-0.001-1.948-0.004-3.894-0.006-5.841c0.023-0.762,0.045-1.525,0.068-2.286
		c0.016-0.11,0.032-0.219,0.047-0.329c0.684-5.013,5.348-8.422,10.39-7.022c4.544,1.264,9.129,1.362,13.728,0.417
		c6.618-1.361,12.611-4.128,17.99-8.219c4.172-3.173,7.695-6.975,10.774-11.202c0.43-0.59,0.873-1.17,1.375-1.703
		c1.215-1.29,2.66-2.176,4.404-2.555c0.153-0.033,0.371,0.051,0.455-0.178c0.088,0,0.177,0,0.266,0c0.221,0.267,0.443,0.127,0.664,0
		c0.354,0,0.708,0,1.063,0C70.354,2.573,70.662,2.623,70.985,2.569z"/>
	<path fill-rule="evenodd" clip-rule="evenodd" fill="#FFFFFF" d="M8.841,41.354c0.163,0.19,0.097,0.42,0.098,0.634
		c0.006,1.034,0.077,2.075-0.013,3.102c-0.15,1.713-0.068,3.426-0.102,5.138c-0.003,0.154,0.009,0.311-0.13,0.423
		c0-3.1,0-6.198,0-9.297C8.744,41.354,8.792,41.354,8.841,41.354z"/>
	<path fill-rule="evenodd" clip-rule="evenodd" fill="#FFFFFF" d="M8.694,63.136c0.11,0.094,0.137,0.221,0.129,0.356
		c-0.08,1.4,0.13,2.792,0.118,4.19c-0.002,0.214,0.06,0.441-0.092,0.635c-0.052,0-0.104,0-0.156-0.001
		C8.694,66.59,8.694,64.864,8.694,63.136z"/>
	<path fill-rule="evenodd" clip-rule="evenodd" fill="#FFFFFF" d="M8.841,41.354c-0.049,0-0.097,0-0.146,0c0-1.948,0-3.896,0-5.844
		c0.047,0.001,0.094,0.002,0.141,0.003C8.836,37.46,8.84,39.406,8.841,41.354z"/>
	<path fill-rule="evenodd" clip-rule="evenodd" fill="#FFFFFF" d="M114.687,146.283c-0.93,0-1.86,0-2.789,0
		c-0.001-0.038-0.005-0.076-0.014-0.113c0.938,0,1.877-0.001,2.815-0.001C114.688,146.206,114.686,146.245,114.687,146.283z"/>
	<path fill-rule="evenodd" clip-rule="evenodd" fill="#FFFFFF" d="M8.835,35.513c-0.047-0.001-0.094-0.002-0.141-0.003
		c0-0.753,0-1.505,0-2.258c0.069-0.008,0.139-0.017,0.209-0.024C8.88,33.988,8.858,34.751,8.835,35.513z"/>
	<path fill-rule="evenodd" clip-rule="evenodd" fill="#FFFFFF" d="M141.384,117.195c0,0.841,0,1.683,0,2.523
		c-0.039,0.002-0.078,0.006-0.117,0.012c0.003-0.85,0.006-1.7,0.008-2.552h0.056L141.384,117.195z"/>
	<path fill-rule="evenodd" clip-rule="evenodd" fill="#FFFFFF" d="M8.694,68.316c0.052,0.001,0.104,0.001,0.156,0.001
		c-0.007,0.53-0.014,1.062-0.021,1.593c-0.045,0-0.09,0-0.135,0C8.694,69.379,8.694,68.848,8.694,68.316z"/>
	<path fill-rule="evenodd" clip-rule="evenodd" fill="#FFFFFF" d="M8.694,69.91c0.045,0,0.09,0,0.135,0
		c0.058,0.486,0.056,0.972,0.003,1.459c-0.046,0-0.092,0.001-0.138,0.003C8.694,70.885,8.694,70.397,8.694,69.91z"/>
	<path fill-rule="evenodd" clip-rule="evenodd" fill="#FFFFFF" d="M70.985,2.569c-0.323,0.054-0.63,0.004-0.927-0.132
		c0.31,0,0.62,0,0.93,0c-0.012,0.03-0.026,0.058-0.031,0.088C70.955,2.537,70.975,2.554,70.985,2.569z"/>
	<path fill-rule="evenodd" clip-rule="evenodd" fill="#FFFFFF" d="M68.996,2.437c-0.221,0.127-0.443,0.267-0.664,0
		C68.552,2.437,68.774,2.437,68.996,2.437z"/>
	<path fill-rule="evenodd" clip-rule="evenodd" fill="#FFFFFF" d="M115.484,146.154c-0.263-0.063-0.523,0.016-0.785,0.015
		c-0.938,0-1.877,0.001-2.815,0.001c-0.575-0.002-1.139-0.168-1.717-0.131c-11.549-1.367-21.029-9.597-23.972-20.835
		c-0.89-3.397-1.06-6.846-0.625-10.333c0.564-4.535,2.066-8.722,4.666-12.482c4.217-6.102,10.013-9.874,17.228-11.484
		c3.112-0.694,6.266-0.877,9.435-0.512c4.778,0.549,9.123,2.256,12.97,5.144c6.013,4.518,9.673,10.516,11.082,17.891
		c0.178,0.934,0.311,1.877,0.32,2.832c-0.054,0.307-0.009,0.614,0.004,0.92c-0.002,0.852-0.005,1.702-0.008,2.552
		c0.002,0.266,0.004,0.528,0.006,0.793c-0.427,6.181-2.775,11.563-6.861,16.175c-4.443,5.014-10.027,8.024-16.626,9.153
		C117.023,145.981,116.251,146.054,115.484,146.154z M132.71,118.088c-0.01-10.523-8.738-19.123-19.208-19.218
		c-10.672-0.094-19.415,8.8-19.439,19.025c-0.025,10.863,8.487,19.568,19.147,19.653C123.569,137.63,132.637,129.326,132.71,118.088
		z"/>
	<path fill-rule="evenodd" clip-rule="evenodd" fill="#FFFFFF" d="M105.968,115.657c1.007,0.02,1.799,0.432,2.463,1.082
		c0.681,0.666,1.32,1.376,1.984,2.061c0.165,0.171,0.297,0.463,0.52,0.467c0.229,0.002,0.355-0.296,0.519-0.47
		c2.379-2.53,4.754-5.064,7.13-7.599c0.377-0.402,0.779-0.772,1.265-1.046c1.306-0.741,2.712-0.589,3.694,0.405
		c1.063,1.073,1.277,2.597,0.545,3.873c-0.151,0.268-0.344,0.508-0.553,0.733c-3.354,3.61-6.709,7.219-10.062,10.831
		c-0.674,0.725-1.465,1.215-2.487,1.227c-0.982,0.011-1.781-0.418-2.44-1.108c-1.128-1.18-2.238-2.376-3.354-3.566
		c-0.41-0.436-0.823-0.868-1.224-1.312c-0.481-0.534-0.834-1.137-1.008-1.848C102.48,117.424,104.266,115.585,105.968,115.657z"/>
</g>
</svg>
