<?xml version="1.0" encoding="utf-8"?>
<!-- Generator: Adobe Illustrator 16.0.0, SVG Export Plug-In . SVG Version: 6.00 Build 0)  -->
<!DOCTYPE svg PUBLIC "-//W3C//DTD SVG 1.1//EN" "http://www.w3.org/Graphics/SVG/1.1/DTD/svg11.dtd">
<svg version="1.1" id="Layer_1" xmlns="http://www.w3.org/2000/svg" xmlns:xlink="http://www.w3.org/1999/xlink" x="0px" y="0px"
	 width="250px" height="232.5px" viewBox="0 0 250 232.5" enable-background="new 0 0 250 232.5" xml:space="preserve">
<g>
	<path fill="#929293" d="M128.07,2.26c1.841,0,3.681,0,5.521,0c1.813,0.28,3.646,0.469,5.437,0.853
		c17.521,3.761,30.582,19.389,31.209,37.499c0.229,6.671,0.135,13.354,0.186,20.031c0.004,0.503,0,1.006,0,1.584
		c0.68,0,1.148,0,1.63,0c8.199,0,16.396-0.001,24.603,0.002c0.64,0,1.279,0.001,1.918,0.049c2.271,0.169,3.535,1.216,3.955,3.463
		c0.272,1.487,0.379,3.01,0.515,4.521c0.778,8.717,1.543,17.438,2.313,26.154c0.674,7.604,1.348,15.208,2.021,22.811
		c0.767,8.563,1.524,17.115,2.296,25.674c0.753,8.398,1.518,16.802,2.266,25.197c0.771,8.678,1.524,17.355,2.307,26.032
		c0.297,3.3,0.637,6.595,0.957,9.89c0,1.36,0,2.725,0,4.08c-0.079,0.385-0.184,0.771-0.23,1.153
		c-0.693,5.61-3.134,10.3-7.576,13.813c-5.338,4.222-11.563,6.146-18.283,6.156c-37.657,0.06-75.316-0.029-112.979,0.094
		c-5.506,0.018-10.698-0.936-15.815-2.742c-5.668-2.006-10.396-5.2-12.871-10.887c-0.94-2.16-1.3-4.571-1.924-6.869
		c0-1.438,0-2.879,0-4.318c0.067-0.393,0.163-0.781,0.196-1.176c0.417-4.938,0.799-9.879,1.241-14.813
		c0.731-8.159,1.511-16.313,2.249-24.475c0.788-8.718,1.545-17.437,2.324-26.15c0.75-8.399,1.515-16.798,2.269-25.196
		c0.765-8.518,1.523-17.036,2.29-25.554c0.684-7.602,1.348-15.207,2.077-22.804c0.297-3.094,1.479-4.062,4.626-4.067
		c8.519-0.012,17.037-0.025,25.556-0.038c0.427,0,0.854,0,1.376,0c0.112-4.863,0.122-9.578,0.359-14.28
		c0.23-4.581,0.188-9.258,1.145-13.705c3.421-15.914,12.852-26.457,28.834-30.637C122.664,2.922,125.395,2.696,128.07,2.26z
		 M89.959,70.601c-0.291-0.083-0.402-0.143-0.515-0.144c-5.396-0.081-10.797-0.326-16.188-0.182
		c-4.826,0.129-7.318,2.598-8.01,7.295c-0.146,0.988-0.208,1.987-0.298,2.982c-0.667,7.324-1.337,14.648-1.994,21.973
		c-0.782,8.718-1.552,17.438-2.326,26.155c-0.746,8.4-1.486,16.801-2.236,25.2c-0.765,8.56-1.551,17.115-2.305,25.675
		c-0.8,9.077-1.406,18.176-2.416,27.229c-0.667,5.987,1.589,10.218,6.511,13.319c3.454,2.176,7.242,3.09,11.288,3.09
		c37.88-0.002,75.758,0,113.639,0c0.521,0,1.041-0.01,1.562,0.015c6.313,0.302,11.899-1.487,16.647-5.743
		c2.684-2.402,3.937-5.371,3.621-8.972c-0.438-5.058-0.883-10.112-1.332-15.168c-0.688-7.763-1.379-15.526-2.072-23.289
		c-0.745-8.319-1.504-16.64-2.249-24.959c-0.759-8.438-1.494-16.88-2.261-25.318c-0.758-8.358-1.531-16.715-2.313-25.072
		c-0.537-5.77-1.021-11.545-1.663-17.304c-0.416-3.75-3.159-6.367-6.907-6.663c-3.662-0.29-7.338-0.486-11.015-0.555
		c-2.129-0.04-4.264,0.255-6.379,0.397c-0.051,0.475-0.088,0.671-0.091,0.867c-0.083,6.437-0.157,12.873-0.247,19.31
		c-0.021,1.358-0.041,2.72-0.147,4.073c-0.146,1.872-1.057,3.024-2.615,3.489c-2.811,0.838-5.203-0.925-5.229-4.031
		c-0.063-7.479-0.021-14.958-0.021-22.437c0-0.464,0-0.927,0-1.462c-0.687,0-1.197,0-1.717,0c-19.396,0-38.802,0-58.201,0
		c-3.996,0-4.046-0.001-4.129,4.053c-0.124,6.075-0.163,12.152-0.257,18.228c-0.015,0.955-0.025,1.931-0.225,2.856
		c-0.436,2.017-1.912,3.072-4.012,3.021c-1.771-0.043-3.341-1.369-3.686-3.194c-0.147-0.781-0.204-1.589-0.206-2.385
		c-0.015-6.958-0.009-13.918-0.009-20.877C89.959,71.599,89.959,71.123,89.959,70.601z M162.016,61.95
		c0.045-0.267,0.094-0.418,0.096-0.57c0.063-6.712,0.275-13.428,0.138-20.136c-0.199-9.383-3.804-17.323-10.959-23.484
		c-11.828-10.18-29.546-10.185-41.817-0.122c-6.461,5.299-10.434,11.939-10.891,20.394c-0.358,6.621-0.515,13.251-0.743,19.878
		c-0.045,1.334-0.006,2.671-0.006,4.041C119.302,61.95,140.604,61.95,162.016,61.95z"/>
	<path fill="#929293" d="M120.368,167.354c2.599-2.511,5.135-4.89,7.592-7.347c8.284-8.284,16.533-16.604,24.812-24.894
		c1.723-1.719,3.398-1.963,5.187-0.877c2.001,1.221,2.513,3.729,1.115,5.613c-0.382,0.51-0.825,0.976-1.276,1.428
		c-11.104,11.115-22.219,22.229-33.341,33.332c-0.704,0.701-1.472,1.354-2.285,1.926c-1.239,0.865-2.564,0.855-3.805-0.01
		c-0.75-0.521-1.464-1.115-2.112-1.76c-4.792-4.77-9.563-9.557-14.345-14.328c-1.189-1.188-1.991-2.475-1.487-4.271
		c0.413-1.477,1.264-2.491,2.738-2.889c1.493-0.403,2.779-0.094,3.936,1.061c4.216,4.208,8.49,8.357,12.743,12.528
		C120.03,167.061,120.242,167.24,120.368,167.354z"/>
</g>
</svg>
