<?xml version="1.0" encoding="utf-8"?>
<!-- Generator: Adobe Illustrator 16.0.0, SVG Export Plug-In . SVG Version: 6.00 Build 0)  -->
<!DOCTYPE svg PUBLIC "-//W3C//DTD SVG 1.1//EN" "http://www.w3.org/Graphics/SVG/1.1/DTD/svg11.dtd">
<svg version="1.1" id="Layer_1" xmlns="http://www.w3.org/2000/svg" xmlns:xlink="http://www.w3.org/1999/xlink" x="0px" y="0px"
	 width="350px" height="350px" viewBox="0 0 350 350" enable-background="new 0 0 350 350" xml:space="preserve">
<g>
	<path fill="#929293" d="M223.504,6.478c1.907,0.471,3.854,0.826,5.717,1.433c8.68,2.826,5.868,1.419,13.344,7.033
		c3.394,2.548,5.535,5.96,7.563,9.516c0.619,1.085,1.126,2.251,1.545,3.428c2.452,6.892,2.727,14.046,2.557,21.264
		c-0.086,3.553,0.024,7.109,0.021,10.664c-0.002,0.966-0.079,1.935-0.179,2.896c-0.086,0.829-0.717,0.958-1.402,0.958
		c-3.119-0.002-6.238,0.033-9.355-0.015c-2.803-0.042-2.709-0.082-2.688-2.879c0.045-6.138-0.042-12.276-0.016-18.414
		c0.016-3.349-0.321-6.616-1.592-9.752c-3.041-7.523-10.334-12.475-18.44-12.479c-47.162-0.025-94.325-0.051-141.488-0.066
		c-7.814-0.002-15.629,0.036-23.444,0.067c-9.41,0.038-18.015,7.558-19.309,16.887c-0.156,1.124-0.231,2.269-0.234,3.404
		c-0.02,8.286-0.007,16.571-0.01,24.857c-0.022,47.364-0.061,94.729-0.064,142.093c-0.002,34.852,0.038,69.705,0.068,104.557
		c0.004,4.559,1.371,8.649,4.43,12.084c1.333,1.495,2.731,2.941,4.192,4.313c0.619,0.577,1.448,0.969,2.233,1.334
		c3.535,1.646,7.246,2.46,11.163,2.389c5.83-0.104,11.662-0.161,17.494-0.198c3.387-0.021,6.773,0.051,10.161,0.053
		c11.035,0.009,22.068,0.003,33.102,0.003c5.567,0,11.133,0.008,16.699-0.003c3.085-0.006,6.17-0.055,9.254-0.063
		c7.21-0.009,14.42-0.003,21.63-0.003c5.7,0,11.399-0.016,17.101,0.005c7.947,0.028,15.896,0.104,23.846,0.121
		c4.859,0.014,9.727,0.063,14.582-0.076c9.756-0.291,18.437-9.17,18.527-18.93c0.082-8.417,0.08-16.835,0.071-25.254
		c-0.013-7.042-0.131-14.084-0.118-21.126c0.021-14.086,0.096-28.171,0.172-42.259c0.008-1.166,0.168-2.34,0.352-3.491
		c0.269-1.687,1.377-2.67,3.004-2.761c2.703-0.146,5.424-0.149,8.127-0.068c1.404,0.042,1.938,0.727,1.982,2.158
		c0.051,1.572-0.004,3.148,0.008,4.729c0.054,7.813,0.125,15.625,0.16,23.438c0.024,5.528,0.006,11.063,0.006,16.596
		c0,5.668,0,11.335,0,17.001c0,5.771,0.008,11.536-0.002,17.307c-0.01,4.561,0.209,9.138-0.11,13.677
		c-0.644,9.142-3.959,17.094-10.796,23.519c-5.68,5.34-12.45,7.932-19.981,9.002c-0.358,0.053-0.717,0.135-1.077,0.201
		c-56.288,0-112.576,0-168.866,0c-2.617-0.675-5.252-1.293-7.849-2.039c-2.927-0.842-5.817-1.759-8.182-3.867
		c-1.897-1.691-4.129-3.041-5.866-4.873c-2.953-3.117-5.072-6.81-6.711-10.813c-0.638-1.558-0.915-3.114-1.197-4.712
		c-0.407-2.301-0.795-4.604-1.19-6.904c0-91.377,0-182.754,0-274.131c0.197-1.183,0.359-2.373,0.598-3.547
		c2.735-13.458,10.491-22.5,23.663-26.657c2.438-0.77,5.022-1.078,7.539-1.599C110.657,6.478,167.08,6.478,223.504,6.478z"/>
	<path fill="#929293" d="M334.807,172.527c-0.056,2.71-0.081,5.422-0.188,8.132c-0.027,0.661-0.319,1.317-0.506,1.974
		c-0.146,0.514-0.436,1.014-0.457,1.528c-0.183,3.924-1.938,7.295-3.813,10.577c-4.727,8.259-12.025,13.098-21.046,15.65
		c-2.512,0.711-5.021,1.033-7.625,1.027c-17.604-0.041-35.215-0.021-52.818-0.059c-7.515-0.014-15.021-0.116-22.535-0.149
		c-2.211-0.009-4.336,0.392-6.188,1.729c-2.871,2.076-5.754,4.141-8.613,6.229c-14.438,10.529-28.863,21.068-43.295,31.604
		c-0.266,0.193-0.543,0.371-0.937,0.64c-0.026-0.429-0.063-0.737-0.064-1.052c-0.025-11.232-0.049-22.473-0.062-33.709
		c-0.002-1.205,0.055-2.412,0.106-3.612c0.047-1.127-0.34-1.611-1.456-1.738c-0.265-0.026-0.535-0.021-0.803-0.022
		c-2.649-0.022-5.3,0.008-7.946-0.098c-0.939-0.031-1.858-0.521-2.799-0.568c-3.043-0.153-5.667-1.563-8.334-2.764
		c-1.906-0.854-3.823-1.875-5.41-3.205c-2.863-2.402-5.839-4.771-7.808-8.049c-1.985-3.304-3.845-6.712-4.788-10.465
		c-0.491-1.953-0.328-4.063-0.529-6.102c-0.811-8.195-0.456-16.417-0.48-24.628c-0.047-16.638,0.029-33.275-0.036-49.913
		c-0.024-6.141,1.566-11.833,4.092-17.355c1.943-4.25,5.328-7.266,8.644-10.326c4.267-3.939,9.606-5.6,15.148-6.708
		c5.84-1.167,11.759-0.751,17.653-0.796c0.234-0.002,0.469,0.019,0.704,0.019c20.292,0.024,40.585,0.063,60.878,0.063
		c8.419,0,16.836-0.088,25.253-0.125c7.009-0.031,14.02-0.05,21.025-0.064c5.299-0.01,10.6-0.125,15.895,0.031
		c4.52,0.133,9.034,0.521,13.538,0.938c1.199,0.111,2.412,0.613,3.513,1.154c3.148,1.547,6.533,2.74,9.16,5.158
		c3.745,3.449,7.434,6.979,9.363,11.876c0.438,1.121,0.997,2.202,1.374,3.343c0.456,1.385,0.743,2.824,1.17,4.22
		c1.401,4.581,0.554,9.303,0.922,13.946c0.035,0.431,0.068,0.862,0.104,1.292C334.807,132.272,334.807,152.4,334.807,172.527z
		 M180.279,223.904c0.107,0.033,0.214,0.066,0.322,0.1c0.733-0.51,1.479-1.015,2.211-1.527c8.412-5.865,16.813-11.742,25.24-17.596
		c2.836-1.971,5.738-3.845,8.063-6.457c0.156-0.181,0.438-0.318,0.678-0.354c1.096-0.151,2.191-0.35,3.293-0.368
		c3.453-0.056,6.908-0.05,10.362-0.047c10.329,0.005,20.657,0.021,30.987,0.03c0.336,0,0.672-0.004,1.006-0.004
		c6.574,0.014,13.146,0.021,19.72,0.041c5.333,0.017,10.665,0.058,15.997,0.058c1.773,0,3.574,0.085,5.322-0.169
		c8.259-1.204,13.733-5.889,16.625-13.65c1.156-3.117,0.971-6.406,0.97-9.65c-0.007-8.417-0.108-16.833-0.113-25.249
		c-0.003-6.639,0.104-13.277,0.12-19.917c0.021-7.479,0.063-14.958-0.026-22.437c-0.03-2.766-0.006-5.644-0.729-8.271
		c-2.188-7.903-7.98-12.217-15.593-14.195c-2.172-0.565-4.584-0.267-6.885-0.268c-34.916-0.013-69.834-0.008-104.75-0.011
		c-2.553,0-5.101-0.03-7.646-0.031c-8.852-0.004-17.699-0.016-26.55,0.003c-8.152,0.018-16.461,6.713-18.257,15.221
		c-0.629,2.977-0.591,6.124-0.609,9.195c-0.043,7.409,0.098,14.82,0.096,22.23c-0.002,8.55-0.111,17.1-0.114,25.65
		c-0.004,7.007,0.092,14.015,0.12,21.022c0.013,3.46,0.582,6.767,2.091,9.933c2.94,6.172,12.686,11.039,19.095,10.733
		c5.016-0.237,10.051-0.103,15.075-0.129c1.229-0.007,2.461-0.002,3.879-0.002C180.279,206.627,180.279,215.266,180.279,223.904z"/>
	<g>
		<path fill="#929293" d="M223.895,62.261c-1.391,3.91-3.719,5.365-7.729,4.831c-3.346-0.445-5.15-2.57-5.18-6.218
			c-0.023-3.118,0.043-6.236,0.068-9.354c0.004-0.437,0-0.875,0-1.333c-48.29,0-96.5,0-144.798,0c0,74.051,0,147.977,0,221.954
			c48.266,0,96.474,0,144.722,0c0-1.687,0.002-3.354,0-5.023c-0.016-12.521-0.09-25.037-0.004-37.557
			c0.024-3.584,1.121-6.843,4.359-9.009c2.451-1.639,5.127-1.772,8.093-1.517c0.076,2.631,0.212,5.216,0.218,7.801
			c0.035,12.76,0.035,25.52,0.061,38.277c0,0.463,0.124,0.925,0.189,1.388c0,4.72,0,9.438,0,14.159
			c-0.468,1.535-0.955,3.074-2.564,3.814c-0.71,0.322-1.487,0.502-2.232,0.746c-44.802,0-89.602,0-134.401,0
			c-0.381-0.066-0.763-0.191-1.144-0.191c-6.66-0.025-13.321-0.037-19.981-0.049c-1.515-0.002-3.033,0.076-4.544-0.002
			c-2.748-0.144-4.708-1.771-5.46-4.402c-0.085-0.299-0.207-0.584-0.311-0.876c0-79.12,0-158.24,0-237.36
			c0.561-1.662,1.11-3.345,2.852-4.187c0.703-0.339,1.458-0.572,2.188-0.853c53.44,0,106.88,0,160.32,0
			c2.667,0.602,4.546,2.071,5.279,4.8C223.895,48.82,223.895,55.541,223.895,62.261z"/>
	</g>
	<path fill="#929293" d="M133.44,304.971c-0.397-5.035,4.612-10.15,10.408-9.736c5.796,0.412,9.346,4.24,9.468,10.416
		c0.09,4.539-4.488,9.908-10.407,9.479C137.164,314.712,133.35,310.918,133.44,304.971z"/>
	<path fill="#929293" d="M179.98,161.947c-5.755-0.004-10.523-1.224-14.425-4.764c-11.894-10.788-8.129-28.202,5.543-34.042
		c4.565-1.95,8.966-2.106,13.536-0.445c1.976,0.717,4.083,1.193,5.685,2.66c1.029,0.942,1.976,1.99,2.858,3.068
		c1.355,1.653,3.077,3.19,3.854,5.098c2.996,7.334,2.253,14.371-2.692,20.715c-1.243,1.596-2.845,2.918-4.317,4.328
		c-0.352,0.336-0.83,0.561-1.285,0.758c-1.193,0.52-2.438,0.936-3.607,1.505C183.297,161.716,181.385,162.039,179.98,161.947z
		 M191.938,142.007c0-7.377-6.039-13.574-13.303-13.653c-7.078-0.076-13.459,6.286-13.467,13.425
		c-0.009,7.303,6.098,13.31,13.557,13.34C185.791,155.148,191.939,149.048,191.938,142.007z"/>
	<path fill="#929293" d="M250.536,142.654c0.077,5.917-2.558,10.442-6.897,14.257c-3.262,2.867-6.931,4.78-11.229,5.001
		c-2.5,0.128-5.055-0.386-7.559-0.775c-3.537-0.551-5.795-3.167-8.459-5.247c-6.898-5.387-7.928-18.338-2.271-25.636
		c2.747-3.545,6.146-6.203,10.293-7.782c3.505-1.336,7.146-1.229,10.771-0.231c2.1,0.578,4.26,1,6.021,2.378
		c1.069,0.84,2.08,1.769,3.04,2.734c1.227,1.233,2.451,2.481,3.537,3.838c1.867,2.338,2.021,5.26,2.467,8.059
		C250.428,140.372,250.445,141.519,250.536,142.654z M230.678,128.362c-6.926-0.214-13.234,5.982-13.507,13.268
		c-0.263,7.007,5.813,13.269,13.089,13.489c7.096,0.215,13.49-5.703,13.676-12.655C244.137,134.897,238.211,128.595,230.678,128.362
		z"/>
	<path fill="#929293" d="M262.586,141.339c-0.543-10.354,9.627-19.174,17.124-19.553c12.888-0.648,22.401,7.548,22.978,18.777
		c0.666,13.078-10.084,21.268-19.521,21.476C272.443,162.274,262.173,153.663,262.586,141.339z M282.448,128.356
		c-7.163,0.053-13.31,6.403-13.257,13.698c0.052,7.147,6.197,13.1,13.488,13.066c7.254-0.034,13.338-6.166,13.278-13.384
		C295.907,134.567,289.58,128.304,282.448,128.356z"/>
</g>
</svg>
