<?xml version="1.0" encoding="utf-8"?>
<!-- Generator: Adobe Illustrator 16.0.0, SVG Export Plug-In . SVG Version: 6.00 Build 0)  -->
<!DOCTYPE svg PUBLIC "-//W3C//DTD SVG 1.1//EN" "http://www.w3.org/Graphics/SVG/1.1/DTD/svg11.dtd">
<svg version="1.1" id="Layer_1" xmlns="http://www.w3.org/2000/svg" xmlns:xlink="http://www.w3.org/1999/xlink" x="0px" y="0px"
	 width="550px" height="502px" viewBox="0 0 550 502" enable-background="new 0 0 550 502" xml:space="preserve">
<g>
	<path fill="#6C6C75" d="M274.042,485.981c-54.918,0-109.837-0.012-164.756,0.019c-4.404,0.003-8.784,0.021-13.103-1.024
		c-14.47-3.501-23.818-12.489-28.658-26.457c-1.519-4.382-1.679-8.858-1.478-13.376c0.54-12.096,1.21-24.185,1.777-36.277
		c0.518-11.059,0.966-22.117,1.449-33.178c0.477-10.896,0.96-21.797,1.438-32.693c0.483-11.02,0.96-22.038,1.442-33.059
		c0.479-10.938,0.959-21.875,1.438-32.813c0.562-12.855,1.124-25.71,1.681-38.565c0.403-9.302,0.801-18.605,1.199-27.907
		c0.481-11.259,0.958-22.518,1.443-33.776c0.394-9.142,0.792-18.285,1.199-27.427c0.458-10.299,0.869-20.601,1.411-30.896
		c0.515-9.787,3.56-18.618,10.248-26c5.236-5.78,11.808-9.256,19.34-10.807c3.731-0.769,7.598-1.21,11.405-1.229
		c23.078-0.11,46.156-0.05,69.233-0.068c1.071-0.001,2.175-0.071,3.206-0.333c2.86-0.726,4.326-2.81,5.088-5.522
		c1.134-4.034,2.128-8.115,3.461-12.083c7.458-22.211,22.226-37.493,43.975-46.102c6.038-2.39,12.269-4.071,18.65-5.221
		c0.196-0.035,0.396-0.056,0.595-0.071c16.265-1.208,31.46,2.521,45.615,10.37c12.565,6.968,21.676,17.351,28.311,30.012
		c3.963,7.564,6.339,15.667,8.38,23.899c0.896,3.612,2.814,5.064,6.521,5.064c21.319,0.001,42.641-0.026,63.958,0.021
		c4.476,0.01,8.969,0.054,13.415,0.491c15.446,1.518,26.069,9.592,31.778,24.03c2.207,5.578,2.67,11.478,2.914,17.407
		c0.442,10.78,0.935,21.558,1.396,32.336c0.366,8.544,0.716,17.088,1.079,25.632c0.479,11.178,0.957,22.357,1.44,33.535
		c0.477,11.019,0.959,22.038,1.438,33.058c0.48,11.058,0.958,22.116,1.441,33.173c0.477,10.898,0.952,21.799,1.438,32.695
		c0.475,10.579,0.964,21.156,1.438,31.735c0.487,10.896,0.935,21.798,1.45,32.692c0.509,10.736,1.063,21.474,1.629,32.206
		c0.516,9.776,1.174,19.546,1.569,29.327c0.198,4.866,0.205,9.771-0.193,14.619c-0.211,2.555-1.389,5.059-2.296,7.521
		c-4.654,12.618-13.938,20.166-26.595,23.813c-2.647,0.764-5.498,1.172-8.256,1.175C387.08,485.998,330.563,485.981,274.042,485.981
		z M223.033,105.958c0,0.633,0,1.144,0,1.655c0,23.159,0.005,46.318-0.009,69.477c-0.001,1.797-0.104,3.595-0.218,5.389
		c-0.397,6.256-5.342,11.237-12.412,11.116c-7.047-0.121-12.018-5.169-12.075-11.994c-0.082-9.677-0.135-19.354-0.162-29.031
		c-0.027-9.64-0.015-19.279-0.001-28.919c0.005-3.718,0.084-7.436,0.087-11.153c0.002-2.239-0.619-4.25-2.77-5.329
		c-1.165-0.584-2.45-1.137-3.722-1.254c-3.096-0.285-6.215-0.411-9.326-0.416c-20.999-0.033-41.999-0.045-62.997,0.028
		c-1.998,0.007-4.102,0.354-5.97,1.045c-5.302,1.963-7.426,6.316-7.779,11.614c-0.422,6.338-0.625,12.69-0.908,19.037
		c-0.486,10.898-0.961,21.797-1.439,32.695c-0.481,10.979-0.959,21.957-1.441,32.935c-0.479,10.898-0.958,21.797-1.441,32.695
		c-0.476,10.699-0.964,21.396-1.437,32.097c-0.488,11.059-0.96,22.115-1.443,33.174c-0.477,10.938-0.955,21.878-1.44,32.815
		c-0.475,10.698-0.961,21.396-1.438,32.095c-0.483,10.818-0.97,21.639-1.438,32.456c-0.456,10.54-0.914,21.08-1.324,31.621
		c-0.245,6.31-0.561,12.619-0.55,18.93c0.01,6.107,3.8,10.445,9.792,11.567c1.951,0.365,3.967,0.535,5.954,0.535
		c110.156,0.025,220.312,0.023,330.468,0.014c1.996,0,3.995-0.076,5.988-0.2c7.063-0.438,11.68-4.968,12.011-12.016
		c0.158-3.382-0.028-6.785-0.17-10.175c-0.533-12.734-1.112-25.469-1.674-38.203c-0.479-10.857-0.963-21.717-1.438-32.574
		c-0.484-11.14-0.96-22.276-1.441-33.416c-0.479-10.938-0.955-21.877-1.439-32.814c-0.558-12.614-1.122-25.229-1.685-37.846
		c-0.479-10.696-0.957-21.396-1.435-32.094c-0.563-12.654-1.118-25.309-1.685-37.963c-0.476-10.659-0.966-21.316-1.435-31.975
		c-0.491-11.178-0.924-22.359-1.471-33.534c-0.203-4.144-0.481-8.3-1.044-12.408c-0.686-5.02-3.634-8.296-8.628-9.397
		c-2.284-0.504-4.668-0.772-7.007-0.779c-20.56-0.059-41.119-0.043-61.678-0.023c-2.717,0.002-5.437,0.113-8.148,0.244
		c-2.256,0.109-4.506,0.324-6.85,0.499c0,0.607,0.001,1.082,0,1.556c-0.021,23.719-0.029,47.437-0.082,71.155
		c-0.004,1.666-0.188,3.361-0.533,4.991c-0.979,4.613-3.538,7.876-8.264,9.161c-4.772,1.297-9.064,0.563-12.545-3.13
		c-2.764-2.931-3.596-6.603-3.597-10.512c-0.004-23.919-0.002-47.838-0.002-71.758c0-0.542,0-1.084,0-1.68
		C289.854,105.958,256.548,105.958,223.033,105.958z M323.23,80.092c-1.089-3.884-1.979-7.612-3.173-11.242
		c-7.388-22.488-31.686-35.913-55.142-31.969c-11.116,1.869-20.411,7.132-28.151,15.248c-5.434,5.697-9.518,12.136-10.736,20.069
		c-0.396,2.581-0.504,5.206-0.751,7.894C258.028,80.092,290.523,80.092,323.23,80.092z"/>
</g>
<g>
	<path fill="#FC9E07" d="M270.154,227.972c3.696,0,7.393,0,11.089,0c0.463,0.115,0.92,0.299,1.391,0.336
		c5.321,0.416,10.563,1.288,15.718,2.683c15.263,4.13,28.157,12.231,39.115,23.493c12.853,13.205,20.032,29.175,22.687,47.293
		c0.301,2.057,0.593,4.115,0.888,6.174c0,3.514,0,7.027,0,10.542c-0.123,0.493-0.291,0.979-0.365,1.481
		c-0.575,3.918-0.91,7.887-1.733,11.75c-3.728,17.432-12.604,31.982-25.447,44.135c-13.335,12.613-29.437,19.438-47.502,21.898
		c-1.646,0.227-3.285,0.477-4.929,0.713c-3.574,0-7.149,0-10.727,0c-0.452-0.124-0.9-0.319-1.36-0.358
		c-4.56-0.395-9.075-1.046-13.526-2.121c-16.746-4.046-30.751-12.771-42.473-25.214c-12.431-13.194-19.195-29.092-21.716-46.913
		c-0.236-1.671-0.48-3.339-0.721-5.007c0-3.758,0-7.516,0-11.271c0.116-0.425,0.305-0.843,0.338-1.273
		c0.369-4.836,1.114-9.61,2.306-14.313c4.087-16.107,12.536-29.652,24.453-41.075c12.94-12.404,28.563-19.309,46.149-22.042
		C265.904,228.552,268.031,228.273,270.154,227.972z M315.163,260.132c-24.649-19.194-65.187-18.718-89.88,10.336
		c-22.938,26.99-18.155,62.948-2.42,82.206C253.624,321.833,284.381,290.993,315.163,260.132z M237.002,366.654
		c23.215,17.938,63.012,18.9,88.389-9.735c24.013-27.094,18.957-63.808,3.704-82.519
		C298.404,305.145,267.716,335.887,237.002,366.654z"/>
</g>
</svg>
