<?xml version="1.0" encoding="utf-8"?>
<!-- Generator: Adobe Illustrator 16.0.0, SVG Export Plug-In . SVG Version: 6.00 Build 0)  -->
<!DOCTYPE svg PUBLIC "-//W3C//DTD SVG 1.1//EN" "http://www.w3.org/Graphics/SVG/1.1/DTD/svg11.dtd">
<svg version="1.1" id="Layer_1" xmlns="http://www.w3.org/2000/svg" xmlns:xlink="http://www.w3.org/1999/xlink" x="0px" y="0px"
	 width="150px" height="150px" viewBox="0 0 150 150" enable-background="new 0 0 150 150" xml:space="preserve">
<g>
	<path fill-rule="evenodd" clip-rule="evenodd" fill="#FDFEFF" d="M75.668,6.581c11.449,0.107,22.605,1.746,33.041,6.735
		c11.816,5.65,21.507,13.722,27.93,25.329c4.3,7.771,6.436,16.182,7.119,25.002c0.813,10.49-0.802,20.548-5.464,30.017
		c-7.455,15.145-19.292,25.377-35.171,30.977c-7.735,2.728-15.708,4.165-23.916,4.404c-8.031,0.234-15.949-0.457-23.756-2.393
		c-1.774-0.44-3.462-0.173-5.049,0.832c-7.213,4.568-14.446,9.106-21.672,13.653c-0.913,0.574-1.819,1.175-2.933,1.281
		c-3.017,0.288-5.402-2.207-4.956-5.281c0.544-3.753,1.191-7.491,1.777-11.237c0.691-4.418,1.352-8.84,2.056-13.256
		c0.305-1.916-0.24-3.498-1.523-4.945C16.098,99.75,11.253,90.669,9.184,80.186c-1.681-8.514-1.375-17.008,0.368-25.465
		C11.659,44.5,16.005,35.372,23.22,27.752c9.416-9.945,21.019-16.074,34.259-19.228c2.171-0.517,4.385-0.887,6.596-1.195
		C67.917,6.793,71.784,6.539,75.668,6.581z M31.417,128.659c0.378-0.215,0.515-0.285,0.644-0.366
		c5.296-3.347,10.643-6.616,15.863-10.078c2.358-1.563,4.609-1.902,7.338-1.124c15.756,4.493,31.373,4.259,46.733-1.798
		c9.161-3.613,17.184-8.869,23.035-16.93c8.3-11.434,11.168-24.334,9.321-38.215c-1.724-12.96-7.802-23.694-18.158-31.682
		c-11.543-8.905-24.928-12.802-39.385-13.092c-9.25-0.185-18.145,1.743-26.761,5.074c-8.663,3.35-16.255,8.268-21.981,15.635
		c-11.532,14.836-13.573,31.343-7.97,48.987c2.418,7.616,6.848,14.013,12.654,19.466c1.462,1.373,2.037,3.001,1.696,4.973
		c-0.279,1.612-0.545,3.228-0.799,4.845C32.912,119.037,32.186,123.724,31.417,128.659z"/>
	<path fill-rule="evenodd" clip-rule="evenodd" fill="#FDFEFF" d="M76.289,47.346c7.354,0,14.709-0.001,22.064,0.001
		c2.313,0,4.629-0.048,6.94,0.035c2.308,0.083,4.106,1.786,4.303,3.907c0.22,2.365-1.1,4.379-3.28,4.913
		c-0.691,0.17-1.422,0.254-2.135,0.254c-18.746,0.013-37.493,0.022-56.239,0c-3.786-0.004-6.071-3.068-4.793-6.293
		c0.719-1.816,2.414-2.814,4.84-2.816c7.674-0.006,15.349-0.002,23.023-0.002C72.771,47.346,74.53,47.346,76.289,47.346z"/>
	<path fill-rule="evenodd" clip-rule="evenodd" fill="#FDFEFF" d="M63.106,89.627c-5.16,0-10.319,0.014-15.478-0.005
		c-3.023-0.01-4.991-2.112-4.775-5.041c0.172-2.326,2.215-4.011,4.974-4.029c3.919-0.025,7.839-0.006,11.758-0.006
		c6.04,0,12.079-0.002,18.118,0.003c0.519,0,1.038,0.029,1.555,0.071c2.692,0.222,4.489,2.094,4.388,4.562
		c-0.106,2.59-1.972,4.397-4.702,4.434c-3.479,0.047-6.959,0.012-10.438,0.012C66.706,89.627,64.906,89.627,63.106,89.627z"/>
</g>
</svg>
