<?xml version="1.0" encoding="utf-8"?>
<!-- Generator: Adobe Illustrator 16.0.0, SVG Export Plug-In . SVG Version: 6.00 Build 0)  -->
<!DOCTYPE svg PUBLIC "-//W3C//DTD SVG 1.1//EN" "http://www.w3.org/Graphics/SVG/1.1/DTD/svg11.dtd">
<svg version="1.1" id="Layer_1" xmlns="http://www.w3.org/2000/svg" xmlns:xlink="http://www.w3.org/1999/xlink" x="0px" y="0px"
	 width="350px" height="350px" viewBox="0 0 350 350" enable-background="new 0 0 350 350" xml:space="preserve">
<g>
	<path fill="#367AFF" d="M6.37,184.916c0-1.729,0-3.458,0-5.188c0.694-1.567,1.313-3.174,2.097-4.695
		c1.59-3.085,4.11-5.406,6.532-7.827C64.74,117.501,114.46,67.774,164.18,18.045c1.971-1.971,3.876-4.008,5.831-5.996
		c2.471-2.512,5.217-4.645,8.488-6.028c0.856-0.362,1.731-0.682,2.599-1.021c1.729,0,3.459,0,5.188,0
		c1.534,0.659,3.125,1.215,4.592,2.001c2.211,1.185,4.313,2.569,6.499,3.799c11.068,6.225,22.357,6.931,33.874,1.271
		C235.877,9.798,239.945,6.439,245,5c1.65,0,3.301,0,4.952,0c3.834,1.149,7.108,3.216,9.942,6.022
		c6.312,6.247,12.674,12.441,18.939,18.729c11.932,11.964,23.794,23.995,35.713,35.969c6.43,6.459,12.957,12.822,19.361,19.307
		c2.229,2.257,4.418,4.604,6.275,7.162c3.762,5.168,3.914,10.695,0.868,16.287c-0.86,1.582-1.898,3.067-2.852,4.601
		c-6.581,10.621-8.075,21.739-2.927,33.338c1.484,3.352,3.551,6.451,5.384,9.646c1.595,2.779,2.578,5.709,2.455,8.958
		c-0.167,4.377-2.195,7.942-5.134,10.949c-6.997,7.171-14.14,14.199-21.188,21.315c-2.171,2.188-4.35,4.314-7.719,5.04
		c10.495,9.245,18.602,19.928,22.884,33.163c4.267,13.182,5.226,26.595,2.226,40.195c-2.987,13.551-9.269,25.396-18.84,35.41
		c-13.394,14.012-29.785,22.068-49.178,23.188c-24.959,1.438-45.732-7.563-62.34-26.418c-0.387,2.18-1.469,3.834-2.909,5.271
		c-8.19,8.146-16.39,16.285-24.584,24.43c-2.182,2.168-4.767,3.545-7.825,4.015c-0.528,0.081-1.042,0.255-1.563,0.385
		c-0.55,0-1.1,0-1.65,0c-0.33-0.093-0.654-0.229-0.99-0.271c-2.569-0.325-4.967-1.135-7.164-2.516
		c-1.729-1.085-3.43-2.218-5.19-3.246c-7.189-4.217-14.873-5.99-23.176-4.578c-5.891,1.004-11.31,3.125-16.167,6.678
		c-7.489,5.479-15.513,4.91-22.209-1.504c-2.242-2.146-4.458-4.32-6.648-6.52c-6.268-6.289-12.491-12.622-18.78-18.89
		c-8.709-8.681-17.485-17.288-26.185-25.979c-7.786-7.771-15.469-15.646-23.272-23.4c-3.866-3.844-7.589-7.729-9.147-13.151
		c0-1.647,0-3.303,0-4.953c1.042-3.438,2.757-6.551,4.707-9.547c0.385-0.592,0.733-1.207,1.081-1.819
		c6.269-11.065,6.961-22.351,1.272-33.857C11.181,193.854,7.946,189.818,6.37,184.916z M184.462,25.776
		C131.963,78.275,79.56,130.678,27.059,183.18c3.419,4.176,5.332,9.299,7.042,14.551c2.244,6.896,3.209,13.936,2.439,21.127
		c-0.344,3.22-1.298,6.369-1.932,9.558c-1.055,5.31-3.078,10.196-6.132,14.668c-0.547,0.801-1.035,1.646-1.436,2.278
		c12.658,12.75,25.18,25.396,37.736,38.005c12.576,12.631,25.186,25.227,37.617,37.675c21.121-12.725,42.005-13.114,63.048,0.021
		c0.079-0.072,0.285-0.246,0.478-0.435c6.837-6.661,13.703-13.295,20.499-19.996c2.734-2.694,5.794-4.261,9.955-3.47
		c-6.457-11.122-9.891-22.936-10.117-35.684c-0.645,1.934-1.677,3.498-3.119,4.838c-2.215,2.06-4.378,4.173-6.559,6.27
		c-2.771,2.666-5.494,5.348-8.714,7.535c-8.189,5.563-17.067,8.089-26.964,6.904c-7.698-0.92-14.646-3.59-20.401-8.851
		c-4.492-4.104-8.816-8.397-13.124-12.698c-7.953-7.938-15.834-15.949-23.758-23.914c-2.271-2.28-4.647-4.461-6.874-6.785
		c-2.058-2.146-4.288-4.229-5.891-6.696c-2.494-3.839-4.6-7.938-6.723-12.011c-2.173-4.16-3.2-8.682-3.511-13.346
		c-0.632-9.441,2.498-17.646,8.66-24.66c3.599-4.097,7.507-7.928,11.366-11.791c27.967-27.998,55.953-55.976,83.94-83.952
		c4.363-4.361,8.746-8.702,13.15-13.019c6.4-6.273,14.138-9.923,22.994-10.794c3.254-0.321,6.656,0.305,9.928,0.882
		c6.477,1.144,12.147,4.232,17.277,8.211c2.678,2.081,4.971,4.664,7.397,7.06c6.541,6.454,13.09,12.901,19.585,19.404
		c7.381,7.395,14.689,14.861,22.059,22.272c5.654,5.69,9.588,12.276,10.826,20.32c0.824,5.333,1.479,10.635,0.124,16.004
		c-1.774,7.059-4.712,13.462-9.922,18.678c-2.248,2.251-4.498,4.498-6.747,6.748c-2.725,2.725-5.122,5.893-9.255,6.739
		c12.726,0.214,24.665,3.178,35.791,9.519c0.055-0.933,0.04-1.717,0.151-2.479c0.471-3.151,2.3-5.55,4.459-7.716
		c6.438-6.452,12.904-12.877,19.358-19.316c0.294-0.292,0.572-0.602,0.839-0.885c-11.448-15.153-14.462-41.883-0.053-62.667
		c-0.118-0.138-0.23-0.296-0.37-0.431c-6.979-6.907-13.979-13.799-20.94-20.722c-6.52-6.481-13.01-12.99-19.502-19.496
		c-7.219-7.229-14.426-14.469-21.639-21.705c-4.24-4.256-8.494-8.499-12.703-12.786c-0.604-0.619-0.992-0.331-1.492,0.012
		c-8.51,5.805-18.002,8.556-28.211,9.043c-8.487,0.405-16.697-0.841-24.402-4.548C190.186,29.156,187.244,27.325,184.462,25.776z
		 M258.857,184.766c-0.365-0.115-0.732-0.219-1.094-0.339c-3.703-1.216-6.734-4.94-6.965-8.692c-0.197-3.283,1.245-5.935,3.48-8.199
		c2.813-2.854,5.65-5.686,8.503-8.504c2.456-2.429,4.663-5.031,5.546-8.464c1.931-7.503-0.328-14.106-4.898-19.925
		c-2.56-3.252-5.729-6.027-8.68-8.965c-6.982-6.959-14.02-13.871-20.994-20.838c-5.027-5.025-10.063-10.051-14.979-15.186
		c-3.775-3.942-8.396-6.156-13.709-6.541c-6.142-0.443-11.465,1.729-15.854,6.146c-7.394,7.444-14.829,14.844-22.248,22.263
		c-16.422,16.422-32.844,32.844-49.266,49.266c-10.504,10.505-21.005,21.012-31.514,31.511c-3.58,3.576-5.497,7.914-5.756,12.933
		c-0.333,6.433,2.082,11.791,6.686,16.219c1.076,1.035,2.185,2.035,3.239,3.091c13.86,13.873,27.726,27.741,41.558,41.644
		c3.102,3.116,6.91,4.813,11.136,5.347c6.458,0.813,12.222-0.905,16.907-5.632c2.353-2.371,4.631-4.814,7.059-7.106
		c1.674-1.581,3.388-3.224,5.357-4.364c5.248-3.048,11.429-0.619,13.538,5.102c0.096,0.259,0.23,0.502,0.498,1.076
		c0.9-19.854,8.533-36.307,22.322-50.01C222.6,192.807,239.285,185.596,258.857,184.766z M261.286,204.527
		c-27.05-0.485-55.085,20.736-55.343,54.432c-0.244,31.698,24.223,55.441,54.949,56.12c30.506,0.674,55.649-26.29,55.527-54.774
		C316.274,226.068,287.648,204,261.286,204.527z"/>
	<path fill="#367AFF" d="M255.602,271.182c-1.938,0-3.777,0.014-5.617-0.004c-6.207-0.058-12.414-0.084-18.614-0.212
		c-3.371-0.071-6.192-1.358-7.606-4.604c-1.32-3.027-1.216-6.078,0.94-8.766c1.604-1.998,3.79-3.05,6.366-3.068
		c7.736-0.057,15.477-0.063,23.215-0.088c0.467-0.004,0.934,0,1.523,0c0-0.989,0-1.916,0-2.842c0.016-7.266-0.008-14.531,0.058-21.8
		c0.028-3.298,1.522-5.858,4.502-7.319c2.938-1.44,5.899-1.1,8.646,0.615c1.918,1.198,2.955,3.086,3.096,5.301
		c0.242,3.877,0.387,7.766,0.424,11.647c0.043,4.239-0.084,8.481-0.135,12.722c-0.006,0.461,0,0.922,0,1.596
		c2.313,0,4.502-0.01,6.688,0.002c5.771,0.033,11.548,0.07,17.322,0.117c4.621,0.041,7.79,2.557,8.74,6.563
		c1.399,5.899-4.207,10.149-8.594,10.083c-7.58-0.122-15.162-0.104-22.746-0.143c-0.429-0.002-0.854,0-1.416,0
		c0,0.863,0,1.67,0,2.477c0,7.506,0.021,15.012-0.008,22.518c-0.013,3.892-3.521,7.76-7.154,7.979
		c-4.803,0.289-8.557-2.451-9.125-6.813c-0.254-1.938-0.263-3.914-0.287-5.875c-0.076-6.4-0.112-12.805-0.17-19.207
		C255.646,271.825,255.625,271.593,255.602,271.182z"/>
</g>
</svg>
