<?xml version="1.0" encoding="utf-8"?>
<!-- Generator: Adobe Illustrator 16.0.0, SVG Export Plug-In . SVG Version: 6.00 Build 0)  -->
<!DOCTYPE svg PUBLIC "-//W3C//DTD SVG 1.1//EN" "http://www.w3.org/Graphics/SVG/1.1/DTD/svg11.dtd">
<svg version="1.1" id="Layer_1" xmlns="http://www.w3.org/2000/svg" xmlns:xlink="http://www.w3.org/1999/xlink" x="0px" y="0px"
	 width="524px" height="550px" viewBox="0 0 524 550" enable-background="new 0 0 524 550" xml:space="preserve">
<g>
	<path fill="#8E8E8E" d="M5.016,191.302c8.23,0,16.36-0.005,24.49,0.001c38.095,0.026,76.19-0.013,114.284,0.176
		c4.538,0.023,5.902-1.207,5.876-5.849c-0.194-34.27-0.105-68.541-0.104-102.811c0-2.049,0-4.1,0-6.501
		c123.118,0,245.682,0,368.922,0c0.097,1.755,0.28,3.572,0.281,5.389c0.017,72.543-0.026,145.086,0.109,217.629
		c0.009,4.543-1.104,6.085-5.795,5.9c-9.188-0.359-18.401-0.105-28.196-0.105c0,23.461,0,46.497,0,70.572
		c-2.09-1.402-3.356-2.131-4.489-3.03c-26.519-21.142-53.073-42.235-79.468-63.532c-3.626-2.927-7.193-4.375-11.82-4.076
		c-4.818,0.313-9.675,0.068-15.068,0.068c0,38.49,0,76.496,0,115.313c-2.558,0-4.566,0-6.575,0
		c-78.283,0.01-156.565-0.017-234.848,0.165c-2.982,0.007-6.503,1.296-8.857,3.149c-26.626,21.005-53.073,42.238-79.574,63.403
		c-1.458,1.164-2.975,2.255-5.589,4.229c0-24.212,0-47.316,0-70.827c-11.648,0-22.39,0-33.579,0
		C5.016,344.221,5.016,268.296,5.016,191.302z M168.454,286.139c2.898,0,5.3,0,7.7,0c73.591-0.002,147.184-0.045,220.774,0.137
		c3.14,0.009,6.824,1.375,9.313,3.315c17.831,13.903,35.412,28.124,53.082,42.231c1.829,1.459,3.727,2.834,6.794,5.156
		c0-17.809,0-34.154,0-51.153c11.656,0,22.507,0,33.145,0c0-64.062,0-127.444,0-190.808c-110.538,0-220.558,0-330.807,0
		C168.454,158.707,168.454,221.977,168.454,286.139z M149.454,305.131c0-31.904,0-63.107,0-94.493c-42.333,0-83.975,0-125.903,0
		c0,63.723,0,127.096,0,191.155c11.346,0,22.368,0,34.003,0c0,16.882,0,33.089,0,50.271c2.499-1.867,4.152-3.035,5.733-4.297
		c17.812-14.199,35.648-28.369,53.379-42.674c2.846-2.296,5.65-3.384,9.399-3.378c74.268,0.11,148.539,0.03,222.806,0.192
		c5.099,0.012,6.364-1.499,6.323-6.442c-0.229-27.651-0.107-55.309-0.11-82.965c-0.001-7.339-0.011-7.362-7.326-7.362
		c-63.658-0.011-127.319-0.009-190.978-0.01C154.566,305.131,152.353,305.131,149.454,305.131z"/>
	<path fill="#8E8E8E" d="M355.413,235.026c6.17,0,11.979,0,18.124,0c0,7.558,0,14.944,0,22.745c-5.944,0-11.9,0-18.124,0
		C355.413,250.068,355.413,242.703,355.413,235.026z"/>
	<path fill="#8E8E8E" d="M233.531,209.876c0-6.101,0-11.943,0-18.355c5.825,0,11.504-0.135,17.164,0.151
		c0.821,0.041,2.14,2.071,2.199,3.234c0.25,4.837,0.105,9.696,0.105,14.97C246.457,209.876,240.306,209.876,233.531,209.876z"/>
	<path fill="#8E8E8E" d="M274.366,191.68c6.183,0,12.333,0,18.856,0c0,6.163,0,11.985,0,18.22c-6.142,0-12.285,0-18.856,0
		C274.366,203.983,274.366,198.029,274.366,191.68z"/>
	<path fill="#8E8E8E" d="M334.021,191.683c0,6.431,0,12.116,0,18.212c-6.249,0-12.395,0-19.013,0c0-5.901,0-11.855,0-18.212
		C321.195,191.683,327.358,191.683,334.021,191.683z"/>
	<path fill="#8E8E8E" d="M192.795,209.965c0-5.586-0.143-10.906,0.144-16.201c0.047-0.869,1.95-2.281,3.051-2.335
		c4.485-0.225,9.004-0.192,13.48,0.148c1.066,0.081,2.824,1.667,2.879,2.64c0.289,5.127,0.135,10.28,0.135,15.748
		C205.703,209.965,199.588,209.965,192.795,209.965z"/>
	<path fill="#8E8E8E" d="M355.138,210.018c0-5.412-0.184-10.561,0.153-15.676c0.068-1.035,2.063-2.692,3.253-2.771
		c4.813-0.317,9.66-0.131,14.909-0.131c0,6.427,0,12.359,0,18.578C367.477,210.018,361.676,210.018,355.138,210.018z"/>
	<path fill="#8E8E8E" d="M46.493,345.506c0-6.172,0-11.885,0-18.172c1.974-0.127,3.809-0.345,5.644-0.346
		c90.435-0.018,180.871,0.027,271.307-0.127c5.006-0.01,6.36,1.603,5.949,6.242c-0.351,3.948-0.07,7.955-0.07,12.4
		C234.916,345.506,140.967,345.506,46.493,345.506z"/>
	<path fill="#8E8E8E" d="M329.326,385.486c-94.821,0-188.538,0-282.632,0c0-6.038,0-11.846,0-18.223
		c2.059-0.139,4.065-0.388,6.073-0.388c89.939-0.021,179.879-0.021,269.819-0.013c6.759,0,6.755,0.021,6.741,6.904
		C329.32,377.546,329.326,381.323,329.326,385.486z"/>
	<path fill="#8E8E8E" d="M46.501,306.197c0-6.745,0-12.454,0-18.613c1.655-0.132,3.16-0.355,4.666-0.357
		c24.678-0.021,49.358,0.064,74.034-0.098c4.026-0.025,5.385,1.002,5.361,5.23c-0.083,13.879,0.093,13.855-13.896,13.845
		c-21.376-0.021-42.752-0.007-64.128-0.007C50.669,306.197,48.802,306.197,46.501,306.197z"/>
	<path fill="#8E8E8E" d="M130.421,247.831c0,5.489,0.286,10.69-0.235,15.811c-0.107,1.056-3.214,2.569-4.949,2.583
		c-20.876,0.181-41.755,0.119-62.632,0.12c-5.181,0.001-10.363,0-15.913,0c0-6.464,0-12.293,0-18.514
		C74.325,247.831,101.906,247.831,130.421,247.831z"/>
</g>
</svg>
