<?xml version="1.0" encoding="utf-8"?>
<!-- Generator: Adobe Illustrator 16.0.0, SVG Export Plug-In . SVG Version: 6.00 Build 0)  -->
<!DOCTYPE svg PUBLIC "-//W3C//DTD SVG 1.1//EN" "http://www.w3.org/Graphics/SVG/1.1/DTD/svg11.dtd">
<svg version="1.1" id="Layer_1" xmlns="http://www.w3.org/2000/svg" xmlns:xlink="http://www.w3.org/1999/xlink" x="0px" y="0px"
	 width="524px" height="550px" viewBox="0 0 524 550" enable-background="new 0 0 524 550" xml:space="preserve">
<g>
	<g>
		<path fill="#8E8E8E" d="M198.038,524.668c-18.879-18.778-37.588-37.387-56.282-55.979c7.411-12.688,10.119-25.869,8.115-40.157
			c-1.851-13.192-7.924-24.105-17.08-33.366c-15.635-15.813-46.418-23.936-71.406-7.99c-18.743-18.75-37.438-37.451-56.077-56.099
			C109.872,226.644,214.721,121.923,319.649,17.124c18.235,18.417,36.798,37.157,55.424,55.963
			c-13.938,21.996-10.146,54.105,8.308,72.021c17.694,17.178,46.457,24.184,72.81,9.032c18.702,18.705,37.354,37.356,56.155,56.158
			c-0.18,0.198-0.602,0.709-1.064,1.175c-14.934,14.877-29.871,29.744-44.785,44.637c-1.456,1.455-2.868,2.987-4.079,4.645
			c-5.989,8.201-4.239,17.789,3.979,23.699c3.474,2.498,6.771,5.323,9.771,8.371c4.213,4.284,8.289,8.743,12.05,13.43
			c15.023,18.716,24.209,40.038,27.952,63.728c2.053,12.992,2.381,26.028,0.812,39.08c-2.043,17.016-7.253,33.063-15.456,48.074
			c-18.852,34.505-47.257,57.208-85.066,67.881c-16.797,4.74-34.001,5.85-51.394,4.065c-22.616-2.315-43.263-10.16-62.207-22.476
			c-9.107-5.927-16.936-13.511-24.539-21.247c-2.032-2.07-3.817-4.416-5.524-6.774c-3.019-4.167-6.806-6.974-12.015-7.671
			c-3.567-0.478-6.89,0.26-9.877,2.13c-2.025,1.271-3.984,2.742-5.672,4.428c-15.287,15.25-30.507,30.566-45.75,45.862
			C199.108,523.697,198.72,524.033,198.038,524.668z M241.794,393.586c-0.032-0.002-0.063-0.005-0.094-0.007
			c0-1.545-0.137-3.104,0.022-4.634c0.819-7.862,1.329-15.785,2.678-23.559c1.753-10.104,5.259-19.734,9.245-29.186
			c2.547-6.032,5.319-11.938,8.927-17.416c8.428-12.797,18.244-24.419,30.271-33.956c16.064-12.736,33.646-22.558,53.992-26.786
			c7.32-1.521,14.563-3.442,22.055-3.949c9.023-0.61,18.081-0.845,27.041,0.453c8.579,1.242,17.118,2.806,25.401,5.556
			c6.436,2.137,12.421,0.834,17.712-3.349c1.813-1.433,3.442-3.115,5.065-4.773c8.783-8.971,17.496-18.013,26.898-26.361
			c2.147-1.907,3.856-4.378,5.491-6.778c1.563-2.292,2.321-4.958,2.49-7.771c0.387-6.42-2.348-11.499-6.807-15.802
			c-3.525-3.402-7.102-6.761-10.716-10.07c-5.249-4.803-11.394-6.952-18.5-5.816c-2.367,0.378-4.659,1.291-7.029,1.551
			c-8.588,0.941-17.141,0.941-25.657-0.922c-21.547-4.714-38.499-16.012-50.423-34.687c-7.381-11.559-11.788-24.137-11.959-37.867
			c-0.09-6.926,0.673-13.923,1.72-20.787c1.284-8.438-1.001-15.318-7.438-20.774c-3.757-3.184-7.188-6.614-10.346-10.404
			c-5.209-6.261-13.562-7.559-20.474-3.253c-2.098,1.303-3.997,2.992-5.756,4.738c-7.32,7.276-14.528,14.665-21.826,21.966
			c-16.967,16.977-33.958,33.927-50.941,50.885c-14,13.981-28.011,27.952-42.004,41.941C142.719,219.884,94.603,268,46.496,316.126
			c-1.517,1.521-3.018,3.076-4.347,4.761c-5.671,7.188-5.194,15.602,1.167,22.162c3.172,3.271,6.262,6.633,9.527,9.811
			c2.334,2.271,4.756,4.5,7.396,6.395c3.233,2.316,7.036,3.463,10.997,2.749c6.536-1.177,13.092-1.743,19.723-2.049
			c5.729-0.269,11.333-0.026,16.901,1.259c18.028,4.158,33.216,13.006,44.785,27.583c8.496,10.704,13.957,22.8,15.978,36.408
			c1.377,9.271,1.534,18.417-0.777,27.626c-2.013,8.019,0.282,15.186,5.974,21.137c4.042,4.227,8.272,8.271,12.461,12.354
			c0.917,0.895,1.949,1.71,3.04,2.38c5.74,3.525,11.554,3.579,17.263-0.012c1.654-1.041,3.145-2.399,4.538-3.789
			c10.784-10.749,21.451-21.612,32.31-32.285c5.867-5.771,7.307-12.227,4.69-19.99c-2.943-8.732-4.754-17.764-5.685-26.938
			C242.037,401.672,241.999,397.62,241.794,393.586z M260.396,399.516c-0.327,15.847,4.715,33.47,12.784,48.485
			c25.441,47.368,80.78,72.544,133.271,60.396c66.801-15.454,103.073-80.276,90.669-140.229
			c-8.423-40.701-37.106-74.434-75.965-88.749c-21.543-7.937-43.622-8.896-66.044-4.567c-43.088,8.32-73.807,41.175-85.619,71.691
			C263.169,362.879,260.637,379.87,260.396,399.516z"/>
	</g>
	<g>
		<path fill="#8E8E8E" d="M318.642,192.979c-5.657,5.667-11.206,11.217-16.921,16.937c-1.468-1.514-2.656-2.796-3.902-4.016
			c-3.275-3.206-6.614-6.35-9.862-9.587c-2.765-2.752-5.403-5.626-8.153-8.391c-1.266-1.273-2.621-2.465-4.015-3.599
			c-1.517-1.232-1.642-1.597-0.153-2.87c5.069-4.35,9.75-9.073,14.124-14.117c1.724-1.982,2.302-1.77,3.935,0.354
			c1.08,1.408,2.479,2.572,3.746,3.84c1.694,1.703,3.41,3.392,5.102,5.103c5.079,5.136,10.147,10.278,15.225,15.418
			C318.057,192.353,318.345,192.666,318.642,192.979z"/>
		<path fill="#8E8E8E" d="M316.932,225.384c5.693-5.76,11.346-11.474,17.116-17.314c1.583,1.609,3.164,3.228,4.758,4.833
			c6.45,6.503,12.905,13.001,19.357,19.506c0.694,0.702,1.411,1.391,2.04,2.151c1.057,1.278,0.738,2.169-0.925,2.54
			c-3.146,0.699-6.298,1.349-9.449,2.013c-4.875,1.026-9.75,2.05-14.628,3.067c-0.663,0.138-1.242,0.246-1.864-0.382
			c-5.332-5.375-10.713-10.699-16.078-16.041C317.113,225.611,316.986,225.446,316.932,225.384z"/>
		<path fill="#8E8E8E" d="M237.362,145.656c5.664-5.611,11.308-11.203,17.119-16.96c1.661,1.707,2.95,3.063,4.275,4.388
			c3.367,3.36,6.758,6.698,10.122,10.061c0.753,0.754,1.394,1.625,2.175,2.344c1.036,0.957,2.127,1.864,3.254,2.711
			c2.25,1.691,2.332,2.522,0.303,4.435c-3.248,3.064-6.545,6.078-9.741,9.193c-1.413,1.375-2.596,2.983-3.958,4.416
			c-1.506,1.585-2.013,1.547-3.36-0.108c-3.555-4.371-7.685-8.173-11.758-12.039C243.061,151.509,240.469,148.779,237.362,145.656z"
			/>
	</g>
</g>
<g>
	<path fill="#8E8E8E" d="M383.168,372.614c1.776-1.679,3.537-3.267,5.213-4.938c10.978-10.951,21.935-21.921,32.896-32.882
		c1.708-1.71,1.71-1.709,3.385-0.034c3.826,3.825,7.653,7.649,11.475,11.479c1.148,1.149,1.165,1.292,0.038,2.418
		c-10.872,10.882-21.734,21.772-32.648,32.612c-1.248,1.239-2.796,2.182-4.205,3.258c-0.507,0.388-1.021,0.768-1.652,1.242
		c1.776,1.942,3.414,3.875,5.197,5.664c10.938,10.984,21.913,21.938,32.878,32.898c1.628,1.628,1.628,1.629-0.036,3.292
		c-3.798,3.798-7.592,7.596-11.393,11.39c-1.284,1.284-1.38,1.284-2.689-0.024c-11.078-11.074-22.148-22.158-33.237-33.226
		c-1.854-1.85-3.791-3.61-5.781-5.506c-1.18,1.736-2.291,3.41-3.44,5.058c-0.437,0.624-0.901,1.242-1.437,1.778
		c-10.523,10.545-21.063,21.076-31.599,31.609c-1.643,1.645-1.644,1.643-3.298-0.01c-3.738-3.739-7.479-7.479-11.219-11.222
		c-1.483-1.481-1.483-1.481,0.041-3.007c10.103-10.104,20.188-20.223,30.328-30.292c1.328-1.319,2.938-2.356,4.362-3.586
		c0.404-0.353,0.808-0.901,0.882-1.409c0.241-1.633,0.379-3.289,0.443-4.938c0.016-0.396-0.299-1.025-0.63-1.178
		c-2.367-1.076-4.187-2.809-5.99-4.621c-9.708-9.762-19.458-19.482-29.19-29.219c-1.756-1.754-1.753-1.756-0.022-3.486
		c3.771-3.77,7.534-7.539,11.308-11.305c1.263-1.258,1.375-1.262,2.599-0.039c10.852,10.848,21.714,21.679,32.526,32.562
		C379.994,368.693,381.486,370.663,383.168,372.614z"/>
</g>
</svg>
