<?xml version="1.0" encoding="utf-8"?>
<!-- Generator: Adobe Illustrator 16.0.0, SVG Export Plug-In . SVG Version: 6.00 Build 0)  -->
<!DOCTYPE svg PUBLIC "-//W3C//DTD SVG 1.1//EN" "http://www.w3.org/Graphics/SVG/1.1/DTD/svg11.dtd">
<svg version="1.1" id="Layer_1" xmlns="http://www.w3.org/2000/svg" xmlns:xlink="http://www.w3.org/1999/xlink" x="0px" y="0px"
	 width="224px" height="216.083px" viewBox="20.917 0 224 216.083" enable-background="new 20.917 0 224 216.083"
	 xml:space="preserve">
<path fill="#00D36E" d="M29.871,109.049C29.688,51.234,76.901,3.95,134.995,3.773c57.393-0.174,105.021,46.97,105.299,103.98
	c0.281,58.529-44.888,104.654-102.161,106.36C80.179,215.842,30.45,170.672,29.871,109.049z"/>
<path fill="#FFFFFF" d="M118.986,120.56c-0.786-0.747-1.236-1.148-1.66-1.572c-7.188-7.186-14.386-14.363-21.559-21.565
	c-2.5-2.518-5.45-4.078-9.019-4.251c-5.56-0.27-10.504,2.786-12.723,7.786c-2.281,5.143-1.23,10.681,3,14.929
	c11.67,11.734,23.373,23.438,35.122,35.104c1.047,1.047,2.374,1.972,3.755,2.476c3.794,1.378,6.966,0.085,9.737-2.695
	c21.588-21.617,43.198-43.216,64.802-64.824c0.471-0.475,0.935-0.956,1.361-1.467c6.475-7.799,2.1-19.63-7.887-21.333
	c-4.85-0.826-8.795,0.883-12.188,4.288c-17.073,17.098-34.168,34.173-51.247,51.269C119.971,119.22,119.564,119.842,118.986,120.56z
	"/>
</svg>
