<?xml version="1.0" encoding="utf-8"?>
<!-- Generator: Adobe Illustrator 16.0.0, SVG Export Plug-In . SVG Version: 6.00 Build 0)  -->
<!DOCTYPE svg PUBLIC "-//W3C//DTD SVG 1.1//EN" "http://www.w3.org/Graphics/SVG/1.1/DTD/svg11.dtd">
<svg version="1.1" id="Layer_1" xmlns="http://www.w3.org/2000/svg" xmlns:xlink="http://www.w3.org/1999/xlink" x="0px" y="0px"
	 width="524px" height="550px" viewBox="0 0 524 550" enable-background="new 0 0 524 550" xml:space="preserve">
<g>
	<g>
		<path fill="#8E8E8E" d="M198.038,524.668c-18.879-18.778-37.588-37.387-56.282-55.979c7.411-12.687,10.119-25.869,8.115-40.157
			c-1.851-13.192-7.924-24.105-17.08-33.366c-15.635-15.813-46.418-23.936-71.406-7.99c-18.743-18.75-37.438-37.451-56.077-56.099
			C109.872,226.644,214.721,121.923,319.649,17.124c18.236,18.417,36.798,37.157,55.424,55.963
			c-13.937,21.996-10.146,54.105,8.308,72.021c17.694,17.178,46.457,24.184,72.809,9.032c18.703,18.705,37.354,37.356,56.156,56.158
			c-0.18,0.198-0.602,0.709-1.065,1.175c-14.933,14.877-29.871,29.744-44.785,44.637c-1.456,1.455-2.868,2.987-4.079,4.645
			c-5.989,8.201-4.239,17.789,3.979,23.699c3.474,2.498,6.771,5.323,9.771,8.371c4.213,4.284,8.289,8.743,12.05,13.43
			c15.023,18.716,24.209,40.038,27.952,63.728c2.053,12.992,2.381,26.028,0.811,39.08c-2.042,17.015-7.252,33.062-15.456,48.074
			c-18.851,34.505-47.256,57.208-85.066,67.881c-16.797,4.74-34.001,5.849-51.394,4.065c-22.616-2.315-43.262-10.16-62.206-22.476
			c-9.108-5.926-16.936-13.51-24.539-21.247c-2.033-2.07-3.818-4.416-5.525-6.774c-3.018-4.167-6.805-6.974-12.015-7.671
			c-3.567-0.478-6.89,0.26-9.877,2.13c-2.025,1.271-3.984,2.742-5.672,4.428c-15.287,15.25-30.507,30.566-45.75,45.862
			C199.108,523.697,198.72,524.033,198.038,524.668z M241.794,393.586c-0.032-0.002-0.063-0.005-0.094-0.007
			c0-1.545-0.137-3.104,0.022-4.634c0.819-7.862,1.329-15.785,2.678-23.559c1.753-10.103,5.259-19.734,9.245-29.185
			c2.547-6.032,5.319-11.938,8.927-17.416c8.428-12.797,18.244-24.419,30.271-33.956c16.064-12.736,33.646-22.558,53.992-26.786
			c7.32-1.521,14.563-3.442,22.055-3.949c9.023-0.61,18.081-0.845,27.041,0.453c8.579,1.242,17.118,2.806,25.401,5.556
			c6.436,2.137,12.421,0.834,17.712-3.349c1.813-1.433,3.442-3.115,5.065-4.773c8.784-8.971,17.496-18.013,26.899-26.361
			c2.147-1.907,3.856-4.378,5.491-6.778c1.563-2.292,2.321-4.958,2.49-7.771c0.387-6.42-2.347-11.499-6.806-15.802
			c-3.526-3.402-7.102-6.761-10.716-10.07c-5.249-4.803-11.394-6.952-18.5-5.816c-2.367,0.378-4.659,1.291-7.029,1.551
			c-8.588,0.941-17.141,0.941-25.658-0.922c-21.547-4.714-38.499-16.012-50.423-34.687c-7.38-11.559-11.788-24.137-11.959-37.867
			c-0.089-6.926,0.673-13.923,1.72-20.787c1.284-8.438-1.001-15.318-7.437-20.774c-3.757-3.184-7.189-6.614-10.346-10.404
			c-5.209-6.261-13.561-7.559-20.474-3.253c-2.097,1.303-3.997,2.992-5.756,4.738c-7.32,7.276-14.528,14.665-21.826,21.966
			c-16.967,16.977-33.958,33.927-50.941,50.885c-14,13.981-28.011,27.952-42.004,41.941C142.719,219.884,94.603,268,46.496,316.126
			c-1.517,1.521-3.018,3.076-4.347,4.761c-5.671,7.188-5.194,15.602,1.167,22.162c3.172,3.271,6.262,6.633,9.527,9.811
			c2.334,2.271,4.756,4.5,7.396,6.394c3.233,2.317,7.036,3.463,10.997,2.749c6.536-1.177,13.092-1.743,19.723-2.049
			c5.729-0.268,11.333-0.026,16.901,1.259c18.028,4.158,33.216,13.006,44.785,27.583c8.496,10.704,13.957,22.8,15.978,36.408
			c1.377,9.271,1.534,18.417-0.777,27.626c-2.013,8.019,0.282,15.186,5.974,21.137c4.042,4.226,8.272,8.271,12.461,12.354
			c0.917,0.895,1.949,1.71,3.04,2.38c5.74,3.526,11.554,3.579,17.263-0.012c1.654-1.041,3.145-2.399,4.538-3.789
			c10.784-10.749,21.451-21.612,32.31-32.285c5.867-5.771,7.307-12.226,4.69-19.99c-2.943-8.732-4.754-17.764-5.685-26.937
			C242.037,401.672,241.999,397.62,241.794,393.586z M260.396,399.516c-0.327,15.846,4.715,33.469,12.784,48.485
			c25.441,47.368,80.78,72.544,133.271,60.396c66.801-15.455,103.073-80.277,90.669-140.229
			c-8.423-40.701-37.106-74.434-75.965-88.749c-21.543-7.937-43.622-8.896-66.044-4.567c-43.088,8.32-73.807,41.175-85.619,71.691
			C263.169,362.879,260.637,379.87,260.396,399.516z"/>
	</g>
	<g>
		<path fill="#8E8E8E" d="M318.642,192.979c-5.658,5.667-11.206,11.217-16.921,16.937c-1.468-1.514-2.656-2.796-3.902-4.016
			c-3.276-3.206-6.615-6.35-9.863-9.587c-2.764-2.752-5.403-5.626-8.153-8.391c-1.266-1.273-2.622-2.465-4.015-3.599
			c-1.516-1.232-1.641-1.597-0.153-2.87c5.069-4.35,9.75-9.073,14.124-14.117c1.723-1.982,2.301-1.77,3.934,0.354
			c1.08,1.408,2.479,2.572,3.746,3.84c1.695,1.703,3.41,3.392,5.102,5.103c5.079,5.136,10.148,10.278,15.225,15.418
			C318.057,192.353,318.345,192.666,318.642,192.979z"/>
		<path fill="#8E8E8E" d="M316.932,225.384c5.693-5.76,11.345-11.474,17.116-17.314c1.583,1.609,3.164,3.228,4.758,4.833
			c6.45,6.503,12.905,13.001,19.357,19.506c0.694,0.702,1.411,1.391,2.04,2.151c1.057,1.278,0.738,2.169-0.925,2.54
			c-3.146,0.699-6.298,1.349-9.449,2.013c-4.875,1.026-9.75,2.05-14.628,3.067c-0.663,0.138-1.242,0.246-1.864-0.382
			c-5.332-5.375-10.713-10.699-16.078-16.041C317.113,225.611,316.986,225.446,316.932,225.384z"/>
		<path fill="#8E8E8E" d="M237.362,145.656c5.664-5.611,11.308-11.203,17.119-16.96c1.661,1.707,2.95,3.063,4.275,4.388
			c3.367,3.36,6.758,6.698,10.122,10.061c0.753,0.754,1.394,1.625,2.175,2.344c1.036,0.957,2.127,1.864,3.254,2.711
			c2.25,1.691,2.332,2.522,0.303,4.435c-3.248,3.064-6.545,6.078-9.742,9.193c-1.413,1.375-2.596,2.983-3.958,4.416
			c-1.506,1.585-2.013,1.547-3.36-0.108c-3.555-4.371-7.685-8.173-11.758-12.039C243.061,151.509,240.469,148.779,237.362,145.656z"
			/>
	</g>
	<g>
		<path fill="#8E8E8E" d="M388.346,460.825c-6.479,0-13.067,0-19.831,0c0-0.697,0-1.155,0-1.611c0-14.668-0.001-29.337,0.001-44.005
			c0-2.567,0.093-5.141-0.021-7.702c-0.043-0.999-0.449-2.012-0.831-2.962c-1.195-2.989-4.051-4.425-7.474-3.847
			c-0.591,0.098-1.188,0.172-1.784,0.173c-14.021,0.008-28.044,0.023-42.066-0.014c-2.058-0.008-4.108-0.319-6.171-0.396
			c-0.997-0.038-1.324-0.407-1.329-1.392c-0.018-4.085-0.114-8.169-0.163-12.251c-0.021-1.881-0.003-3.762-0.003-5.512
			c3.324,0,6.539-0.01,9.754,0c2.999,0.008,5.999,0.066,8.996,0.03c6.564-0.079,13.129-0.228,19.694-0.292
			c1.409-0.015,2.819,0.27,4.23,0.284c2.868,0.037,5.737-0.015,8.606-0.024c5.503-0.029,8.768-3.262,8.813-8.733
			c0.026-2.912,0.071-5.825,0.037-8.736c-0.074-6.563-0.22-13.128-0.281-19.692c-0.018-1.367,0.271-2.733,0.275-4.104
			c0.032-6.221,0.019-12.438,0.019-18.768c6.241,0,12.695,0,19.53,0c0,3.854,0.001,7.746,0,11.642
			c-0.001,13.767-0.01,27.526,0,41.293c0.003,3.644,3.957,7.324,8.001,7.328c2.049,0.002,4.097-0.455,6.146-0.463
			c14.667-0.044,29.336-0.021,44.004-0.021c0.506,0,1.012,0,1.781,0c0,6.724,0,13.308,0,20.106c-0.563,0-1.315,0.013-2.072-0.002
			c-4.512-0.089-9.024-0.23-13.537-0.266c-6.279-0.046-12.562,0.034-18.842-0.028c-3.691-0.037-7.384-0.344-11.077-0.356
			c-2.179-0.01-4.405,0.092-6.529,0.527c-4.773,0.979-7.722,4.55-8.059,9.741c-0.192,2.988-0.057,6.005-0.024,9.008
			c0.051,4.642,0.168,9.283,0.199,13.926c0.034,5.506,0.008,11.011,0.008,16.518C388.346,453.777,388.346,457.331,388.346,460.825z"
			/>
	</g>
</g>
</svg>
