<?xml version="1.0" encoding="utf-8"?>
<!-- Generator: Adobe Illustrator 16.0.0, SVG Export Plug-In . SVG Version: 6.00 Build 0)  -->
<!DOCTYPE svg PUBLIC "-//W3C//DTD SVG 1.1//EN" "http://www.w3.org/Graphics/SVG/1.1/DTD/svg11.dtd">
<svg version="1.1" id="Layer_1" xmlns="http://www.w3.org/2000/svg" xmlns:xlink="http://www.w3.org/1999/xlink" x="0px" y="0px"
	 width="250px" height="232.5px" viewBox="0 0 250 232.5" enable-background="new 0 0 250 232.5" xml:space="preserve">
<g>
	<path fill="#929293" d="M85.557,118.691c-26.911,0.047-49.163-22.094-49.235-48.99C36.25,41.918,58.168,19.768,85.805,19.698
		c26.969-0.068,49.462,22.308,49.475,49.216C135.292,96.622,113.294,118.645,85.557,118.691z M125.796,69.449
		c0.033-22.176-18-40.254-40.119-40.218c-22.045,0.036-39.918,17.99-39.896,40.078c0.023,22.124,17.791,39.968,39.903,40.063
		C107.627,109.468,125.763,91.419,125.796,69.449z"/>
	<g>
		<path fill-rule="evenodd" clip-rule="evenodd" fill="#929293" d="M9.841,24.13c2.235,1.072,2.894,3.012,2.919,5.301
			c0.004,0.4,0.001,0.8,0.001,1.2c0,57.794,0,115.589,0,173.383c0,0.552,0,1.104,0,1.797c0.537,0,0.962,0,1.389,0
			c75.872,0.013,151.745,0.026,227.617,0.039c0.359,0,0.72-0.002,1.079-0.015c3.443-0.127,4.775,0.714,6.035,3.815
			c0,0.24,0,0.479,0,0.72c-0.61,1.032-1.092,2.181-1.879,3.055c-0.498,0.554-1.451,0.697-2.201,1.025c-78.56,0-157.12,0-235.68,0
			c-2.384-0.3-4.319-1.161-4.8-3.84c0-60.8,0-121.6,0-182.4c0.456-1.807,1.175-3.412,3.12-4.08C8.241,24.13,9.041,24.13,9.841,24.13
			z"/>
		<path fill-rule="evenodd" clip-rule="evenodd" fill="#929293" d="M209.491,35.135c-2.502,0.734-4.823,1.431-7.153,2.094
			c-1.997,0.569-3.982,1.206-6.012,1.623c-3.189,0.655-5.712-2.165-4.79-5.272c0.509-1.713,1.843-2.523,3.472-2.974
			c6.35-1.757,12.696-3.528,19.046-5.284c1-0.276,2.004-0.556,3.023-0.744c2.219-0.41,3.285,0.2,3.99,2.382
			c0.798,2.468,1.499,4.969,2.229,7.458c1.371,4.674,2.752,9.345,4.094,14.027c0.892,3.11-0.586,5.568-3.379,5.718
			c-2.199,0.118-3.914-1.103-4.635-3.391c-0.839-2.666-1.616-5.35-2.425-8.025c-0.113-0.376-0.249-0.746-0.464-1.387
			c-0.313,0.524-0.523,0.867-0.724,1.216c-4.271,7.451-8.286,15.063-12.864,22.319c-9.783,15.508-21.518,29.408-35.498,41.338
			c-20.383,17.396-43.608,29.278-69.609,35.733c-12.5,3.103-25.186,4.807-38.077,4.839c-9.197,0.023-18.395,0.005-27.592,0.004
			c-0.877,0-1.763,0.071-2.63-0.022c-2.167-0.232-3.585-1.897-3.573-4.091c0.012-2.203,1.543-3.924,3.738-4.086
			c1.433-0.105,2.875-0.113,4.314-0.115c7.72-0.01,15.44,0.056,23.16-0.016c23.102-0.216,45.308-4.648,66.408-14.235
			c16.716-7.595,31.606-17.891,45.011-30.385c12.841-11.968,23.088-25.956,31.747-41.14c3.085-5.409,5.837-11.006,8.736-16.52
			C209.18,35.926,209.281,35.632,209.491,35.135z"/>
		<path fill-rule="evenodd" clip-rule="evenodd" fill="#929293" d="M209.241,101.906c-2.254,0-4.406-0.025-6.556,0.028
			c-0.304,0.008-0.77,0.346-0.863,0.628c-0.231,0.705-0.404,1.466-0.405,2.205c-0.032,31.074-0.041,62.149-0.065,93.224
			c-0.001,0.792-0.061,1.603-0.233,2.373c-0.458,2.044-1.891,3.245-3.748,3.245c-2.208,0.001-3.944-1.296-4.383-3.35
			c-0.157-0.735-0.217-1.506-0.217-2.26c-0.011-32.715-0.011-65.429,0-98.144c0-0.996,0.083-1.999,0.209-2.988
			c0.245-1.928,1.288-3.025,3.188-3.379c0.704-0.131,1.427-0.225,2.141-0.228c4.88-0.02,9.759-0.037,14.638-0.001
			c3.155,0.023,4.495,1.277,4.867,4.409c0.047,0.396,0.065,0.797,0.065,1.195c0.003,32.915,0.006,65.829-0.012,98.743
			c-0.001,0.989-0.116,2.005-0.364,2.96c-0.518,1.997-2.004,3.049-4.066,3.041c-1.903-0.007-3.31-1.061-3.842-2.998
			c-0.208-0.76-0.299-1.573-0.3-2.363c-0.02-9.838-0.009-19.677-0.014-29.515c-0.011-21.316-0.026-42.632-0.039-63.948
			C209.24,103.869,209.241,102.954,209.241,101.906z"/>
		<path fill-rule="evenodd" clip-rule="evenodd" fill="#929293" d="M161.521,143.277c-2.636,0-5.135,0-7.801,0
			c0,0.611,0,1.158,0,1.704c0,17.64,0.001,35.279-0.005,52.918c0,0.678-0.017,1.365-0.125,2.031
			c-0.372,2.283-1.883,3.688-3.892,3.679c-2.371-0.012-4.145-1.526-4.469-3.848c-0.071-0.512-0.067-1.037-0.067-1.557
			c-0.003-19.199-0.004-38.398-0.001-57.598c0.001-4.762,1.148-5.997,5.894-6.064c4.878-0.07,9.759-0.049,14.637,0.002
			c2.829,0.029,4.345,1.573,4.492,4.387c0.017,0.319,0.016,0.64,0.016,0.959c0.001,19.399,0.004,38.799-0.008,58.198
			c-0.001,0.752-0.045,1.527-0.226,2.253c-0.552,2.208-2.122,3.34-4.393,3.268c-2.025-0.065-3.402-1.285-3.834-3.458
			c-0.123-0.622-0.171-1.269-0.172-1.904c-0.022-17.839-0.034-35.678-0.047-53.517C161.521,144.264,161.521,143.796,161.521,143.277
			z"/>
		<path fill-rule="evenodd" clip-rule="evenodd" fill="#929293" d="M106.122,161.843c0,0.603,0,1.07,0,1.538
			c0,11.476,0.004,22.951-0.01,34.426c-0.001,0.833-0.045,1.687-0.229,2.494c-0.49,2.152-1.96,3.339-3.951,3.308
			c-2.204-0.034-3.798-1.342-4.218-3.521c-0.12-0.623-0.146-1.271-0.146-1.908c-0.008-13.154-0.006-26.31-0.005-39.464
			c0-0.359-0.001-0.721,0.03-1.078c0.245-2.878,1.52-4.261,4.412-4.313c5.355-0.099,10.714-0.095,16.07-0.002
			c2.879,0.049,4.071,1.291,4.432,4.155c0.065,0.514,0.09,1.035,0.091,1.554c0.005,13.074,0.007,26.149-0.005,39.224
			c0,0.674-0.057,1.364-0.205,2.02c-0.477,2.112-2.395,3.495-4.517,3.317c-2.146-0.179-3.642-1.698-3.815-3.914
			c-0.059-0.756-0.052-1.518-0.052-2.277c-0.003-11.235-0.001-22.471-0.002-33.706c0-1.801-0.161-1.909-2.014-1.862
			C110.079,161.88,108.169,161.843,106.122,161.843z"/>
		<path fill-rule="evenodd" clip-rule="evenodd" fill="#929293" d="M58.561,169.447c0,0.665,0,1.139,0,1.612
			c0,9.279,0.004,18.558-0.003,27.836c-0.001,2.241-1.031,3.893-2.749,4.482c-2.555,0.878-5.244-0.681-5.723-3.342
			c-0.099-0.546-0.12-1.112-0.12-1.669c-0.007-10.759-0.007-21.517,0.001-32.275c0-0.636,0.04-1.28,0.143-1.907
			c0.346-2.1,1.799-3.453,3.941-3.477c5.478-0.058,10.958-0.083,16.436-0.022c2.801,0.031,4.202,1.493,4.429,4.316
			c0.051,0.637,0.081,1.277,0.081,1.916c0.005,9.718,0.006,19.437,0,29.155c-0.001,1.118-0.03,2.238-0.087,3.354
			c-0.13,2.547-1.882,4.127-4.511,4.101c-2.312-0.024-3.884-1.58-3.897-4.112c-0.047-9.037-0.053-18.075-0.016-27.113
			c0.012-2.923,0.045-2.949-2.863-2.864C61.988,169.486,60.35,169.447,58.561,169.447z"/>
	</g>
	<path fill="#929293" d="M76.84,91.879c-5.94-0.824-6.982-2.05-6.971-7.748c0.02-10.132,0.015-20.266,0.021-30.398
		c0.002-6.159,0.682-6.977,6.638-7.968c1.724-6.312,6.555-6.833,9.443-3.109c1.718-0.773,3.328-2.034,5.006-2.127
		c2.551-0.145,3.985,1.612,4.642,4.171c0.317,1.24,1.185,2.646,2.226,3.344c6.472,4.338,8.546,12.085,4.697,18.788
		c-0.834,1.454-0.964,2.411-0.05,3.95c4.003,6.742,1.84,14.645-4.885,18.888c-0.815,0.514-1.845,1.444-1.907,2.25
		c-0.188,2.383-0.813,4.303-3.219,5.188c-2.554,0.941-4.397-0.282-5.517-1.597c-2.399,0.639-4.477,1.748-6.443,1.576
		C77.921,96.857,77.07,94.429,76.84,91.879z M85.643,64.031c0-0.017,0-0.032,0-0.048c1.485,0,2.978,0.098,4.453-0.021
		c2.767-0.225,4.327-1.88,4.192-4.38c-0.144-2.674-1.814-3.868-4.291-3.965c-2.768-0.108-5.556-0.183-8.307,0.05
		c-0.775,0.066-2.004,1.196-2.088,1.943c-0.727,6.414-0.662,6.423,5.745,6.422C85.445,64.031,85.544,64.031,85.643,64.031z
		 M79.537,73.683c0,2.443-0.119,4.6,0.08,6.728c0.052,0.562,1.066,1.447,1.669,1.476c3.172,0.137,6.363,0.194,9.528-0.011
		c2.495-0.161,4.08-1.665,3.974-4.297c-0.102-2.477-1.672-3.795-4.073-3.869C87.248,73.605,83.777,73.683,79.537,73.683z"/>
</g>
</svg>
