<?xml version="1.0" encoding="utf-8"?>
<!-- Generator: Adobe Illustrator 16.0.0, SVG Export Plug-In . SVG Version: 6.00 Build 0)  -->
<!DOCTYPE svg PUBLIC "-//W3C//DTD SVG 1.1//EN" "http://www.w3.org/Graphics/SVG/1.1/DTD/svg11.dtd">
<svg version="1.1" id="Layer_1" xmlns="http://www.w3.org/2000/svg" xmlns:xlink="http://www.w3.org/1999/xlink" x="0px" y="0px"
	 width="150px" height="150px" viewBox="0 0 150 150" enable-background="new 0 0 150 150" xml:space="preserve">
<g>
	<path fill-rule="evenodd" clip-rule="evenodd" fill="#FFFFFF" d="M18.98,138.438c-0.194,0-0.388,0-0.583,0
		c-0.031-0.114-0.129-0.074-0.204-0.085c-0.561-0.082-1.125-0.143-1.681-0.242C9.915,136.925,4.999,131.842,4,125.2
		c-0.065-0.438-0.036-0.896-0.233-1.311c0-26.521,0-53.039,0-79.558c0.142-0.062,0.078-0.192,0.089-0.291
		c0.241-2.295,0.853-4.479,2.02-6.479c2.441-4.183,6.174-6.551,10.831-7.518c3.951-0.821,7.929-1.516,11.887-2.309
		c4.92-0.985,9.833-2.007,14.747-3.025c5.535-1.146,11.067-2.306,16.6-3.459c5.629-1.174,11.258-2.348,16.887-3.519
		c5.806-1.208,11.61-2.413,17.416-3.616c3.208-0.664,6.416-1.327,9.626-1.977c0.657-0.133,1.322-0.21,1.983-0.313
		c0.914,0,1.829,0,2.744,0c0.521,0.169,1.071,0.165,1.603,0.269c7.704,1.509,12.002,8.075,12.351,14.902
		c0.113,2.203,0.945,3.727,3.054,4.479c0.142,0.051,0.282,0.112,0.423,0.17c1.954,0.796,3.648,1.961,5.029,3.564
		c2.27,2.636,3.262,5.77,3.469,9.178c0.133,2.169,0.092,4.346,0.092,6.52c0,4.821-0.005,9.642-0.021,14.463
		c-0.001,0.342,0.076,0.429,0.424,0.431c1.577,0.01,3.154-0.078,4.729,0.129c4.402,0.578,7.823,3.89,8.516,8.261
		c0.079,0.492,0.056,1.001,0.236,1.478c0,0.223,0,0.443,0,0.666c-0.159,0.113-0.08,0.281-0.08,0.42
		c-0.004,4.778-0.004,9.557,0,14.336c0,0.124-0.084,0.279,0.08,0.374c0,0.359,0,0.721,0,1.08c-0.181,0.507-0.141,1.047-0.246,1.566
		c-0.79,3.873-2.993,6.504-6.78,7.758c-2.082,0.69-4.238,0.536-6.376,0.532c-0.401-0.001-0.504,0.059-0.504,0.467
		c0.013,6.328,0.009,12.656,0.01,18.986c0,1.26-0.083,2.514-0.316,3.756c-0.599,3.197-1.972,6.002-4.29,8.301
		c-2.414,2.392-5.352,3.764-8.699,4.294c-0.491,0.077-1.001,0.057-1.479,0.229c-0.166,0-0.333,0-0.498,0
		c-0.104-0.143-0.254-0.081-0.382-0.081c-2.323-0.003-4.645-0.003-6.966,0c-0.13,0-0.28-0.056-0.384,0.081
		c-28.265,0-56.53,0-84.796,0c-0.104-0.137-0.255-0.081-0.385-0.081c-2.348-0.003-4.696-0.003-7.045,0
		C19.235,138.356,19.084,138.301,18.98,138.438z M69.195,38.678c-4.835,0-9.67,0-14.505,0c-11.694,0-23.388-0.003-35.081,0.003
		c-1.832,0.001-3.502,0.505-4.867,1.779c-1.43,1.334-2.031,3.04-2.059,4.953c-0.035,2.34-0.021,4.683-0.021,7.023
		c0.003,23.442,0.007,46.885,0.021,70.327c0.001,1.274,0.299,2.498,0.966,3.602c1.341,2.22,3.424,3.129,5.905,3.149
		c5.942,0.046,11.887,0.027,17.83,0.026c20.254-0.004,40.511-0.01,60.767-0.014c6.706-0.001,13.411-0.001,20.117,0.002
		c0.499,0.001,0.997-0.009,1.491-0.071c2.238-0.289,4.001-1.309,5.094-3.336c0.633-1.173,0.848-2.453,0.851-3.767
		c0.011-6.526,0.001-13.051,0.013-19.577c0-0.318-0.09-0.391-0.396-0.387c-1.772,0.023-3.545,0.032-5.317,0.033
		c-3.603,0.005-7.206,0.009-10.809-0.001c-1.536-0.005-3.077,0.027-4.607-0.083c-2.88-0.206-5.294-1.403-7.127-3.669
		c-1.578-1.952-2.241-4.227-2.245-6.708c-0.01-5.043-0.005-10.084,0-15.129c0-0.857,0.031-1.712,0.152-2.566
		c0.64-4.499,4.544-8.116,9.077-8.416c1.523-0.101,3.047-0.063,4.567-0.068c5.431-0.014,10.863,0.001,16.294,0.011
		c0.271,0.001,0.411-0.013,0.411-0.362c-0.013-6.554-0.002-13.107-0.014-19.661c-0.003-1.653-0.363-3.217-1.399-4.555
		c-1.396-1.801-3.309-2.536-5.522-2.536C102.254,38.674,85.724,38.678,69.195,38.678z M121.803,93.505
		c5.304,0,10.61,0.001,15.914-0.002c0.263,0,0.525-0.015,0.787-0.043c0.691-0.074,0.911-0.291,1.006-0.979
		c0.019-0.136,0.024-0.276,0.025-0.414c0.01-0.857,0.028-1.716,0.027-2.575c-0.006-4.419-0.018-8.834-0.026-13.253
		c-0.001-0.277-0.029-0.55-0.092-0.822c-0.075-0.336-0.264-0.531-0.599-0.605c-0.381-0.086-0.765-0.121-1.152-0.121
		c-10.596-0.002-21.192-0.002-31.788,0.002c-0.316,0-0.637,0.031-0.949,0.081c-0.5,0.081-0.669,0.277-0.771,0.782
		c-0.084,0.412-0.074,0.828-0.075,1.242c-0.004,4.778-0.005,9.557,0.001,14.335c0,0.511-0.021,1.024,0.077,1.533
		c0.077,0.407,0.283,0.672,0.71,0.753c0.329,0.061,0.659,0.087,0.99,0.087C111.192,93.506,116.498,93.505,121.803,93.505z
		 M63.222,29.625c0.002,0.021,0.005,0.042,0.007,0.062c0.09,0,0.18,0,0.27,0c16.704,0,33.408,0,50.111,0
		c0.041,0,0.084-0.005,0.125,0.001c0.246,0.037,0.306-0.067,0.272-0.303c-0.122-0.877-0.23-1.756-0.34-2.634
		c-0.541-4.27-4.026-6.767-8.21-5.893c-3.8,0.794-7.604,1.574-11.406,2.363c-5.02,1.041-10.04,2.085-15.061,3.125
		c-4.343,0.901-8.688,1.797-13.031,2.697C65.046,29.232,64.134,29.43,63.222,29.625z"/>
	<path fill-rule="evenodd" clip-rule="evenodd" fill="#FFFFFF" d="M148.5,91.468c-0.164-0.095-0.08-0.25-0.08-0.374
		c-0.004-4.779-0.004-9.558,0-14.336c0-0.139-0.079-0.307,0.08-0.42C148.5,81.381,148.5,86.425,148.5,91.468z"/>
	<path fill-rule="evenodd" clip-rule="evenodd" fill="#FFFFFF" d="M18.98,138.438c0.104-0.137,0.255-0.081,0.384-0.081
		c2.349-0.003,4.697-0.003,7.045,0c0.13,0,0.281-0.056,0.385,0.081C24.19,138.438,21.584,138.438,18.98,138.438z"/>
	<path fill-rule="evenodd" clip-rule="evenodd" fill="#FFFFFF" d="M111.59,138.438c0.104-0.137,0.254-0.081,0.384-0.081
		c2.321-0.003,4.643-0.003,6.966,0c0.128,0,0.278-0.062,0.382,0.081C116.743,138.438,114.166,138.438,111.59,138.438z"/>
	<path fill-rule="evenodd" clip-rule="evenodd" fill="#FFFFFF" d="M113.514,76.906c3.871-0.004,7.202,3.258,7.206,7.053
		c0.003,4.024-3.22,7.341-7.132,7.342c-3.981,0.001-7.312-3.298-7.277-7.206C106.349,80.136,109.579,76.91,113.514,76.906z"/>
</g>
</svg>
