<?xml version="1.0" encoding="utf-8"?>
<!-- Generator: Adobe Illustrator 16.0.0, SVG Export Plug-In . SVG Version: 6.00 Build 0)  -->
<!DOCTYPE svg PUBLIC "-//W3C//DTD SVG 1.1//EN" "http://www.w3.org/Graphics/SVG/1.1/DTD/svg11.dtd">
<svg version="1.1" id="Layer_1" xmlns="http://www.w3.org/2000/svg" xmlns:xlink="http://www.w3.org/1999/xlink" x="0px" y="0px"
	 width="550px" height="502px" viewBox="0 0 550 502" enable-background="new 0 0 550 502" xml:space="preserve">
<g>
	<path fill="#929293" d="M375.583,2.98c1.928,0,3.856,0,5.786,0c0.245,0.093,0.48,0.225,0.738,0.271
		c3.991,0.702,7.455,2.444,10.425,5.209c3.377,3.143,5.771,6.978,7.892,11.015c11.726,22.313,23.453,44.621,35.146,66.948
		c0.594,1.129,1.326,1.602,2.581,1.57c3.116-0.082,6.235-0.104,9.355-0.104c21.48-0.007,42.962-0.02,64.441,0.018
		c2.516,0.004,5.046,0.174,7.541,0.486c13.999,1.746,24.844,11.942,27.457,25.742c0.305,1.607,0.555,3.225,0.831,4.838
		c0,114.338,0,228.677,0,343.016c-0.092,0.438-0.221,0.872-0.271,1.313c-0.882,7.967-3.791,15.005-9.644,20.622
		c-6.713,6.44-14.938,9.176-24.072,9.178c-157.71,0.026-315.421,0.021-473.134-0.002c-2.513,0-5.046-0.188-7.539-0.515
		c-14.377-1.89-24.243-11.005-27.351-25.221c-0.428-1.957-0.69-3.949-1.029-5.927c0-113.974,0-227.942,0-341.916
		c0.274-1.661,0.51-3.329,0.831-4.979c1.866-9.583,6.534-17.254,15.258-22.088c5.967-3.306,12.477-4.542,19.205-4.551
		c33.79-0.045,67.579,0.007,101.368-0.078c2.465-0.007,4.99-0.621,7.376-1.328c3.111-0.922,6.113-2.218,9.161-3.355
		c64.481-24.06,128.958-48.129,193.451-72.166c6.521-2.431,13.104-4.702,19.685-6.975C372.521,3.504,374.075,3.313,375.583,2.98z
		 M519.126,355.382c-0.384-0.051-0.603-0.108-0.825-0.106c-8.858,0.024-17.722,0.084-26.582,0.086
		c-46.379,0.01-92.757,0.015-139.135-0.021c-2.606-0.001-5.243-0.144-7.811-0.56c-9.992-1.612-17.994-6.369-23.167-15.297
		c-3.479-6.002-4.647-12.602-4.655-19.439c-0.021-19.332-0.042-38.664,0.024-57.996c0.014-3.105,0.256-6.252,0.792-9.309
		c1.787-10.132,6.771-18.133,16.11-23.003c5.569-2.906,11.596-4.073,17.813-4.073c53.997-0.006,107.995,0.04,161.992,0.074
		c0.458,0,0.916,0.051,1.374,0.054c1.315,0.008,2.635,0.003,4.067,0.003c0-0.678,0.001-1.22-0.001-1.761
		c-0.045-12.121-0.122-24.242-0.128-36.362c-0.009-12.81,0.06-25.62,0.079-38.43c0.014-8.402,0.024-16.806-0.02-25.208
		c-0.007-1.55-0.256-3.103-0.44-4.648c-0.163-1.357-0.989-2.161-2.323-2.337c-1.45-0.192-2.914-0.399-4.371-0.4
		c-31.225-0.023-62.449-0.017-93.676-0.017c-125.953,0-251.91-0.002-377.864,0.018c-1.502,0-3.015,0.206-4.504,0.433
		c-1.033,0.157-1.758,0.85-1.925,1.906c-0.228,1.444-0.492,2.905-0.493,4.358c-0.025,50.97-0.021,101.94-0.021,152.911
		c0,60.383,0,120.767,0,181.148c0,6.184,0.84,7.011,7.079,7.02c5.556,0.007,11.111,0.041,16.667,0.042
		c151.348,0.002,302.696,0.002,454.043-0.011c1.419,0,2.845-0.107,4.254-0.282c2.271-0.28,3.042-1.049,3.323-3.314
		c0.17-1.361,0.265-2.743,0.264-4.117c-0.011-9.504-0.078-19.006-0.073-28.511c0.005-14.325,0.053-28.65,0.085-42.978
		c0.014-6.474,0.032-12.948,0.045-19.423C519.13,362.393,519.126,358.954,519.126,355.382z M519.054,254.296
		c-4.955,0-9.813-0.007-14.672,0.002c-16.25,0.026-32.503,0.079-48.754,0.085c-34.527,0.016-69.054,0-103.581,0.021
		c-1.271,0.002-2.553,0.205-3.813,0.404c-1.159,0.184-1.915,0.939-2.104,2.086c-0.222,1.352-0.421,2.727-0.423,4.092
		c-0.026,19.65-0.021,39.301-0.011,58.951c0.001,1.008,0.054,2.021,0.181,3.021c0.313,2.429,1.053,3.265,3.474,3.469
		c2.557,0.216,5.133,0.273,7.696,0.273c40.633,0.001,81.267-0.027,121.897-0.031c10.514,0,21.023,0.06,31.539,0.087
		c2.831,0.008,5.665,0.001,8.568,0.001C519.054,302.615,519.054,278.531,519.054,254.296z M375.021,32.835
		c-48.729,18.148-97.483,36.306-146.239,54.463c0.03,0.068,0.061,0.138,0.091,0.207c58.23,0,116.464,0,174.808,0
		C394.106,69.24,384.599,51.104,375.021,32.835z"/>
</g>
<path fill="#929293" d="M381.38,262.695c15.063-0.076,27.552,12.104,27.743,27.063c0.196,15.317-12.121,27.937-27.364,28.03
	c-15.283,0.097-27.771-12.357-27.729-27.648C354.068,275.098,366.349,262.773,381.38,262.695z M381.128,299.408
	c4.89,0.246,9.278-3.682,9.604-8.588c0.319-4.907-3.511-9.323-8.438-9.726c-5.144-0.42-9.713,3.666-9.887,8.845
	C372.241,294.873,376.188,299.161,381.128,299.408z"/>
</svg>
