<?xml version="1.0" encoding="utf-8"?>
<!-- Generator: Adobe Illustrator 16.0.0, SVG Export Plug-In . SVG Version: 6.00 Build 0)  -->
<!DOCTYPE svg PUBLIC "-//W3C//DTD SVG 1.1//EN" "http://www.w3.org/Graphics/SVG/1.1/DTD/svg11.dtd">
<svg version="1.1" id="Layer_1" xmlns="http://www.w3.org/2000/svg" xmlns:xlink="http://www.w3.org/1999/xlink" x="0px" y="0px"
	 width="150px" height="150px" viewBox="0 0 150 150" enable-background="new 0 0 150 150" xml:space="preserve">
<g>
	<path fill-rule="evenodd" clip-rule="evenodd" fill="#FFFFFF" d="M147.811,32.66c0,1.68,0,3.36,0,5.04
		c-0.455,0.368-0.334,0.93-0.441,1.401c-1.808,7.946-6.501,13.363-14.188,16.097c-3.478,1.237-7.132,1.174-10.769,1.247
		c-2.31,0.046-4.008-0.737-5.121-2.877c0,0.456,0,0.913,0,1.369c0,22.747,0.004,45.494-0.002,68.241
		c-0.002,9.595-6.047,16.114-15.548,16.796c-0.198-0.011-0.397-0.03-0.597-0.03c-17.932-0.002-35.864-0.002-53.796,0
		c-0.278,0-0.557,0.031-0.834,0.048c-1.396-0.1-2.778-0.293-4.125-0.685c-7.154-2.078-11.496-7.975-11.498-15.655
		c-0.006-22.997-0.002-45.994-0.002-68.991c0-0.379,0-0.758,0-1.269c-1.969,2.792-2.05,2.824-5.434,3.097
		c-1.161,0.094-2.314,0.028-3.471-0.031C12.104,55.948,4.37,49.625,1.838,40.03C1.633,39.252,1.715,38.382,1.17,37.7c0-2,0-4,0-6
		c0.448-0.27,0.329-0.771,0.421-1.158c1.991-8.364,7.087-13.81,15.273-16.417c1.234-0.393,2.561-0.345,3.745-0.905
		c0.4,0,0.8,0,1.2,0c0.3,0.388,0.733,0.252,1.101,0.227c1.712-0.116,3.447,0.302,5.14-0.227c10.16,0,20.32,0,30.48,0
		c0.347,0.414,0.821,0.229,1.234,0.229c22.217,0.01,44.434,0.01,66.651,0c0.414,0,0.888,0.183,1.235-0.229c0.24,0,0.479,0,0.72,0
		c0.034,0.193,0.173,0.221,0.341,0.24c9.201,1.05,16.146,7.207,18.404,16.269C147.358,30.704,147.335,31.742,147.811,32.66z
		 M117.291,51.018c1.288-2.358,2.493-3.115,4.839-3.212c1.835-0.076,3.671-0.039,5.506-0.22c6.884-0.68,11.85-6.464,11.532-13.489
		c-0.303-6.703-6.032-12.195-12.726-12.195c-34.275,0-68.55,0.001-102.825-0.006c-0.962,0-1.914,0.063-2.865,0.201
		c-5.215,0.757-9.912,5.209-10.695,10.149c-0.977,6.158,1.671,11.547,6.876,14.123c2.256,1.116,4.663,1.336,7.106,1.362
		c2.761,0.029,5.513,0.01,6.769,3.284c0.08-6.952,0.079-13.782,0.081-20.612c0-0.595-0.036-1.195,0.032-1.783
		c0.254-2.205,1.972-3.755,4.207-3.838c2.003-0.076,3.842,1.43,4.233,3.518c0.124,0.663,0.163,1.349,0.163,2.025
		c0.007,30.835,0.006,61.67,0.007,92.506c0,0.479-0.005,0.96,0.022,1.438c0.227,3.98,2.481,6.447,6.411,6.98
		c0.67,0.091,1.356,0.087,2.035,0.087c17.477,0.005,34.955,0.004,52.432,0.002c0.52,0,1.041-0.002,1.558-0.048
		c3.271-0.288,5.611-2.271,6.361-5.421c0.231-0.972,0.305-1.967,0.305-2.973c-0.008-30.675-0.006-61.351-0.008-92.026
		c0-1.162,0.024-2.313,0.46-3.419c0.683-1.731,2.017-2.665,3.86-2.671c1.785-0.005,3.225,0.987,3.843,2.705
		c0.382,1.062,0.483,2.175,0.482,3.302C117.288,37.421,117.291,44.057,117.291,51.018z"/>
	<path fill-rule="evenodd" clip-rule="evenodd" fill="#FFFFFF" d="M127.65,13.22c-0.348,0.413-0.821,0.229-1.235,0.229
		c-22.217,0.01-44.434,0.01-66.651,0c-0.413,0-0.887,0.185-1.234-0.229C81.57,13.22,104.61,13.22,127.65,13.22z"/>
	<path fill-rule="evenodd" clip-rule="evenodd" fill="#FFFFFF" d="M28.05,13.22c-1.692,0.529-3.428,0.111-5.14,0.227
		c-0.367,0.025-0.8,0.161-1.101-0.227C23.89,13.22,25.97,13.22,28.05,13.22z"/>
</g>
</svg>
