<?xml version="1.0" encoding="utf-8"?>
<!-- Generator: Adobe Illustrator 16.0.0, SVG Export Plug-In . SVG Version: 6.00 Build 0)  -->
<!DOCTYPE svg PUBLIC "-//W3C//DTD SVG 1.1//EN" "http://www.w3.org/Graphics/SVG/1.1/DTD/svg11.dtd">
<svg version="1.1" id="Layer_1" xmlns="http://www.w3.org/2000/svg" xmlns:xlink="http://www.w3.org/1999/xlink" x="0px" y="0px"
	 width="350px" height="350px" viewBox="0 0 350 350" enable-background="new 0 0 350 350" xml:space="preserve">
<path fill="#929293" d="M288.379,113.782c0,10.58,0,20.674,0,30.77c-0.003,25.03,0.012,50.063-0.016,75.093
	c-0.01,9.431-5.383,14.686-14.865,14.686c-48.545-0.003-97.089,0.036-145.635-0.08c-3.455-0.009-4.905,0.971-6.127,4.307
	c-2.636,7.193-6.021,14.111-9.383,21.791c2.554,0,4.867-0.063,7.175,0.012c4.73,0.154,7.182,2.613,7.194,7.375
	c0.042,15.803,0.027,31.604,0.013,47.408c-0.005,6.074-2.087,8.254-8.164,8.267c-23.134,0.049-46.269,0.034-69.403,0.038
	c-8.09,0-16.182,0.031-24.272-0.036c-5.793-0.05-7.98-2.275-7.992-8.095c-0.034-15.805-0.04-31.604-0.009-47.407
	c0.009-4.917,2.551-7.457,7.449-7.566c2.756-0.063,5.516-0.012,8.817-0.012c-0.753-7.451-1.615-14.546-2.165-21.667
	c-2.139-27.704-4.263-55.412-6.207-83.131c-0.622-8.871,2.432-16.914,6.929-24.416c3.414-5.696,6.979-11.301,11.042-17.857
	c-5.183,0-9.608,0.459-13.906-0.085c-13.835-1.752-23.772-10.941-25.046-24.816c-1.01-11.001-0.804-22.265,0.293-33.27
	C5.35,42.559,16.447,32.523,28.975,31.95c13.499-0.616,27.042-0.367,40.565-0.369c82.675-0.013,165.353,0.212,248.024-0.129
	c19.37-0.08,32.326,14.305,31.388,31.55c-0.481,8.818,0.413,17.774-0.741,26.478c-1.888,14.245-13.853,23.925-28.26,24.059
	c-9.229,0.087-18.457,0.017-27.686,0.034C291.15,113.572,290.039,113.688,288.379,113.782z M86.182,167.017
	c3.09-3.444,6.009-6.051,8.005-9.236c0.799-1.276-0.434-3.825-0.739-5.795c-0.02-0.125-0.025-0.252-0.025-0.378
	c-0.009-12.765-0.083-25.532,0.015-38.296c0.03-3.982,2.535-6.227,6.482-6.399c7.604-0.331,10.434-2.891,11.377-10.293
	c0.706-5.539,2.545-7.228,8.147-7.229c38.677-0.008,77.354,0,116.031,0.026c6.026,0.004,7.801,1.775,8.115,7.835
	c0.336,6.482,3.656,10.055,9.912,10.671c4.625,0.455,6.84,2.739,6.855,7.37c0.043,11.754,0.035,23.509-0.019,35.263
	c-0.022,5.032-1.974,7.077-6.955,7.601c-5.892,0.621-9.31,4.132-9.782,10.055c-0.588,7.334-1.875,8.515-9.355,8.515
	c-28.818,0.004-57.637-0.014-86.454,0.049c-1.387,0.002-3.596,0.258-4.021,1.101c-2.237,4.44-4.024,9.108-6.049,13.896
	c46.094,0,91.646,0,137.371,0c0-39.52,0-78.75,0-118.082c-65.95,0-131.607,0-197.466,0c-0.081,0.963-0.206,1.694-0.194,2.422
	c0.389,23.248,1.021,46.493,1.061,69.741C78.506,153.583,81.94,159.575,86.182,167.017z M64.369,107.794
	c-0.411-0.084-0.822-0.168-1.233-0.252c-5.116,7.489-9.967,15.177-15.409,22.423c-8.444,11.245-10.975,23.663-9.624,37.48
	c2.286,23.375,3.955,46.813,5.979,70.217c0.648,7.495,1.596,14.964,2.431,22.665c16.846,0,33.263,0.032,49.678-0.095
	c0.859-0.008,2.03-1.228,2.503-2.16c1.936-3.823,3.533-7.82,5.482-11.637c4.994-9.772,8.421-20.011,9.176-31
	c0.371-5.408,2.413-10.018,4.759-14.871c7.292-15.098,13.938-30.507,20.61-45.895c1.379-3.182,2.524-7.018-0.353-10.025
	c-2.913-3.045-6.789-2.304-10.353-1.248c-7.235,2.145-12.68,6.797-16.603,13.085c-5.86,9.39-12.669,17.741-21.956,24.073
	c-5.261,3.586-9.45,3.243-12.497-2.343c-2.72-4.987-5.747-9.878-7.791-15.141c-1.835-4.723-3.175-9.842-3.57-14.878
	c-0.819-10.447-0.89-20.955-1.217-31.439C64.29,113.772,64.369,110.782,64.369,107.794z M288.621,99.993
	c1.206,0.101,2.182,0.254,3.16,0.256c9.479,0.016,18.959,0.074,28.437-0.014c8.729-0.082,15.232-6.614,15.339-15.399
	c0.103-8.215,0.394-16.454-0.133-24.635c-0.22-3.419-1.721-7.142-3.712-9.973c-3.099-4.408-8.054-5.578-13.418-5.571
	c-48.405,0.067-96.812,0.039-145.217,0.039c-46.512,0-93.022-0.007-139.534,0.005c-10.581,0.003-16.91,6.376-16.942,17
	c-0.018,5.688,0.362,11.404-0.074,17.058c-1.207,15.665,6.337,22.811,21.519,21.564c4.645-0.381,10.104,1.312,13.801-0.612
	c3.835-1.996,5.727-7.465,8.942-10.981c4.092-4.476,3.812-9.54,3.163-15.265c-1.327,0-2.558,0-3.789,0
	c-5.055-0.003-10.114,0.098-15.165-0.044c-3.799-0.106-6.526-2.947-6.595-6.493c-0.065-3.363,2.428-6.155,6.044-6.65
	c1.119-0.152,2.271-0.082,3.408-0.083c74.064-0.032,148.127-0.063,222.19-0.091c10.871-0.004,21.739,0.003,32.609,0.004
	c3.176,0,6.087,1.058,6.815,4.252c0.47,2.045,0.068,4.955-1.157,6.527c-1.158,1.485-3.867,2.248-5.967,2.413
	c-4.48,0.35-9.012,0.106-13.728,0.106C288.621,82.524,288.621,91.165,288.621,99.993z M106.366,141.45
	c1.856-1.522,2.776-2.579,3.934-3.173c5.336-2.739,10.48-6.366,16.167-7.818c18.061-4.614,30.238,8.205,25.415,26.143
	c-0.578,2.152-1.277,4.272-2.012,6.709c1.28,0.155,2.242,0.374,3.203,0.375c25.02,0.016,50.04-0.011,75.061,0.04
	c2.13,0.004,3.011-0.733,3.687-2.804c2.185-6.69,6.592-11.47,13.052-14.463c1.127-0.523,2.351-2.258,2.394-3.475
	c0.24-6.563,0.243-13.142,0.025-19.706c-0.041-1.245-1.161-3.055-2.266-3.564c-6.59-3.044-10.881-7.959-13.428-14.689
	c-0.426-1.125-2.156-2.5-3.289-2.505c-33.99-0.137-67.982-0.137-101.977-0.026c-1.113,0.004-2.828,1.147-3.236,2.171
	c-2.793,6.979-7.48,11.837-14.588,14.458c-0.947,0.349-2.014,1.913-2.047,2.946C106.268,128.117,106.366,134.177,106.366,141.45z
	 M113.327,310.121c0-12.203,0-24.213,0-36.234c-27.875,0-55.362,0-82.954,0c0,12.184,0,24.105,0,36.234
	C58.144,310.121,85.632,310.121,113.327,310.121z M275.396,220.979c0-3.861,0.006-7.26-0.002-10.654
	c-0.014-4.979-0.02-4.989-4.897-4.989c-44.735,0-89.474,0.004-134.208,0c-5.67,0-7.766,1.282-9.15,6.628
	c-0.733,2.833-0.627,5.885-0.916,9.02C176.021,220.979,225.38,220.979,275.396,220.979z"/>
<path fill="#929293" d="M177.667,147.186c-7.861,0.118-14.525-1.813-19.994-6.892c-6.526-6.061-6.379-14.969,0.212-20.99
	c9.547-8.724,27.139-9.18,37.195-0.965c8.613,7.035,8.013,17.813-1.443,24.159C188.684,145.821,183.152,147.395,177.667,147.186z
	 M166.315,129.865c4.618,5.742,16.744,5.783,21.319,0.073C183.221,124.151,171.081,124.11,166.315,129.865z"/>
</svg>
