<?xml version="1.0" encoding="utf-8"?>
<!-- Generator: Adobe Illustrator 23.0.6, SVG Export Plug-In . SVG Version: 6.00 Build 0)  -->
<svg version="1.1" id="Layer_1" xmlns="http://www.w3.org/2000/svg" xmlns:xlink="http://www.w3.org/1999/xlink" x="0px" y="0px"
	 viewBox="0 0 32 32" style="enable-background:new 0 0 32 32;" xml:space="preserve">
<style type="text/css">
	.st0{fill-rule:evenodd;clip-rule:evenodd;fill:#0033AD;}
	.st1{fill:#FFFFFF;}
</style>
<g>
	<circle class="st0" cx="16" cy="16" r="16"/>
	<path class="st1" d="M15.7,6.1c0.5-0.2,1.1,0.3,0.8,0.8c-0.1,0.4-0.7,0.5-1,0.2C15.2,6.8,15.3,6.2,15.7,6.1L15.7,6.1z M10.6,6.6
		c0.3-0.1,0.7,0.1,0.6,0.5c0,0.3-0.4,0.6-0.7,0.4C10.1,7.3,10.2,6.7,10.6,6.6z M21.1,7.5c-0.5-0.1-0.5-0.8-0.1-0.9
		c0.3-0.2,0.7,0.1,0.7,0.5C21.7,7.3,21.4,7.6,21.1,7.5z M11.7,8.8c0.5-0.3,1.2,0.1,1.1,0.7c0,0.6-0.8,0.9-1.2,0.5
		C11.2,9.7,11.3,9,11.7,8.8z M19.2,9.1c0.2-0.6,1.1-0.6,1.3,0c0.2,0.4-0.1,0.9-0.5,1.1C19.4,10.2,18.9,9.6,19.2,9.1z M15.1,10.1
		c0-0.5,0.4-0.8,0.9-0.9c0.3,0.1,0.6,0.2,0.8,0.5c0.2,0.4,0,1-0.4,1.2C16.1,11,15.9,11,15.7,11C15.4,10.8,15.1,10.5,15.1,10.1z
		 M7.4,10.8c0.4-0.3,1,0.2,0.9,0.7c-0.1,0.4-0.7,0.6-1,0.3C7,11.6,7,11,7.4,10.8L7.4,10.8z M23.9,10.8c0.4-0.3,1,0,1,0.5
		c0,0.4-0.5,0.8-0.9,0.5C23.6,11.6,23.5,11,23.9,10.8L23.9,10.8z M17.3,11.6c0.6-0.2,1.4,0,1.7,0.6c0.5,0.7,0.2,1.7-0.5,2.1
		c-0.8,0.5-1.9,0.1-2.1-0.8C16,12.8,16.5,11.9,17.3,11.6L17.3,11.6z M13.6,11.7c0.7-0.3,1.6-0.1,2,0.6c0.4,0.7,0.1,1.6-0.6,2
		c-0.7,0.4-1.7,0.1-2-0.6C12.5,13,12.9,12,13.6,11.7z M9.9,12.9c0.1-0.4,0.5-0.7,0.9-0.8c0.5,0,0.8,0.4,0.9,0.9
		c0,0.4-0.4,0.9-0.9,0.9C10.3,14,9.8,13.5,9.9,12.9z M20.8,12.3c0.5-0.3,1.3,0.1,1.3,0.8c0,0.7-0.8,1.1-1.3,0.7
		C20.1,13.5,20.2,12.6,20.8,12.3z M12.1,14.6c0.6-0.2,1.4,0.1,1.7,0.7c0.3,0.6,0.2,1.4-0.3,1.8c-0.7,0.6-1.9,0.4-2.3-0.5
		C10.7,15.8,11.3,14.8,12.1,14.6L12.1,14.6z M19,14.6c0.6-0.2,1.4,0.1,1.7,0.6c0.4,0.6,0.2,1.6-0.4,2c-0.7,0.5-1.8,0.2-2.1-0.5
		C17.7,15.9,18.2,14.8,19,14.6z M8,15.3c0.6-0.2,1.2,0.4,0.9,0.9c-0.1,0.5-0.8,0.7-1.2,0.3C7.3,16.2,7.5,15.5,8,15.3z M23,16.1
		c0-0.5,0.3-0.8,0.8-0.9c0.4,0.1,0.7,0.4,0.7,0.8c0,0.5-0.6,0.9-1.1,0.6C23.2,16.5,23.1,16.3,23,16.1z M5.3,15.6
		C5.6,15.4,6,15.7,6,16.1c0,0.4-0.6,0.6-0.9,0.2C4.9,16.1,5,15.7,5.3,15.6L5.3,15.6z M26.2,15.6c0.2-0.2,0.6,0,0.7,0.2
		c0.2,0.3-0.1,0.7-0.5,0.6C26,16.5,25.9,15.8,26.2,15.6z M13.9,17.5c0.9-0.2,1.8,0.5,1.8,1.4c0.1,0.9-0.9,1.7-1.8,1.5
		c-0.7-0.1-1.2-0.8-1.2-1.5C12.8,18.3,13.3,17.7,13.9,17.5z M17.4,17.5c0.9-0.2,1.9,0.5,1.8,1.4c0,0.9-0.9,1.6-1.7,1.5
		c-0.8-0.1-1.4-1-1.2-1.8C16.4,18.1,16.9,17.7,17.4,17.5L17.4,17.5z M10.7,18.1c0.6-0.1,1.2,0.6,0.9,1.1c-0.2,0.6-1.1,0.8-1.5,0.3
		C9.7,19,10,18.2,10.7,18.1z M20.9,18.1c0.5-0.2,1.2,0.2,1.2,0.8c0,0.6-0.8,1.1-1.3,0.7C20.1,19.3,20.2,18.3,20.9,18.1z M23.7,20.9
		c-0.2-0.4,0.2-0.9,0.6-0.8c0.2,0,0.4,0.2,0.5,0.3c0,0.2,0.1,0.5-0.1,0.7C24.5,21.4,23.8,21.3,23.7,20.9z M7.4,20.2
		c0.4-0.3,1,0.1,0.9,0.6c-0.1,0.4-0.6,0.7-0.9,0.4C7,21,7,20.4,7.4,20.2z M15.6,21.1c0.5-0.2,1.2,0.2,1.2,0.8c0,0.6-0.8,1.1-1.3,0.7
		C14.9,22.3,15,21.3,15.6,21.1z M11.8,21.9c0.5-0.2,1.1,0.2,1,0.7c0,0.4-0.4,0.8-0.8,0.7c-0.3,0-0.6-0.3-0.7-0.6
		C11.4,22.4,11.5,22.1,11.8,21.9L11.8,21.9z M19.5,21.9c0.5-0.3,1.2,0.1,1.1,0.7c0,0.6-0.8,0.9-1.2,0.6C19,22.9,19.1,22.2,19.5,21.9
		z M20.9,25.2c-0.2-0.3,0-0.7,0.4-0.8c0.3,0.1,0.6,0.3,0.5,0.6C21.7,25.4,21.1,25.6,20.9,25.2L20.9,25.2z M10.2,24.9
		c0.1-0.3,0.3-0.5,0.6-0.4c0.4,0,0.6,0.7,0.2,0.9C10.7,25.6,10.3,25.3,10.2,24.9z M15.4,25.2c0.1-0.4,0.6-0.5,0.9-0.4
		c0.2,0.1,0.3,0.3,0.3,0.5c0,0.1-0.1,0.2-0.1,0.3C16.4,25.8,16.2,26,16,26C15.6,26,15.2,25.6,15.4,25.2L15.4,25.2z"/>
</g>
</svg>
