<?xml version="1.0" encoding="utf-8"?>
<!-- Generator: Adobe Illustrator 23.0.6, SVG Export Plug-In . SVG Version: 6.00 Build 0)  -->
<svg version="1.1" id="Layer_1" xmlns="http://www.w3.org/2000/svg" xmlns:xlink="http://www.w3.org/1999/xlink" x="0px" y="0px"
	 viewBox="0 0 32 32" style="enable-background:new 0 0 32 32;" xml:space="preserve">
<style type="text/css">
	.st0{fill-rule:evenodd;clip-rule:evenodd;fill:#007F88;}
	.st1{fill:#FFFFFF;}
</style>
<circle class="st0" cx="16" cy="16" r="16"/>
<g>
	<g id="Layer_1-2">
		<path class="st1" d="M4.2,7c-0.4,0-0.7,0.1-0.7,0.1c0.2,0.4,1.1,2.5,1.1,2.5s0.2,0,0.5,0c1.1,0,2,0.3,3,0.7
			c0.7,0.3,1.2,0.7,1.7,1.2c0.8,0.8,1.3,1.7,1.6,2.7c0,0.1,0.1,0.2,0.1,0.3c0,0-0.2,0-0.9,0c-0.5,0-1,0-1,0c0,0-0.1,0.2-0.6,1.3
			c-0.3,0.7-0.5,1.3-0.5,1.3c0,0.1,0.2,0.1,0.6,0.2c0.1,0,0.6,0,1.3,0l1.1,0l-0.1,0.2c-0.8,2.6-3.1,4.4-6,4.6c-0.2,0-0.4,0-0.5,0
			H4.7l-0.6,1.3c-0.5,1.1-0.6,1.3-0.5,1.3c0.1,0.1,0.5,0.1,1.2,0.1c1,0,1.4,0,2.2-0.2c3.2-0.7,5.9-2.7,7.1-5.4
			c0.2-0.5,0.5-1.4,0.6-1.8l0-0.1h2.4l0,0c0.2,0.9,0.4,1.4,0.7,2.1c1,2,2.8,3.7,5.1,4.6c1.4,0.6,2.9,0.8,4.4,0.8
			c0.6,0,1.1-0.1,1.1-0.2c0-0.1-1.1-2.5-1.1-2.5s-0.2,0-0.5,0c-0.7,0-1.3-0.1-1.9-0.3c-1-0.3-1.9-0.8-2.7-1.4
			c-0.9-0.8-1.6-1.8-2-2.8c0-0.1-0.1-0.3-0.1-0.3l0-0.1l0.9,0c0.5,0,0.9,0,0.9,0c0,0,1.1-2.5,1.1-2.5c0,0-0.3-0.1-0.5-0.2
			c-0.2,0-0.4,0-1.3,0l-1.1,0l0-0.2c0.6-2.2,2.5-3.9,5-4.6c0.5-0.1,1.1-0.2,1.8-0.2c0.4,0,0.5,0,0.5-0.1c0,0,0.3-0.6,0.6-1.2
			c0.4-0.8,0.5-1.2,0.5-1.2c0,0-0.3-0.1-0.6-0.1c-0.3,0-1.3,0-1.8,0c-2.5,0.2-4.8,1.2-6.4,2.9c-1,1-1.8,2.1-2.2,3.4
			c-0.1,0.3-0.3,0.8-0.3,1.1l0,0.2h-2.4l0,0c0,0,0-0.1-0.1-0.3c-0.4-1.7-1.3-3.4-2.7-4.7c-1.6-1.4-3.6-2.3-5.8-2.6
			C5.6,7,4.7,7,4.2,7z"/>
	</g>
</g>
</svg>
